<ttFont>
<head>
    <!-- Most of this table will be recalculated by the compiler -->
    <tableVersion value="1.0"/>
    <fontRevision value="5.0"/>
    <checkSumAdjustment value="0x3d10c482"/>
    <magicNumber value="0x5f0f3cf5"/>
    <flags value="00000000 00001011"/>
    <unitsPerEm value="2048"/>
    <created value="Sun May 15 08:57:39 2005"/>
    <modified value="Fri Apr 15 06:27:51 2011"/>
    <xMin value="-31"/>
    <yMin value="-1084"/>
    <xMax value="6239"/>
    <yMax value="2306"/>
    <macStyle value="00000000 00000000"/>
    <lowestRecPPEM value="8"/>
    <fontDirectionHint value="2"/>
    <indexToLocFormat value="1"/>
    <glyphDataFormat value="0"/>
  </head>
    <TTGlyph name=".notdef" xMin="142" yMin="226" xMax="842" yMax="1588">
      <contour>
        <pt x="142" y="226" on="1"/>
        <pt x="142" y="1588" on="1"/>
        <pt x="842" y="1588" on="1"/>
        <pt x="842" y="226" on="1"/>
      </contour>
      <contour>
        <pt x="284" y="368" on="1"/>
        <pt x="700" y="368" on="1"/>
        <pt x="700" y="1447" on="1"/>
        <pt x="284" y="1447" on="1"/>
      </contour>
    </TTGlyph>
    <TTGlyph name=".null" xMin="142" yMin="226" xMax="842" yMax="1588">
      <contour>
        <pt x="142" y="226" on="1"/>
        <pt x="142" y="1588" on="1"/>
        <pt x="842" y="1588" on="1"/>
        <pt x="842" y="226" on="1"/>
      </contour>
      <contour>
        <pt x="284" y="368" on="1"/>
        <pt x="700" y="368" on="1"/>
        <pt x="700" y="1447" on="1"/>
        <pt x="284" y="1447" on="1"/>
      </contour>
    </TTGlyph>
    <TTGlyph name="afii57381" xMin="142" yMin="226" xMax="842" yMax="1588">
      <contour>
        <pt x="142" y="226" on="1"/>
        <pt x="142" y="1588" on="1"/>
        <pt x="842" y="1588" on="1"/>
        <pt x="842" y="226" on="1"/>
      </contour>
      <contour>
        <pt x="284" y="368" on="1"/>
        <pt x="700" y="368" on="1"/>
        <pt x="700" y="1447" on="1"/>
        <pt x="284" y="1447" on="1"/>
      </contour>
    </TTGlyph>
    <TTGlyph name="afii57388" xMin="142" yMin="226" xMax="842" yMax="1588">
      <contour>
        <pt x="142" y="226" on="1"/>
        <pt x="142" y="1588" on="1"/>
        <pt x="842" y="1588" on="1"/>
        <pt x="842" y="226" on="1"/>
      </contour>
      <contour>
        <pt x="284" y="368" on="1"/>
        <pt x="700" y="368" on="1"/>
        <pt x="700" y="1447" on="1"/>
        <pt x="284" y="1447" on="1"/>
      </contour>
    </TTGlyph>
    <TTGlyph name="afii57396" xMin="142" yMin="226" xMax="842" yMax="1588">
      <contour>
        <pt x="142" y="226" on="1"/>
        <pt x="142" y="1588" on="1"/>
        <pt x="842" y="1588" on="1"/>
        <pt x="842" y="226" on="1"/>
      </contour>
      <contour>
        <pt x="284" y="368" on="1"/>
        <pt x="700" y="368" on="1"/>
        <pt x="700" y="1447" on="1"/>
        <pt x="284" y="1447" on="1"/>
      </contour>
    </TTGlyph>
    <TTGlyph name="afii57397" xMin="142" yMin="226" xMax="842" yMax="1588">
      <contour>
        <pt x="142" y="226" on="1"/>
        <pt x="142" y="1588" on="1"/>
        <pt x="842" y="1588" on="1"/>
        <pt x="842" y="226" on="1"/>
      </contour>
      <contour>
        <pt x="284" y="368" on="1"/>
        <pt x="700" y="368" on="1"/>
        <pt x="700" y="1447" on="1"/>
        <pt x="284" y="1447" on="1"/>
      </contour>
    </TTGlyph>
    <TTGlyph name="afii57398" xMin="142" yMin="226" xMax="842" yMax="1588">
      <contour>
        <pt x="142" y="226" on="1"/>
        <pt x="142" y="1588" on="1"/>
        <pt x="842" y="1588" on="1"/>
        <pt x="842" y="226" on="1"/>
      </contour>
      <contour>
        <pt x="284" y="368" on="1"/>
        <pt x="700" y="368" on="1"/>
        <pt x="700" y="1447" on="1"/>
        <pt x="284" y="1447" on="1"/>
      </contour>
    </TTGlyph>
    <TTGlyph name="afii57403" xMin="142" yMin="226" xMax="842" yMax="1588">
      <contour>
        <pt x="142" y="226" on="1"/>
        <pt x="142" y="1588" on="1"/>
        <pt x="842" y="1588" on="1"/>
        <pt x="842" y="226" on="1"/>
      </contour>
      <contour>
        <pt x="284" y="368" on="1"/>
        <pt x="700" y="368" on="1"/>
        <pt x="700" y="1447" on="1"/>
        <pt x="284" y="1447" on="1"/>
      </contour>
    </TTGlyph>
    <TTGlyph name="afii57407" xMin="142" yMin="226" xMax="842" yMax="1588">
      <contour>
        <pt x="142" y="226" on="1"/>
        <pt x="142" y="1588" on="1"/>
        <pt x="842" y="1588" on="1"/>
        <pt x="842" y="226" on="1"/>
      </contour>
      <contour>
        <pt x="284" y="368" on="1"/>
        <pt x="700" y="368" on="1"/>
        <pt x="700" y="1447" on="1"/>
        <pt x="284" y="1447" on="1"/>
      </contour>
    </TTGlyph>
    <TTGlyph name="afii57440" xMin="142" yMin="226" xMax="842" yMax="1588">
      <contour>
        <pt x="142" y="226" on="1"/>
        <pt x="142" y="1588" on="1"/>
        <pt x="842" y="1588" on="1"/>
        <pt x="842" y="226" on="1"/>
      </contour>
      <contour>
        <pt x="284" y="368" on="1"/>
        <pt x="700" y="368" on="1"/>
        <pt x="700" y="1447" on="1"/>
        <pt x="284" y="1447" on="1"/>
      </contour>
    </TTGlyph>
    <TTGlyph name="afii57451" xMin="142" yMin="226" xMax="842" yMax="1588">
      <contour>
        <pt x="142" y="226" on="1"/>
        <pt x="142" y="1588" on="1"/>
        <pt x="842" y="1588" on="1"/>
        <pt x="842" y="226" on="1"/>
      </contour>
      <contour>
        <pt x="284" y="368" on="1"/>
        <pt x="700" y="368" on="1"/>
        <pt x="700" y="1447" on="1"/>
        <pt x="284" y="1447" on="1"/>
      </contour>
    </TTGlyph>
    <TTGlyph name="afii57452" xMin="142" yMin="226" xMax="842" yMax="1588">
      <contour>
        <pt x="142" y="226" on="1"/>
        <pt x="142" y="1588" on="1"/>
        <pt x="842" y="1588" on="1"/>
        <pt x="842" y="226" on="1"/>
      </contour>
      <contour>
        <pt x="284" y="368" on="1"/>
        <pt x="700" y="368" on="1"/>
        <pt x="700" y="1447" on="1"/>
        <pt x="284" y="1447" on="1"/>
      </contour>
    </TTGlyph>
    <TTGlyph name="afii57453" xMin="142" yMin="226" xMax="842" yMax="1588">
      <contour>
        <pt x="142" y="226" on="1"/>
        <pt x="142" y="1588" on="1"/>
        <pt x="842" y="1588" on="1"/>
        <pt x="842" y="226" on="1"/>
      </contour>
      <contour>
        <pt x="284" y="368" on="1"/>
        <pt x="700" y="368" on="1"/>
        <pt x="700" y="1447" on="1"/>
        <pt x="284" y="1447" on="1"/>
      </contour>
    </TTGlyph>
    <TTGlyph name="afii57454" xMin="142" yMin="226" xMax="842" yMax="1588">
      <contour>
        <pt x="142" y="226" on="1"/>
        <pt x="142" y="1588" on="1"/>
        <pt x="842" y="1588" on="1"/>
        <pt x="842" y="226" on="1"/>
      </contour>
      <contour>
        <pt x="284" y="368" on="1"/>
        <pt x="700" y="368" on="1"/>
        <pt x="700" y="1447" on="1"/>
        <pt x="284" y="1447" on="1"/>
      </contour>
    </TTGlyph>
    <TTGlyph name="afii57455" xMin="142" yMin="226" xMax="842" yMax="1588">
      <contour>
        <pt x="142" y="226" on="1"/>
        <pt x="142" y="1588" on="1"/>
        <pt x="842" y="1588" on="1"/>
        <pt x="842" y="226" on="1"/>
      </contour>
      <contour>
        <pt x="284" y="368" on="1"/>
        <pt x="700" y="368" on="1"/>
        <pt x="700" y="1447" on="1"/>
        <pt x="284" y="1447" on="1"/>
      </contour>
    </TTGlyph>
    <TTGlyph name="afii57456" xMin="142" yMin="226" xMax="842" yMax="1588">
      <contour>
        <pt x="142" y="226" on="1"/>
        <pt x="142" y="1588" on="1"/>
        <pt x="842" y="1588" on="1"/>
        <pt x="842" y="226" on="1"/>
      </contour>
      <contour>
        <pt x="284" y="368" on="1"/>
        <pt x="700" y="368" on="1"/>
        <pt x="700" y="1447" on="1"/>
        <pt x="284" y="1447" on="1"/>
      </contour>
    </TTGlyph>
    <TTGlyph name="afii57457" xMin="142" yMin="226" xMax="842" yMax="1588">
      <contour>
        <pt x="142" y="226" on="1"/>
        <pt x="142" y="1588" on="1"/>
        <pt x="842" y="1588" on="1"/>
        <pt x="842" y="226" on="1"/>
      </contour>
      <contour>
        <pt x="284" y="368" on="1"/>
        <pt x="700" y="368" on="1"/>
        <pt x="700" y="1447" on="1"/>
        <pt x="284" y="1447" on="1"/>
      </contour>
    </TTGlyph>
    <TTGlyph name="afii57458" xMin="142" yMin="226" xMax="842" yMax="1588">
      <contour>
        <pt x="142" y="226" on="1"/>
        <pt x="142" y="1588" on="1"/>
        <pt x="842" y="1588" on="1"/>
        <pt x="842" y="226" on="1"/>
      </contour>
      <contour>
        <pt x="284" y="368" on="1"/>
        <pt x="700" y="368" on="1"/>
        <pt x="700" y="1447" on="1"/>
        <pt x="284" y="1447" on="1"/>
      </contour>
    </TTGlyph>
    <TTGlyph name="afii57505" xMin="142" yMin="226" xMax="842" yMax="1588">
      <contour>
        <pt x="142" y="226" on="1"/>
        <pt x="142" y="1588" on="1"/>
        <pt x="842" y="1588" on="1"/>
        <pt x="842" y="226" on="1"/>
      </contour>
      <contour>
        <pt x="284" y="368" on="1"/>
        <pt x="700" y="368" on="1"/>
        <pt x="700" y="1447" on="1"/>
        <pt x="284" y="1447" on="1"/>
      </contour>
    </TTGlyph>
    <TTGlyph name="afii57506" xMin="142" yMin="226" xMax="842" yMax="1588">
      <contour>
        <pt x="142" y="226" on="1"/>
        <pt x="142" y="1588" on="1"/>
        <pt x="842" y="1588" on="1"/>
        <pt x="842" y="226" on="1"/>
      </contour>
      <contour>
        <pt x="284" y="368" on="1"/>
        <pt x="700" y="368" on="1"/>
        <pt x="700" y="1447" on="1"/>
        <pt x="284" y="1447" on="1"/>
      </contour>
    </TTGlyph>
    <TTGlyph name="afii57507" xMin="142" yMin="226" xMax="842" yMax="1588">
      <contour>
        <pt x="142" y="226" on="1"/>
        <pt x="142" y="1588" on="1"/>
        <pt x="842" y="1588" on="1"/>
        <pt x="842" y="226" on="1"/>
      </contour>
      <contour>
        <pt x="284" y="368" on="1"/>
        <pt x="700" y="368" on="1"/>
        <pt x="700" y="1447" on="1"/>
        <pt x="284" y="1447" on="1"/>
      </contour>
    </TTGlyph>
    <TTGlyph name="afii57508" xMin="142" yMin="226" xMax="842" yMax="1588">
      <contour>
        <pt x="142" y="226" on="1"/>
        <pt x="142" y="1588" on="1"/>
        <pt x="842" y="1588" on="1"/>
        <pt x="842" y="226" on="1"/>
      </contour>
      <contour>
        <pt x="284" y="368" on="1"/>
        <pt x="700" y="368" on="1"/>
        <pt x="700" y="1447" on="1"/>
        <pt x="284" y="1447" on="1"/>
      </contour>
    </TTGlyph>
    <TTGlyph name="afii57509" xMin="142" yMin="226" xMax="842" yMax="1588">
      <contour>
        <pt x="142" y="226" on="1"/>
        <pt x="142" y="1588" on="1"/>
        <pt x="842" y="1588" on="1"/>
        <pt x="842" y="226" on="1"/>
      </contour>
      <contour>
        <pt x="284" y="368" on="1"/>
        <pt x="700" y="368" on="1"/>
        <pt x="700" y="1447" on="1"/>
        <pt x="284" y="1447" on="1"/>
      </contour>
    </TTGlyph>
    <TTGlyph name="afii57511" xMin="142" yMin="226" xMax="842" yMax="1588">
      <contour>
        <pt x="142" y="226" on="1"/>
        <pt x="142" y="1588" on="1"/>
        <pt x="842" y="1588" on="1"/>
        <pt x="842" y="226" on="1"/>
      </contour>
      <contour>
        <pt x="284" y="368" on="1"/>
        <pt x="700" y="368" on="1"/>
        <pt x="700" y="1447" on="1"/>
        <pt x="284" y="1447" on="1"/>
      </contour>
    </TTGlyph>
    <TTGlyph name="afii57512" xMin="142" yMin="226" xMax="842" yMax="1588">
      <contour>
        <pt x="142" y="226" on="1"/>
        <pt x="142" y="1588" on="1"/>
        <pt x="842" y="1588" on="1"/>
        <pt x="842" y="226" on="1"/>
      </contour>
      <contour>
        <pt x="284" y="368" on="1"/>
        <pt x="700" y="368" on="1"/>
        <pt x="700" y="1447" on="1"/>
        <pt x="284" y="1447" on="1"/>
      </contour>
    </TTGlyph>
    <TTGlyph name="afii57513" xMin="142" yMin="226" xMax="842" yMax="1588">
      <contour>
        <pt x="142" y="226" on="1"/>
        <pt x="142" y="1588" on="1"/>
        <pt x="842" y="1588" on="1"/>
        <pt x="842" y="226" on="1"/>
      </contour>
      <contour>
        <pt x="284" y="368" on="1"/>
        <pt x="700" y="368" on="1"/>
        <pt x="700" y="1447" on="1"/>
        <pt x="284" y="1447" on="1"/>
      </contour>
    </TTGlyph>
    <TTGlyph name="afii57514" xMin="142" yMin="226" xMax="842" yMax="1588">
      <contour>
        <pt x="142" y="226" on="1"/>
        <pt x="142" y="1588" on="1"/>
        <pt x="842" y="1588" on="1"/>
        <pt x="842" y="226" on="1"/>
      </contour>
      <contour>
        <pt x="284" y="368" on="1"/>
        <pt x="700" y="368" on="1"/>
        <pt x="700" y="1447" on="1"/>
        <pt x="284" y="1447" on="1"/>
      </contour>
    </TTGlyph>
    <TTGlyph name="afii57519" xMin="142" yMin="226" xMax="842" yMax="1588">
      <contour>
        <pt x="142" y="226" on="1"/>
        <pt x="142" y="1588" on="1"/>
        <pt x="842" y="1588" on="1"/>
        <pt x="842" y="226" on="1"/>
      </contour>
      <contour>
        <pt x="284" y="368" on="1"/>
        <pt x="700" y="368" on="1"/>
        <pt x="700" y="1447" on="1"/>
        <pt x="284" y="1447" on="1"/>
      </contour>
    </TTGlyph>
    <TTGlyph name="afii57534" xMin="142" yMin="226" xMax="842" yMax="1588">
      <contour>
        <pt x="142" y="226" on="1"/>
        <pt x="142" y="1588" on="1"/>
        <pt x="842" y="1588" on="1"/>
        <pt x="842" y="226" on="1"/>
      </contour>
      <contour>
        <pt x="284" y="368" on="1"/>
        <pt x="700" y="368" on="1"/>
        <pt x="700" y="1447" on="1"/>
        <pt x="284" y="1447" on="1"/>
      </contour>
    </TTGlyph>
    <TTGlyph name="afii63167" xMin="142" yMin="226" xMax="842" yMax="1588">
      <contour>
        <pt x="142" y="226" on="1"/>
        <pt x="142" y="1588" on="1"/>
        <pt x="842" y="1588" on="1"/>
        <pt x="842" y="226" on="1"/>
      </contour>
      <contour>
        <pt x="284" y="368" on="1"/>
        <pt x="700" y="368" on="1"/>
        <pt x="700" y="1447" on="1"/>
        <pt x="284" y="1447" on="1"/>
      </contour>
    </TTGlyph>
    <TTGlyph name="alefmaksurainitial" xMin="142" yMin="226" xMax="842" yMax="1588">
      <contour>
        <pt x="142" y="226" on="1"/>
        <pt x="142" y="1588" on="1"/>
        <pt x="842" y="1588" on="1"/>
        <pt x="842" y="226" on="1"/>
      </contour>
      <contour>
        <pt x="284" y="368" on="1"/>
        <pt x="700" y="368" on="1"/>
        <pt x="700" y="1447" on="1"/>
        <pt x="284" y="1447" on="1"/>
      </contour>
    </TTGlyph>
    <TTGlyph name="alefwaslafinalarabic" xMin="142" yMin="226" xMax="842" yMax="1588">
      <contour>
        <pt x="142" y="226" on="1"/>
        <pt x="142" y="1588" on="1"/>
        <pt x="842" y="1588" on="1"/>
        <pt x="842" y="226" on="1"/>
      </contour>
      <contour>
        <pt x="284" y="368" on="1"/>
        <pt x="700" y="368" on="1"/>
        <pt x="700" y="1447" on="1"/>
        <pt x="284" y="1447" on="1"/>
      </contour>
    </TTGlyph>
    <TTGlyph name="ampersand" xMin="142" yMin="226" xMax="842" yMax="1588">
      <contour>
        <pt x="142" y="226" on="1"/>
        <pt x="142" y="1588" on="1"/>
        <pt x="842" y="1588" on="1"/>
        <pt x="842" y="226" on="1"/>
      </contour>
      <contour>
        <pt x="284" y="368" on="1"/>
        <pt x="700" y="368" on="1"/>
        <pt x="700" y="1447" on="1"/>
        <pt x="284" y="1447" on="1"/>
      </contour>
    </TTGlyph>
    <TTGlyph name="asterisk" xMin="142" yMin="226" xMax="842" yMax="1588">
      <contour>
        <pt x="142" y="226" on="1"/>
        <pt x="142" y="1588" on="1"/>
        <pt x="842" y="1588" on="1"/>
        <pt x="842" y="226" on="1"/>
      </contour>
      <contour>
        <pt x="284" y="368" on="1"/>
        <pt x="700" y="368" on="1"/>
        <pt x="700" y="1447" on="1"/>
        <pt x="284" y="1447" on="1"/>
      </contour>
    </TTGlyph>
    <TTGlyph name="behmeemisolatedarabic" xMin="142" yMin="226" xMax="842" yMax="1588">
      <contour>
        <pt x="142" y="226" on="1"/>
        <pt x="142" y="1588" on="1"/>
        <pt x="842" y="1588" on="1"/>
        <pt x="842" y="226" on="1"/>
      </contour>
      <contour>
        <pt x="284" y="368" on="1"/>
        <pt x="700" y="368" on="1"/>
        <pt x="700" y="1447" on="1"/>
        <pt x="284" y="1447" on="1"/>
      </contour>
    </TTGlyph>
    <TTGlyph name="behnoonfinalarabic" xMin="142" yMin="226" xMax="842" yMax="1588">
      <contour>
        <pt x="142" y="226" on="1"/>
        <pt x="142" y="1588" on="1"/>
        <pt x="842" y="1588" on="1"/>
        <pt x="842" y="226" on="1"/>
      </contour>
      <contour>
        <pt x="284" y="368" on="1"/>
        <pt x="700" y="368" on="1"/>
        <pt x="700" y="1447" on="1"/>
        <pt x="284" y="1447" on="1"/>
      </contour>
    </TTGlyph>
    <TTGlyph name="colon" xMin="142" yMin="226" xMax="842" yMax="1588">
      <contour>
        <pt x="142" y="226" on="1"/>
        <pt x="142" y="1588" on="1"/>
        <pt x="842" y="1588" on="1"/>
        <pt x="842" y="226" on="1"/>
      </contour>
      <contour>
        <pt x="284" y="368" on="1"/>
        <pt x="700" y="368" on="1"/>
        <pt x="700" y="1447" on="1"/>
        <pt x="284" y="1447" on="1"/>
      </contour>
    </TTGlyph>
    <TTGlyph name="dagger" xMin="142" yMin="226" xMax="842" yMax="1588">
      <contour>
        <pt x="142" y="226" on="1"/>
        <pt x="142" y="1588" on="1"/>
        <pt x="842" y="1588" on="1"/>
        <pt x="842" y="226" on="1"/>
      </contour>
      <contour>
        <pt x="284" y="368" on="1"/>
        <pt x="700" y="368" on="1"/>
        <pt x="700" y="1447" on="1"/>
        <pt x="284" y="1447" on="1"/>
      </contour>
    </TTGlyph>
    <TTGlyph name="dalringfinal" xMin="142" yMin="226" xMax="842" yMax="1588">
      <contour>
        <pt x="142" y="226" on="1"/>
        <pt x="142" y="1588" on="1"/>
        <pt x="842" y="1588" on="1"/>
        <pt x="842" y="226" on="1"/>
      </contour>
      <contour>
        <pt x="284" y="368" on="1"/>
        <pt x="700" y="368" on="1"/>
        <pt x="700" y="1447" on="1"/>
        <pt x="284" y="1447" on="1"/>
      </contour>
    </TTGlyph>
    <TTGlyph name="ddalfinalarabic" xMin="142" yMin="226" xMax="842" yMax="1588">
      <contour>
        <pt x="142" y="226" on="1"/>
        <pt x="142" y="1588" on="1"/>
        <pt x="842" y="1588" on="1"/>
        <pt x="842" y="226" on="1"/>
      </contour>
      <contour>
        <pt x="284" y="368" on="1"/>
        <pt x="700" y="368" on="1"/>
        <pt x="700" y="1447" on="1"/>
        <pt x="284" y="1447" on="1"/>
      </contour>
    </TTGlyph>
    <TTGlyph name="divide" xMin="142" yMin="226" xMax="842" yMax="1588">
      <contour>
        <pt x="142" y="226" on="1"/>
        <pt x="142" y="1588" on="1"/>
        <pt x="842" y="1588" on="1"/>
        <pt x="842" y="226" on="1"/>
      </contour>
      <contour>
        <pt x="284" y="368" on="1"/>
        <pt x="700" y="368" on="1"/>
        <pt x="700" y="1447" on="1"/>
        <pt x="284" y="1447" on="1"/>
      </contour>
    </TTGlyph>
    <TTGlyph name="dollar" xMin="142" yMin="226" xMax="842" yMax="1588">
      <contour>
        <pt x="142" y="226" on="1"/>
        <pt x="142" y="1588" on="1"/>
        <pt x="842" y="1588" on="1"/>
        <pt x="842" y="226" on="1"/>
      </contour>
      <contour>
        <pt x="284" y="368" on="1"/>
        <pt x="700" y="368" on="1"/>
        <pt x="700" y="1447" on="1"/>
        <pt x="284" y="1447" on="1"/>
      </contour>
    </TTGlyph>
    <TTGlyph name="dotlessyehfinalarabic" xMin="142" yMin="226" xMax="842" yMax="1588">
      <contour>
        <pt x="142" y="226" on="1"/>
        <pt x="142" y="1588" on="1"/>
        <pt x="842" y="1588" on="1"/>
        <pt x="842" y="226" on="1"/>
      </contour>
      <contour>
        <pt x="284" y="368" on="1"/>
        <pt x="700" y="368" on="1"/>
        <pt x="700" y="1447" on="1"/>
        <pt x="284" y="1447" on="1"/>
      </contour>
    </TTGlyph>
    <TTGlyph name="dotlessyehinitialarabic" xMin="142" yMin="226" xMax="842" yMax="1588">
      <contour>
        <pt x="142" y="226" on="1"/>
        <pt x="142" y="1588" on="1"/>
        <pt x="842" y="1588" on="1"/>
        <pt x="842" y="226" on="1"/>
      </contour>
      <contour>
        <pt x="284" y="368" on="1"/>
        <pt x="700" y="368" on="1"/>
        <pt x="700" y="1447" on="1"/>
        <pt x="284" y="1447" on="1"/>
      </contour>
    </TTGlyph>
    <TTGlyph name="dotlessyehmedialarabic" xMin="142" yMin="226" xMax="842" yMax="1588">
      <contour>
        <pt x="142" y="226" on="1"/>
        <pt x="142" y="1588" on="1"/>
        <pt x="842" y="1588" on="1"/>
        <pt x="842" y="226" on="1"/>
      </contour>
      <contour>
        <pt x="284" y="368" on="1"/>
        <pt x="700" y="368" on="1"/>
        <pt x="700" y="1447" on="1"/>
        <pt x="284" y="1447" on="1"/>
      </contour>
    </TTGlyph>
    <TTGlyph name="elefmaksuramedial" xMin="142" yMin="226" xMax="842" yMax="1588">
      <contour>
        <pt x="142" y="226" on="1"/>
        <pt x="142" y="1588" on="1"/>
        <pt x="842" y="1588" on="1"/>
        <pt x="842" y="226" on="1"/>
      </contour>
      <contour>
        <pt x="284" y="368" on="1"/>
        <pt x="700" y="368" on="1"/>
        <pt x="700" y="1447" on="1"/>
        <pt x="284" y="1447" on="1"/>
      </contour>
    </TTGlyph>
    <TTGlyph name="ellipsis" xMin="142" yMin="226" xMax="842" yMax="1588">
      <contour>
        <pt x="142" y="226" on="1"/>
        <pt x="142" y="1588" on="1"/>
        <pt x="842" y="1588" on="1"/>
        <pt x="842" y="226" on="1"/>
      </contour>
      <contour>
        <pt x="284" y="368" on="1"/>
        <pt x="700" y="368" on="1"/>
        <pt x="700" y="1447" on="1"/>
        <pt x="284" y="1447" on="1"/>
      </contour>
    </TTGlyph>
    <TTGlyph name="emdash" xMin="266" yMin="-748" xMax="2314" yMax="1549">
      <contour>
        <pt x="2281" y="1221" on="1"/>
        <pt x="2281" y="1189" on="0"/>
        <pt x="2258" y="1144" on="1"/>
        <pt x="2254" y="1147" on="0"/>
        <pt x="2231" y="1167" on="1"/>
        <pt x="2211" y="1185" on="0"/>
        <pt x="2203" y="1185" on="1"/>
        <pt x="2197" y="1185" on="0"/>
        <pt x="2169" y="1143" on="1"/>
        <pt x="2136" y="1090" on="0"/>
        <pt x="2123" y="1076" on="1"/>
        <pt x="2082" y="1039" on="0"/>
        <pt x="1998" y="960" on="1"/>
        <pt x="1962" y="974" on="1"/>
        <pt x="1979" y="1014" on="0"/>
        <pt x="2041" y="1085" on="1"/>
        <pt x="2105" y="1158" on="0"/>
        <pt x="2140" y="1232" on="1"/>
        <pt x="2132" y="1248" on="0"/>
        <pt x="2116" y="1279" on="1"/>
        <pt x="2108" y="1294" on="0"/>
        <pt x="2108" y="1339" on="1"/>
        <pt x="2108" y="1383" on="0"/>
        <pt x="2140" y="1462" on="1"/>
        <pt x="2176" y="1549" on="0"/>
        <pt x="2207" y="1549" on="1"/>
        <pt x="2214" y="1549" on="0"/>
        <pt x="2221" y="1543" on="1"/>
        <pt x="2248" y="1486" on="0"/>
        <pt x="2248" y="1420" on="1"/>
        <pt x="2248" y="1432" on="0"/>
        <pt x="2239" y="1304" on="1"/>
        <pt x="2243" y="1293" on="0"/>
        <pt x="2264" y="1262" on="1"/>
        <pt x="2281" y="1235" on="0"/>
      </contour>
      <contour>
        <pt x="1962" y="1283" on="1"/>
        <pt x="1962" y="1209" on="0"/>
        <pt x="1879" y="1140" on="1"/>
        <pt x="1811" y="1083" on="0"/>
        <pt x="1783" y="1083" on="1"/>
        <pt x="1763" y="1083" on="0"/>
        <pt x="1751" y="1095" on="1"/>
        <pt x="1749" y="1121" on="0"/>
        <pt x="1785" y="1155" on="1"/>
        <pt x="1841" y="1210" on="0"/>
        <pt x="1842" y="1212" on="1"/>
        <pt x="1837" y="1237" on="0"/>
        <pt x="1810" y="1237" on="1"/>
        <pt x="1801" y="1237" on="0"/>
        <pt x="1760" y="1199" on="0"/>
        <pt x="1750" y="1199" on="1"/>
        <pt x="1745" y="1199" on="0"/>
        <pt x="1740" y="1204" on="1"/>
        <pt x="1754" y="1257" on="0"/>
        <pt x="1756" y="1264" on="1"/>
        <pt x="1767" y="1300" on="0"/>
        <pt x="1779" y="1314" on="1"/>
        <pt x="1817" y="1360" on="0"/>
        <pt x="1837" y="1360" on="1"/>
        <pt x="1844" y="1360" on="0"/>
        <pt x="1887" y="1342" on="1"/>
        <pt x="1937" y="1322" on="0"/>
        <pt x="1956" y="1316" on="1"/>
        <pt x="1956" y="1314" on="0"/>
        <pt x="1962" y="1298" on="0"/>
      </contour>
      <contour>
        <pt x="1231" y="971" on="1"/>
        <pt x="1231" y="942" on="0"/>
        <pt x="1219" y="923" on="1"/>
        <pt x="1209" y="909" on="0"/>
        <pt x="1201" y="909" on="1"/>
        <pt x="1195" y="909" on="0"/>
        <pt x="1153" y="960" on="0"/>
        <pt x="1147" y="960" on="1"/>
        <pt x="1139" y="960" on="0"/>
        <pt x="1115" y="922" on="1"/>
        <pt x="1081" y="867" on="0"/>
        <pt x="1078" y="861" on="1"/>
        <pt x="1051" y="827" on="0"/>
        <pt x="1006" y="785" on="1"/>
        <pt x="962" y="745" on="0"/>
        <pt x="951" y="745" on="1"/>
        <pt x="935" y="745" on="0"/>
        <pt x="927" y="760" on="1"/>
        <pt x="948" y="811" on="0"/>
        <pt x="1003" y="883" on="1"/>
        <pt x="1085" y="991" on="0"/>
        <pt x="1089" y="997" on="1"/>
        <pt x="1088" y="1004" on="0"/>
        <pt x="1068" y="1065" on="1"/>
        <pt x="1051" y="1113" on="0"/>
        <pt x="1051" y="1135" on="1"/>
        <pt x="1051" y="1194" on="0"/>
        <pt x="1133" y="1332" on="0"/>
        <pt x="1169" y="1329" on="1"/>
        <pt x="1178" y="1312" on="0"/>
        <pt x="1191" y="1274" on="1"/>
        <pt x="1199" y="1211" on="0"/>
        <pt x="1197" y="1200" on="1"/>
        <pt x="1196" y="1187" on="0"/>
        <pt x="1188" y="1144" on="1"/>
        <pt x="1182" y="1108" on="0"/>
        <pt x="1182" y="1094" on="1"/>
        <pt x="1182" y="1082" on="0"/>
        <pt x="1231" y="984" on="0"/>
      </contour>
      <contour>
        <pt x="2314" y="243" on="1"/>
        <pt x="2314" y="79" on="0"/>
        <pt x="2203" y="79" on="1"/>
        <pt x="2193" y="79" on="0"/>
        <pt x="2113" y="120" on="0"/>
        <pt x="2108" y="120" on="1"/>
        <pt x="2101" y="120" on="0"/>
        <pt x="2091" y="102" on="1"/>
        <pt x="2075" y="74" on="0"/>
        <pt x="2075" y="73" on="1"/>
        <pt x="2049" y="39" on="0"/>
        <pt x="2003" y="39" on="1"/>
        <pt x="1996" y="39" on="0"/>
        <pt x="1966" y="49" on="0"/>
        <pt x="1959" y="49" on="1"/>
        <pt x="1953" y="49" on="0"/>
        <pt x="1927" y="13" on="0"/>
        <pt x="1922" y="11" on="1"/>
        <pt x="1914" y="8" on="0"/>
        <pt x="1889" y="8" on="1"/>
        <pt x="1882" y="8" on="0"/>
        <pt x="1817" y="39" on="0"/>
        <pt x="1810" y="39" on="1"/>
        <pt x="1803" y="39" on="0"/>
        <pt x="1717" y="-2" on="0"/>
        <pt x="1704" y="-2" on="0"/>
        <pt x="1655" y="-12" on="0"/>
        <pt x="1648" y="-12" on="1"/>
        <pt x="1597" y="-12" on="0"/>
        <pt x="1576" y="0" on="1"/>
        <pt x="1523" y="28" on="0"/>
        <pt x="1487" y="131" on="1"/>
        <pt x="1457" y="81" on="0"/>
        <pt x="1393" y="70" on="1"/>
        <pt x="1318" y="57" on="0"/>
        <pt x="1305" y="46" on="1"/>
        <pt x="1289" y="31" on="0"/>
        <pt x="1274" y="17" on="1"/>
        <pt x="1263" y="8" on="0"/>
        <pt x="1244" y="8" on="1"/>
        <pt x="1192" y="8" on="0"/>
        <pt x="1099" y="79" on="0"/>
        <pt x="1097" y="79" on="1"/>
        <pt x="1092" y="79" on="0"/>
        <pt x="1078" y="59" on="1"/>
        <pt x="1061" y="36" on="0"/>
        <pt x="1056" y="31" on="1"/>
        <pt x="1026" y="16" on="0"/>
        <pt x="964" y="-24" on="1"/>
        <pt x="934" y="-170" on="0"/>
        <pt x="860" y="-303" on="1"/>
        <pt x="778" y="-453" on="0"/>
        <pt x="708" y="-453" on="1"/>
        <pt x="687" y="-453" on="0"/>
        <pt x="620" y="-430" on="1"/>
        <pt x="534" y="-401" on="0"/>
        <pt x="509" y="-367" on="1"/>
        <pt x="524" y="-319" on="0"/>
        <pt x="542" y="-319" on="1"/>
        <pt x="549" y="-319" on="0"/>
        <pt x="622" y="-339" on="0"/>
        <pt x="629" y="-339" on="1"/>
        <pt x="787" y="-339" on="0"/>
        <pt x="895" y="-48" on="1"/>
        <pt x="884" y="-27" on="0"/>
        <pt x="837" y="-16" on="1"/>
        <pt x="793" y="-5" on="0"/>
        <pt x="771" y="52" on="1"/>
        <pt x="770" y="64" on="0"/>
        <pt x="770" y="95" on="1"/>
        <pt x="770" y="158" on="0"/>
        <pt x="793" y="251" on="1"/>
        <pt x="822" y="366" on="0"/>
        <pt x="859" y="366" on="1"/>
        <pt x="888" y="366" on="0"/>
        <pt x="951" y="131" on="0"/>
        <pt x="973" y="131" on="1"/>
        <pt x="997" y="131" on="1"/>
        <pt x="1025" y="131" on="0"/>
        <pt x="1069" y="194" on="1"/>
        <pt x="1092" y="251" on="0"/>
        <pt x="1115" y="307" on="1"/>
        <pt x="1158" y="407" on="0"/>
        <pt x="1176" y="407" on="1"/>
        <pt x="1182" y="407" on="0"/>
        <pt x="1212" y="346" on="1"/>
        <pt x="1246" y="274" on="0"/>
        <pt x="1262" y="256" on="1"/>
        <pt x="1304" y="202" on="0"/>
        <pt x="1363" y="202" on="1"/>
        <pt x="1474" y="202" on="0"/>
        <pt x="1474" y="300" on="1"/>
        <pt x="1437" y="1012" on="1"/>
        <pt x="1437" y="1071" on="0"/>
        <pt x="1466" y="1144" on="1"/>
        <pt x="1483" y="1121" on="0"/>
        <pt x="1488" y="1020" on="1"/>
        <pt x="1493" y="937" on="0"/>
        <pt x="1496" y="854" on="1"/>
        <pt x="1507" y="724" on="0"/>
        <pt x="1514" y="532" on="1"/>
        <pt x="1518" y="398" on="0"/>
        <pt x="1540" y="250" on="1"/>
        <pt x="1547" y="211" on="0"/>
        <pt x="1570" y="184" on="1"/>
        <pt x="1609" y="141" on="0"/>
        <pt x="1667" y="141" on="1"/>
        <pt x="1742" y="141" on="1"/>
        <pt x="1784" y="141" on="0"/>
        <pt x="1809" y="202" on="1"/>
        <pt x="1826" y="253" on="0"/>
        <pt x="1845" y="304" on="1"/>
        <pt x="1864" y="304" on="1"/>
        <pt x="1873" y="240" on="0"/>
        <pt x="1864" y="158" on="1"/>
        <pt x="1873" y="141" on="0"/>
        <pt x="1889" y="141" on="1"/>
        <pt x="1958" y="141" on="0"/>
        <pt x="1985" y="299" on="1"/>
        <pt x="2002" y="315" on="0"/>
        <pt x="2009" y="315" on="1"/>
        <pt x="2010" y="310" on="0"/>
        <pt x="2010" y="233" on="1"/>
        <pt x="2010" y="193" on="0"/>
        <pt x="2027" y="193" on="1"/>
        <pt x="2066" y="193" on="0"/>
        <pt x="2081" y="255" on="1"/>
        <pt x="2100" y="338" on="0"/>
        <pt x="2128" y="366" on="1"/>
        <pt x="2135" y="347" on="0"/>
        <pt x="2136" y="282" on="1"/>
        <pt x="2164" y="243" on="0"/>
        <pt x="2192" y="243" on="1"/>
        <pt x="2233" y="243" on="1"/>
        <pt x="2260" y="243" on="0"/>
        <pt x="2260" y="279" on="1"/>
        <pt x="2260" y="323" on="0"/>
        <pt x="2215" y="482" on="1"/>
        <pt x="2202" y="501" on="0"/>
        <pt x="2175" y="553" on="1"/>
        <pt x="2168" y="570" on="0"/>
        <pt x="2168" y="617" on="1"/>
        <pt x="2168" y="668" on="0"/>
        <pt x="2191" y="754" on="1"/>
        <pt x="2214" y="754" on="0"/>
        <pt x="2225" y="723" on="1"/>
        <pt x="2314" y="452" on="0"/>
      </contour>
      <contour>
        <pt x="1691" y="-166" on="1"/>
        <pt x="1691" y="-239" on="0"/>
        <pt x="1433" y="-401" on="1"/>
        <pt x="1425" y="-387" on="0"/>
        <pt x="1425" y="-365" on="1"/>
        <pt x="1425" y="-319" on="0"/>
        <pt x="1460" y="-286" on="1"/>
        <pt x="1490" y="-266" on="0"/>
        <pt x="1519" y="-245" on="1"/>
        <pt x="1572" y="-205" on="0"/>
        <pt x="1678" y="-135" on="1"/>
        <pt x="1682" y="-140" on="0"/>
        <pt x="1691" y="-150" on="0"/>
      </contour>
      <contour>
        <pt x="602" y="1360" on="1"/>
        <pt x="602" y="1316" on="0"/>
        <pt x="579" y="1291" on="1"/>
        <pt x="351" y="1041" on="0"/>
        <pt x="327" y="1043" on="1"/>
        <pt x="304" y="1043" on="1"/>
        <pt x="304" y="1076" on="1"/>
        <pt x="304" y="1121" on="0"/>
        <pt x="373" y="1193" on="1"/>
        <pt x="409" y="1226" on="0"/>
        <pt x="446" y="1259" on="1"/>
        <pt x="498" y="1310" on="0"/>
        <pt x="594" y="1390" on="1"/>
        <pt x="602" y="1375" on="0"/>
      </contour>
      <contour>
        <pt x="466" y="796" on="1"/>
        <pt x="466" y="768" on="0"/>
        <pt x="441" y="705" on="0"/>
        <pt x="426" y="705" on="1"/>
        <pt x="409" y="705" on="0"/>
        <pt x="374" y="755" on="0"/>
        <pt x="374" y="781" on="1"/>
        <pt x="374" y="795" on="0"/>
        <pt x="389" y="835" on="1"/>
        <pt x="406" y="878" on="0"/>
        <pt x="421" y="878" on="1"/>
        <pt x="438" y="878" on="0"/>
        <pt x="453" y="845" on="1"/>
        <pt x="466" y="818" on="0"/>
      </contour>
      <contour>
        <pt x="656" y="254" on="1"/>
        <pt x="656" y="75" on="0"/>
        <pt x="575" y="-23" on="1"/>
        <pt x="509" y="-104" on="0"/>
        <pt x="423" y="-104" on="1"/>
        <pt x="365" y="-104" on="0"/>
        <pt x="369" y="-105" on="1"/>
        <pt x="349" y="-100" on="0"/>
        <pt x="321" y="-59" on="1"/>
        <pt x="304" y="-35" on="0"/>
        <pt x="286" y="21" on="1"/>
        <pt x="266" y="83" on="0"/>
        <pt x="266" y="120" on="1"/>
        <pt x="266" y="168" on="0"/>
        <pt x="291" y="266" on="1"/>
        <pt x="320" y="378" on="0"/>
        <pt x="346" y="386" on="1"/>
        <pt x="346" y="329" on="1"/>
        <pt x="347" y="319" on="0"/>
        <pt x="325" y="228" on="0"/>
        <pt x="325" y="213" on="1"/>
        <pt x="325" y="121" on="0"/>
        <pt x="374" y="74" on="1"/>
        <pt x="410" y="39" on="0"/>
        <pt x="450" y="39" on="1"/>
        <pt x="476" y="39" on="0"/>
        <pt x="537" y="86" on="1"/>
        <pt x="607" y="139" on="0"/>
        <pt x="607" y="188" on="1"/>
        <pt x="607" y="252" on="0"/>
        <pt x="537" y="516" on="0"/>
        <pt x="537" y="546" on="1"/>
        <pt x="537" y="587" on="0"/>
        <pt x="567" y="643" on="1"/>
        <pt x="596" y="597" on="0"/>
        <pt x="656" y="339" on="0"/>
      </contour>
      <contour>
        <pt x="2199" y="1339" on="1"/>
        <pt x="2199" y="1409" on="1"/>
        <pt x="2194" y="1409" on="0"/>
        <pt x="2186" y="1421" on="1"/>
        <pt x="2161" y="1397" on="0"/>
        <pt x="2163" y="1373" on="1"/>
        <pt x="2175" y="1362" on="0"/>
      </contour>
      <contour>
        <pt x="1155" y="1161" on="1"/>
        <pt x="1142" y="1206" on="0"/>
        <pt x="1123" y="1206" on="1"/>
        <pt x="1121" y="1200" on="0"/>
        <pt x="1108" y="1176" on="0"/>
        <pt x="1106" y="1170" on="1"/>
        <pt x="1119" y="1152" on="0"/>
        <pt x="1141" y="1114" on="1"/>
        <pt x="1155" y="1140" on="0"/>
      </contour>
      <contour>
        <pt x="1187" y="205" on="1"/>
        <pt x="1176" y="244" on="0"/>
        <pt x="1156" y="263" on="1"/>
        <pt x="1156" y="253" on="0"/>
        <pt x="1144" y="251" on="1"/>
        <pt x="1149" y="205" on="0"/>
      </contour>
      <contour>
        <pt x="856" y="143" on="1"/>
        <pt x="856" y="179" on="1"/>
        <pt x="845" y="202" on="0"/>
        <pt x="836" y="202" on="1"/>
        <pt x="830" y="153" on="1"/>
        <pt x="833" y="153" on="0"/>
        <pt x="853" y="143" on="0"/>
      </contour>
      <contour>
        <pt x="2245" y="-620" on="1"/>
        <pt x="2245" y="-652" on="0"/>
        <pt x="2221" y="-683" on="1"/>
        <pt x="2202" y="-707" on="0"/>
        <pt x="2195" y="-707" on="1"/>
        <pt x="2190" y="-707" on="0"/>
        <pt x="2159" y="-687" on="0"/>
        <pt x="2152" y="-687" on="1"/>
        <pt x="2146" y="-687" on="0"/>
        <pt x="2111" y="-748" on="0"/>
        <pt x="2104" y="-748" on="1"/>
        <pt x="2090" y="-748" on="0"/>
        <pt x="2044" y="-684" on="0"/>
        <pt x="2044" y="-661" on="1"/>
        <pt x="2044" y="-637" on="0"/>
        <pt x="2080" y="-564" on="0"/>
        <pt x="2093" y="-564" on="1"/>
        <pt x="2099" y="-564" on="0"/>
        <pt x="2133" y="-605" on="0"/>
        <pt x="2139" y="-605" on="1"/>
        <pt x="2146" y="-605" on="0"/>
        <pt x="2186" y="-533" on="0"/>
        <pt x="2193" y="-533" on="1"/>
        <pt x="2208" y="-533" on="0"/>
        <pt x="2227" y="-570" on="1"/>
        <pt x="2245" y="-603" on="0"/>
      </contour>
    </TTGlyph>
    <TTGlyph name="endash" xMin="266" yMin="-748" xMax="1290" yMax="1549">
      <contour>
        <pt x="1274" y="1221" on="1"/>
        <pt x="1274" y="1189" on="0"/>
        <pt x="1262" y="1144" on="1"/>
        <pt x="1260" y="1147" on="0"/>
        <pt x="1248" y="1167" on="1"/>
        <pt x="1238" y="1185" on="0"/>
        <pt x="1234" y="1185" on="1"/>
        <pt x="1231" y="1185" on="0"/>
        <pt x="1218" y="1143" on="1"/>
        <pt x="1201" y="1090" on="0"/>
        <pt x="1194" y="1076" on="1"/>
        <pt x="1174" y="1039" on="0"/>
        <pt x="1132" y="960" on="1"/>
        <pt x="1114" y="974" on="1"/>
        <pt x="1123" y="1014" on="0"/>
        <pt x="1153" y="1085" on="1"/>
        <pt x="1186" y="1158" on="0"/>
        <pt x="1203" y="1232" on="1"/>
        <pt x="1199" y="1248" on="0"/>
        <pt x="1191" y="1279" on="1"/>
        <pt x="1187" y="1294" on="0"/>
        <pt x="1187" y="1339" on="1"/>
        <pt x="1187" y="1383" on="0"/>
        <pt x="1203" y="1462" on="1"/>
        <pt x="1221" y="1549" on="0"/>
        <pt x="1236" y="1549" on="1"/>
        <pt x="1240" y="1549" on="0"/>
        <pt x="1243" y="1543" on="1"/>
        <pt x="1257" y="1486" on="0"/>
        <pt x="1257" y="1420" on="1"/>
        <pt x="1257" y="1432" on="0"/>
        <pt x="1253" y="1304" on="1"/>
        <pt x="1255" y="1293" on="0"/>
        <pt x="1265" y="1262" on="1"/>
        <pt x="1274" y="1235" on="0"/>
      </contour>
      <contour>
        <pt x="1114" y="1283" on="1"/>
        <pt x="1114" y="1209" on="0"/>
        <pt x="1072" y="1140" on="1"/>
        <pt x="1039" y="1083" on="0"/>
        <pt x="1024" y="1083" on="1"/>
        <pt x="1015" y="1083" on="0"/>
        <pt x="1008" y="1095" on="1"/>
        <pt x="1008" y="1121" on="0"/>
        <pt x="1025" y="1155" on="1"/>
        <pt x="1053" y="1210" on="0"/>
        <pt x="1054" y="1212" on="1"/>
        <pt x="1052" y="1237" on="0"/>
        <pt x="1038" y="1237" on="1"/>
        <pt x="1033" y="1237" on="0"/>
        <pt x="1013" y="1199" on="0"/>
        <pt x="1008" y="1199" on="1"/>
        <pt x="1005" y="1199" on="0"/>
        <pt x="1003" y="1204" on="1"/>
        <pt x="1010" y="1257" on="0"/>
        <pt x="1011" y="1264" on="1"/>
        <pt x="1017" y="1300" on="0"/>
        <pt x="1022" y="1314" on="1"/>
        <pt x="1041" y="1360" on="0"/>
        <pt x="1052" y="1360" on="1"/>
        <pt x="1055" y="1360" on="0"/>
        <pt x="1077" y="1342" on="1"/>
        <pt x="1102" y="1322" on="0"/>
        <pt x="1111" y="1316" on="1"/>
        <pt x="1111" y="1314" on="0"/>
        <pt x="1114" y="1298" on="0"/>
      </contour>
      <contour>
        <pt x="748" y="971" on="1"/>
        <pt x="748" y="942" on="0"/>
        <pt x="742" y="923" on="1"/>
        <pt x="738" y="909" on="0"/>
        <pt x="733" y="909" on="1"/>
        <pt x="730" y="909" on="0"/>
        <pt x="710" y="960" on="0"/>
        <pt x="706" y="960" on="1"/>
        <pt x="703" y="960" on="0"/>
        <pt x="691" y="922" on="1"/>
        <pt x="674" y="867" on="0"/>
        <pt x="672" y="861" on="1"/>
        <pt x="659" y="827" on="0"/>
        <pt x="636" y="785" on="1"/>
        <pt x="614" y="745" on="0"/>
        <pt x="609" y="745" on="1"/>
        <pt x="600" y="745" on="0"/>
        <pt x="596" y="760" on="1"/>
        <pt x="607" y="811" on="0"/>
        <pt x="635" y="883" on="1"/>
        <pt x="676" y="991" on="0"/>
        <pt x="678" y="997" on="1"/>
        <pt x="677" y="1004" on="0"/>
        <pt x="667" y="1065" on="1"/>
        <pt x="659" y="1113" on="0"/>
        <pt x="659" y="1135" on="1"/>
        <pt x="659" y="1194" on="0"/>
        <pt x="700" y="1332" on="0"/>
        <pt x="717" y="1329" on="1"/>
        <pt x="722" y="1312" on="0"/>
        <pt x="728" y="1274" on="1"/>
        <pt x="732" y="1211" on="0"/>
        <pt x="732" y="1200" on="1"/>
        <pt x="731" y="1187" on="0"/>
        <pt x="727" y="1144" on="1"/>
        <pt x="724" y="1108" on="0"/>
        <pt x="724" y="1094" on="1"/>
        <pt x="724" y="1082" on="0"/>
        <pt x="748" y="984" on="0"/>
      </contour>
      <contour>
        <pt x="1290" y="243" on="1"/>
        <pt x="1290" y="79" on="0"/>
        <pt x="1234" y="79" on="1"/>
        <pt x="1230" y="79" on="0"/>
        <pt x="1189" y="120" on="0"/>
        <pt x="1187" y="120" on="1"/>
        <pt x="1183" y="120" on="0"/>
        <pt x="1178" y="102" on="1"/>
        <pt x="1171" y="74" on="0"/>
        <pt x="1170" y="73" on="1"/>
        <pt x="1157" y="39" on="0"/>
        <pt x="1134" y="39" on="1"/>
        <pt x="1131" y="39" on="0"/>
        <pt x="1116" y="49" on="0"/>
        <pt x="1113" y="49" on="1"/>
        <pt x="1110" y="49" on="0"/>
        <pt x="1097" y="13" on="0"/>
        <pt x="1094" y="11" on="1"/>
        <pt x="1090" y="8" on="0"/>
        <pt x="1077" y="8" on="1"/>
        <pt x="1074" y="8" on="0"/>
        <pt x="1041" y="39" on="0"/>
        <pt x="1038" y="39" on="1"/>
        <pt x="1035" y="39" on="0"/>
        <pt x="991" y="-2" on="0"/>
        <pt x="985" y="-2" on="0"/>
        <pt x="960" y="-12" on="0"/>
        <pt x="957" y="-12" on="1"/>
        <pt x="932" y="-12" on="0"/>
        <pt x="921" y="0" on="1"/>
        <pt x="895" y="28" on="0"/>
        <pt x="877" y="131" on="1"/>
        <pt x="861" y="81" on="0"/>
        <pt x="829" y="70" on="1"/>
        <pt x="792" y="57" on="0"/>
        <pt x="785" y="46" on="1"/>
        <pt x="777" y="31" on="0"/>
        <pt x="770" y="17" on="1"/>
        <pt x="765" y="8" on="0"/>
        <pt x="755" y="8" on="1"/>
        <pt x="729" y="8" on="0"/>
        <pt x="683" y="79" on="0"/>
        <pt x="682" y="79" on="1"/>
        <pt x="679" y="79" on="0"/>
        <pt x="672" y="59" on="1"/>
        <pt x="664" y="36" on="0"/>
        <pt x="661" y="31" on="1"/>
        <pt x="646" y="16" on="0"/>
        <pt x="615" y="-24" on="1"/>
        <pt x="600" y="-170" on="0"/>
        <pt x="563" y="-303" on="1"/>
        <pt x="522" y="-453" on="0"/>
        <pt x="487" y="-453" on="1"/>
        <pt x="476" y="-453" on="0"/>
        <pt x="443" y="-430" on="1"/>
        <pt x="400" y="-401" on="0"/>
        <pt x="388" y="-367" on="1"/>
        <pt x="395" y="-319" on="0"/>
        <pt x="404" y="-319" on="1"/>
        <pt x="408" y="-319" on="0"/>
        <pt x="444" y="-339" on="0"/>
        <pt x="448" y="-339" on="1"/>
        <pt x="526" y="-339" on="0"/>
        <pt x="580" y="-48" on="1"/>
        <pt x="575" y="-27" on="0"/>
        <pt x="552" y="-16" on="1"/>
        <pt x="530" y="-5" on="0"/>
        <pt x="519" y="52" on="1"/>
        <pt x="518" y="64" on="0"/>
        <pt x="518" y="95" on="1"/>
        <pt x="518" y="158" on="0"/>
        <pt x="530" y="251" on="1"/>
        <pt x="544" y="366" on="0"/>
        <pt x="563" y="366" on="1"/>
        <pt x="577" y="366" on="0"/>
        <pt x="608" y="131" on="0"/>
        <pt x="620" y="131" on="1"/>
        <pt x="632" y="131" on="1"/>
        <pt x="646" y="131" on="0"/>
        <pt x="667" y="194" on="1"/>
        <pt x="679" y="251" on="0"/>
        <pt x="691" y="307" on="1"/>
        <pt x="712" y="407" on="0"/>
        <pt x="721" y="407" on="1"/>
        <pt x="724" y="407" on="0"/>
        <pt x="739" y="346" on="1"/>
        <pt x="756" y="274" on="0"/>
        <pt x="764" y="256" on="1"/>
        <pt x="785" y="202" on="0"/>
        <pt x="815" y="202" on="1"/>
        <pt x="870" y="202" on="0"/>
        <pt x="870" y="300" on="1"/>
        <pt x="851" y="1012" on="1"/>
        <pt x="851" y="1071" on="0"/>
        <pt x="866" y="1144" on="1"/>
        <pt x="875" y="1121" on="0"/>
        <pt x="877" y="1020" on="1"/>
        <pt x="879" y="937" on="0"/>
        <pt x="881" y="854" on="1"/>
        <pt x="886" y="724" on="0"/>
        <pt x="890" y="532" on="1"/>
        <pt x="892" y="398" on="0"/>
        <pt x="903" y="250" on="1"/>
        <pt x="906" y="211" on="0"/>
        <pt x="918" y="184" on="1"/>
        <pt x="938" y="141" on="0"/>
        <pt x="966" y="141" on="1"/>
        <pt x="1004" y="141" on="1"/>
        <pt x="1025" y="141" on="0"/>
        <pt x="1037" y="202" on="1"/>
        <pt x="1046" y="253" on="0"/>
        <pt x="1055" y="304" on="1"/>
        <pt x="1065" y="304" on="1"/>
        <pt x="1070" y="240" on="0"/>
        <pt x="1065" y="158" on="1"/>
        <pt x="1070" y="141" on="0"/>
        <pt x="1077" y="141" on="1"/>
        <pt x="1112" y="141" on="0"/>
        <pt x="1126" y="299" on="1"/>
        <pt x="1134" y="315" on="0"/>
        <pt x="1138" y="315" on="1"/>
        <pt x="1138" y="310" on="0"/>
        <pt x="1138" y="233" on="1"/>
        <pt x="1138" y="193" on="0"/>
        <pt x="1147" y="193" on="1"/>
        <pt x="1166" y="193" on="0"/>
        <pt x="1173" y="255" on="1"/>
        <pt x="1183" y="338" on="0"/>
        <pt x="1197" y="366" on="1"/>
        <pt x="1201" y="347" on="0"/>
        <pt x="1201" y="282" on="1"/>
        <pt x="1215" y="243" on="0"/>
        <pt x="1229" y="243" on="1"/>
        <pt x="1250" y="243" on="1"/>
        <pt x="1263" y="243" on="0"/>
        <pt x="1263" y="279" on="1"/>
        <pt x="1263" y="323" on="0"/>
        <pt x="1240" y="482" on="1"/>
        <pt x="1234" y="501" on="0"/>
        <pt x="1221" y="553" on="1"/>
        <pt x="1217" y="570" on="0"/>
        <pt x="1217" y="617" on="1"/>
        <pt x="1217" y="668" on="0"/>
        <pt x="1228" y="754" on="1"/>
        <pt x="1240" y="754" on="0"/>
        <pt x="1246" y="723" on="1"/>
        <pt x="1290" y="452" on="0"/>
      </contour>
      <contour>
        <pt x="979" y="-166" on="1"/>
        <pt x="979" y="-239" on="0"/>
        <pt x="849" y="-401" on="1"/>
        <pt x="846" y="-387" on="0"/>
        <pt x="846" y="-365" on="1"/>
        <pt x="846" y="-319" on="0"/>
        <pt x="863" y="-286" on="1"/>
        <pt x="878" y="-266" on="0"/>
        <pt x="893" y="-245" on="1"/>
        <pt x="919" y="-205" on="0"/>
        <pt x="972" y="-135" on="1"/>
        <pt x="974" y="-140" on="0"/>
        <pt x="979" y="-150" on="0"/>
      </contour>
      <contour>
        <pt x="434" y="1360" on="1"/>
        <pt x="434" y="1316" on="0"/>
        <pt x="422" y="1291" on="1"/>
        <pt x="309" y="1041" on="0"/>
        <pt x="297" y="1043" on="1"/>
        <pt x="285" y="1043" on="1"/>
        <pt x="285" y="1076" on="1"/>
        <pt x="285" y="1121" on="0"/>
        <pt x="319" y="1193" on="1"/>
        <pt x="338" y="1226" on="0"/>
        <pt x="356" y="1259" on="1"/>
        <pt x="382" y="1310" on="0"/>
        <pt x="430" y="1390" on="1"/>
        <pt x="434" y="1375" on="0"/>
      </contour>
      <contour>
        <pt x="366" y="796" on="1"/>
        <pt x="366" y="768" on="0"/>
        <pt x="354" y="705" on="0"/>
        <pt x="346" y="705" on="1"/>
        <pt x="338" y="705" on="0"/>
        <pt x="320" y="755" on="0"/>
        <pt x="320" y="781" on="1"/>
        <pt x="320" y="795" on="0"/>
        <pt x="328" y="835" on="1"/>
        <pt x="336" y="878" on="0"/>
        <pt x="343" y="878" on="1"/>
        <pt x="352" y="878" on="0"/>
        <pt x="360" y="845" on="1"/>
        <pt x="366" y="818" on="0"/>
      </contour>
      <contour>
        <pt x="461" y="254" on="1"/>
        <pt x="461" y="75" on="0"/>
        <pt x="421" y="-23" on="1"/>
        <pt x="388" y="-104" on="0"/>
        <pt x="345" y="-104" on="1"/>
        <pt x="316" y="-104" on="0"/>
        <pt x="318" y="-105" on="1"/>
        <pt x="308" y="-100" on="0"/>
        <pt x="294" y="-59" on="1"/>
        <pt x="285" y="-35" on="0"/>
        <pt x="276" y="21" on="1"/>
        <pt x="266" y="83" on="0"/>
        <pt x="266" y="120" on="1"/>
        <pt x="266" y="168" on="0"/>
        <pt x="279" y="266" on="1"/>
        <pt x="293" y="378" on="0"/>
        <pt x="306" y="386" on="1"/>
        <pt x="306" y="329" on="1"/>
        <pt x="306" y="319" on="0"/>
        <pt x="296" y="228" on="0"/>
        <pt x="296" y="213" on="1"/>
        <pt x="296" y="121" on="0"/>
        <pt x="320" y="74" on="1"/>
        <pt x="338" y="39" on="0"/>
        <pt x="358" y="39" on="1"/>
        <pt x="371" y="39" on="0"/>
        <pt x="402" y="86" on="1"/>
        <pt x="437" y="139" on="0"/>
        <pt x="437" y="188" on="1"/>
        <pt x="437" y="252" on="0"/>
        <pt x="401" y="516" on="0"/>
        <pt x="401" y="546" on="1"/>
        <pt x="401" y="587" on="0"/>
        <pt x="416" y="643" on="1"/>
        <pt x="431" y="597" on="0"/>
        <pt x="461" y="339" on="0"/>
      </contour>
      <contour>
        <pt x="1233" y="1339" on="1"/>
        <pt x="1233" y="1409" on="1"/>
        <pt x="1230" y="1409" on="0"/>
        <pt x="1226" y="1421" on="1"/>
        <pt x="1214" y="1397" on="0"/>
        <pt x="1214" y="1373" on="1"/>
        <pt x="1221" y="1362" on="0"/>
      </contour>
      <contour>
        <pt x="710" y="1161" on="1"/>
        <pt x="704" y="1206" on="0"/>
        <pt x="695" y="1206" on="1"/>
        <pt x="693" y="1200" on="0"/>
        <pt x="687" y="1176" on="0"/>
        <pt x="686" y="1170" on="1"/>
        <pt x="692" y="1152" on="0"/>
        <pt x="703" y="1114" on="1"/>
        <pt x="710" y="1140" on="0"/>
      </contour>
      <contour>
        <pt x="726" y="205" on="1"/>
        <pt x="721" y="244" on="0"/>
        <pt x="711" y="263" on="1"/>
        <pt x="711" y="253" on="0"/>
        <pt x="705" y="251" on="1"/>
        <pt x="707" y="205" on="0"/>
      </contour>
      <contour>
        <pt x="561" y="143" on="1"/>
        <pt x="561" y="179" on="1"/>
        <pt x="555" y="202" on="0"/>
        <pt x="551" y="202" on="1"/>
        <pt x="548" y="153" on="1"/>
        <pt x="549" y="153" on="0"/>
        <pt x="559" y="143" on="0"/>
      </contour>
      <contour>
        <pt x="1255" y="-620" on="1"/>
        <pt x="1255" y="-652" on="0"/>
        <pt x="1244" y="-683" on="1"/>
        <pt x="1234" y="-707" on="0"/>
        <pt x="1231" y="-707" on="1"/>
        <pt x="1228" y="-707" on="0"/>
        <pt x="1212" y="-687" on="0"/>
        <pt x="1209" y="-687" on="1"/>
        <pt x="1206" y="-687" on="0"/>
        <pt x="1188" y="-748" on="0"/>
        <pt x="1185" y="-748" on="1"/>
        <pt x="1178" y="-748" on="0"/>
        <pt x="1155" y="-684" on="0"/>
        <pt x="1155" y="-661" on="1"/>
        <pt x="1155" y="-637" on="0"/>
        <pt x="1173" y="-564" on="0"/>
        <pt x="1179" y="-564" on="1"/>
        <pt x="1183" y="-564" on="0"/>
        <pt x="1200" y="-605" on="0"/>
        <pt x="1202" y="-605" on="1"/>
        <pt x="1206" y="-605" on="0"/>
        <pt x="1226" y="-533" on="0"/>
        <pt x="1229" y="-533" on="1"/>
        <pt x="1237" y="-533" on="0"/>
        <pt x="1247" y="-570" on="1"/>
        <pt x="1255" y="-603" on="0"/>
      </contour>
    </TTGlyph>
    <TTGlyph name="equal" xMin="142" yMin="226" xMax="842" yMax="1588">
      <contour>
        <pt x="142" y="226" on="1"/>
        <pt x="142" y="1588" on="1"/>
        <pt x="842" y="1588" on="1"/>
        <pt x="842" y="226" on="1"/>
      </contour>
      <contour>
        <pt x="284" y="368" on="1"/>
        <pt x="700" y="368" on="1"/>
        <pt x="700" y="1447" on="1"/>
        <pt x="284" y="1447" on="1"/>
      </contour>
    </TTGlyph>
    <TTGlyph name="exclam" xMin="142" yMin="226" xMax="842" yMax="1588">
      <contour>
        <pt x="142" y="226" on="1"/>
        <pt x="142" y="1588" on="1"/>
        <pt x="842" y="1588" on="1"/>
        <pt x="842" y="226" on="1"/>
      </contour>
      <contour>
        <pt x="284" y="368" on="1"/>
        <pt x="700" y="368" on="1"/>
        <pt x="700" y="1447" on="1"/>
        <pt x="284" y="1447" on="1"/>
      </contour>
    </TTGlyph>
    <TTGlyph name="figuredash" xMin="266" yMin="-748" xMax="4136" yMax="1549">
      <contour>
        <pt x="4074" y="1221" on="1"/>
        <pt x="4074" y="1189" on="0"/>
        <pt x="4030" y="1144" on="1"/>
        <pt x="4023" y="1147" on="0"/>
        <pt x="3979" y="1167" on="1"/>
        <pt x="3941" y="1185" on="0"/>
        <pt x="3926" y="1185" on="1"/>
        <pt x="3914" y="1185" on="0"/>
        <pt x="3862" y="1143" on="1"/>
        <pt x="3800" y="1090" on="0"/>
        <pt x="3775" y="1076" on="1"/>
        <pt x="3698" y="1039" on="0"/>
        <pt x="3538" y="960" on="1"/>
        <pt x="3471" y="974" on="1"/>
        <pt x="3503" y="1014" on="0"/>
        <pt x="3620" y="1085" on="1"/>
        <pt x="3742" y="1158" on="0"/>
        <pt x="3808" y="1232" on="1"/>
        <pt x="3792" y="1248" on="0"/>
        <pt x="3762" y="1279" on="1"/>
        <pt x="3747" y="1294" on="0"/>
        <pt x="3747" y="1339" on="1"/>
        <pt x="3747" y="1383" on="0"/>
        <pt x="3808" y="1462" on="1"/>
        <pt x="3876" y="1549" on="0"/>
        <pt x="3933" y="1549" on="1"/>
        <pt x="3947" y="1549" on="0"/>
        <pt x="3960" y="1543" on="1"/>
        <pt x="4011" y="1486" on="0"/>
        <pt x="4011" y="1420" on="1"/>
        <pt x="4011" y="1432" on="0"/>
        <pt x="3995" y="1304" on="1"/>
        <pt x="4002" y="1293" on="0"/>
        <pt x="4041" y="1262" on="1"/>
        <pt x="4074" y="1235" on="0"/>
      </contour>
      <contour>
        <pt x="3471" y="1283" on="1"/>
        <pt x="3471" y="1209" on="0"/>
        <pt x="3314" y="1140" on="1"/>
        <pt x="3186" y="1083" on="0"/>
        <pt x="3132" y="1083" on="1"/>
        <pt x="3095" y="1083" on="0"/>
        <pt x="3072" y="1095" on="1"/>
        <pt x="3069" y="1121" on="0"/>
        <pt x="3136" y="1155" on="1"/>
        <pt x="3242" y="1210" on="0"/>
        <pt x="3245" y="1212" on="1"/>
        <pt x="3235" y="1237" on="0"/>
        <pt x="3184" y="1237" on="1"/>
        <pt x="3166" y="1237" on="0"/>
        <pt x="3089" y="1199" on="0"/>
        <pt x="3071" y="1199" on="1"/>
        <pt x="3060" y="1199" on="0"/>
        <pt x="3051" y="1204" on="1"/>
        <pt x="3077" y="1257" on="0"/>
        <pt x="3082" y="1264" on="1"/>
        <pt x="3103" y="1300" on="0"/>
        <pt x="3125" y="1314" on="1"/>
        <pt x="3196" y="1360" on="0"/>
        <pt x="3235" y="1360" on="1"/>
        <pt x="3248" y="1360" on="0"/>
        <pt x="3330" y="1342" on="1"/>
        <pt x="3424" y="1322" on="0"/>
        <pt x="3459" y="1316" on="1"/>
        <pt x="3459" y="1314" on="0"/>
        <pt x="3471" y="1298" on="0"/>
      </contour>
      <contour>
        <pt x="2089" y="971" on="1"/>
        <pt x="2089" y="942" on="0"/>
        <pt x="2066" y="923" on="1"/>
        <pt x="2048" y="909" on="0"/>
        <pt x="2032" y="909" on="1"/>
        <pt x="2021" y="909" on="0"/>
        <pt x="1943" y="960" on="0"/>
        <pt x="1930" y="960" on="1"/>
        <pt x="1916" y="960" on="0"/>
        <pt x="1871" y="922" on="1"/>
        <pt x="1807" y="867" on="0"/>
        <pt x="1800" y="861" on="1"/>
        <pt x="1750" y="827" on="0"/>
        <pt x="1664" y="785" on="1"/>
        <pt x="1582" y="745" on="0"/>
        <pt x="1561" y="745" on="1"/>
        <pt x="1530" y="745" on="0"/>
        <pt x="1515" y="760" on="1"/>
        <pt x="1554" y="811" on="0"/>
        <pt x="1659" y="883" on="1"/>
        <pt x="1814" y="991" on="0"/>
        <pt x="1822" y="997" on="1"/>
        <pt x="1819" y="1004" on="0"/>
        <pt x="1782" y="1065" on="1"/>
        <pt x="1750" y="1113" on="0"/>
        <pt x="1750" y="1135" on="1"/>
        <pt x="1750" y="1194" on="0"/>
        <pt x="1905" y="1332" on="0"/>
        <pt x="1972" y="1329" on="1"/>
        <pt x="1990" y="1312" on="0"/>
        <pt x="2013" y="1274" on="1"/>
        <pt x="2029" y="1211" on="0"/>
        <pt x="2026" y="1200" on="1"/>
        <pt x="2024" y="1187" on="0"/>
        <pt x="2009" y="1144" on="1"/>
        <pt x="1996" y="1108" on="0"/>
        <pt x="1996" y="1094" on="1"/>
        <pt x="1996" y="1082" on="0"/>
        <pt x="2089" y="984" on="0"/>
      </contour>
      <contour>
        <pt x="4136" y="243" on="1"/>
        <pt x="4136" y="79" on="0"/>
        <pt x="3926" y="79" on="1"/>
        <pt x="3908" y="79" on="0"/>
        <pt x="3756" y="120" on="0"/>
        <pt x="3747" y="120" on="1"/>
        <pt x="3733" y="120" on="0"/>
        <pt x="3714" y="102" on="1"/>
        <pt x="3685" y="74" on="0"/>
        <pt x="3684" y="73" on="1"/>
        <pt x="3635" y="39" on="0"/>
        <pt x="3548" y="39" on="1"/>
        <pt x="3535" y="39" on="0"/>
        <pt x="3478" y="49" on="0"/>
        <pt x="3466" y="49" on="1"/>
        <pt x="3454" y="49" on="0"/>
        <pt x="3405" y="13" on="0"/>
        <pt x="3395" y="11" on="1"/>
        <pt x="3381" y="8" on="0"/>
        <pt x="3332" y="8" on="1"/>
        <pt x="3319" y="8" on="0"/>
        <pt x="3196" y="39" on="0"/>
        <pt x="3184" y="39" on="1"/>
        <pt x="3171" y="39" on="0"/>
        <pt x="3007" y="-2" on="0"/>
        <pt x="2983" y="-2" on="0"/>
        <pt x="2890" y="-12" on="0"/>
        <pt x="2877" y="-12" on="1"/>
        <pt x="2782" y="-12" on="0"/>
        <pt x="2742" y="0" on="1"/>
        <pt x="2642" y="28" on="0"/>
        <pt x="2574" y="131" on="1"/>
        <pt x="2516" y="81" on="0"/>
        <pt x="2395" y="70" on="1"/>
        <pt x="2253" y="57" on="0"/>
        <pt x="2229" y="46" on="1"/>
        <pt x="2199" y="31" on="0"/>
        <pt x="2171" y="17" on="1"/>
        <pt x="2150" y="8" on="0"/>
        <pt x="2114" y="8" on="1"/>
        <pt x="2016" y="8" on="0"/>
        <pt x="1841" y="79" on="0"/>
        <pt x="1837" y="79" on="1"/>
        <pt x="1827" y="79" on="0"/>
        <pt x="1800" y="59" on="1"/>
        <pt x="1769" y="36" on="0"/>
        <pt x="1758" y="31" on="1"/>
        <pt x="1702" y="16" on="0"/>
        <pt x="1585" y="-24" on="1"/>
        <pt x="1528" y="-170" on="0"/>
        <pt x="1389" y="-303" on="1"/>
        <pt x="1233" y="-453" on="0"/>
        <pt x="1101" y="-453" on="1"/>
        <pt x="1061" y="-453" on="0"/>
        <pt x="934" y="-430" on="1"/>
        <pt x="773" y="-401" on="0"/>
        <pt x="726" y="-367" on="1"/>
        <pt x="753" y="-319" on="0"/>
        <pt x="788" y="-319" on="1"/>
        <pt x="801" y="-319" on="0"/>
        <pt x="939" y="-339" on="0"/>
        <pt x="952" y="-339" on="1"/>
        <pt x="1250" y="-339" on="0"/>
        <pt x="1454" y="-48" on="1"/>
        <pt x="1433" y="-27" on="0"/>
        <pt x="1345" y="-16" on="1"/>
        <pt x="1262" y="-5" on="0"/>
        <pt x="1221" y="52" on="1"/>
        <pt x="1218" y="64" on="0"/>
        <pt x="1218" y="95" on="1"/>
        <pt x="1218" y="158" on="0"/>
        <pt x="1262" y="251" on="1"/>
        <pt x="1316" y="366" on="0"/>
        <pt x="1387" y="366" on="1"/>
        <pt x="1441" y="366" on="0"/>
        <pt x="1560" y="131" on="0"/>
        <pt x="1602" y="131" on="1"/>
        <pt x="1648" y="131" on="1"/>
        <pt x="1701" y="131" on="0"/>
        <pt x="1783" y="194" on="1"/>
        <pt x="1827" y="251" on="0"/>
        <pt x="1871" y="307" on="1"/>
        <pt x="1951" y="407" on="0"/>
        <pt x="1986" y="407" on="1"/>
        <pt x="1997" y="407" on="0"/>
        <pt x="2053" y="346" on="1"/>
        <pt x="2118" y="274" on="0"/>
        <pt x="2148" y="256" on="1"/>
        <pt x="2228" y="202" on="0"/>
        <pt x="2339" y="202" on="1"/>
        <pt x="2549" y="202" on="0"/>
        <pt x="2549" y="300" on="1"/>
        <pt x="2478" y="1012" on="1"/>
        <pt x="2478" y="1071" on="0"/>
        <pt x="2533" y="1144" on="1"/>
        <pt x="2566" y="1121" on="0"/>
        <pt x="2576" y="1020" on="1"/>
        <pt x="2584" y="937" on="0"/>
        <pt x="2590" y="854" on="1"/>
        <pt x="2611" y="724" on="0"/>
        <pt x="2624" y="532" on="1"/>
        <pt x="2632" y="398" on="0"/>
        <pt x="2674" y="250" on="1"/>
        <pt x="2686" y="211" on="0"/>
        <pt x="2731" y="184" on="1"/>
        <pt x="2804" y="141" on="0"/>
        <pt x="2913" y="141" on="1"/>
        <pt x="3056" y="141" on="1"/>
        <pt x="3134" y="141" on="0"/>
        <pt x="3181" y="202" on="1"/>
        <pt x="3214" y="253" on="0"/>
        <pt x="3249" y="304" on="1"/>
        <pt x="3285" y="304" on="1"/>
        <pt x="3303" y="240" on="0"/>
        <pt x="3286" y="158" on="1"/>
        <pt x="3303" y="141" on="0"/>
        <pt x="3332" y="141" on="1"/>
        <pt x="3463" y="141" on="0"/>
        <pt x="3515" y="299" on="1"/>
        <pt x="3546" y="315" on="0"/>
        <pt x="3560" y="315" on="1"/>
        <pt x="3562" y="310" on="0"/>
        <pt x="3562" y="233" on="1"/>
        <pt x="3562" y="193" on="0"/>
        <pt x="3594" y="193" on="1"/>
        <pt x="3667" y="193" on="0"/>
        <pt x="3695" y="255" on="1"/>
        <pt x="3732" y="338" on="0"/>
        <pt x="3784" y="366" on="1"/>
        <pt x="3798" y="347" on="0"/>
        <pt x="3800" y="282" on="1"/>
        <pt x="3852" y="243" on="0"/>
        <pt x="3906" y="243" on="1"/>
        <pt x="3983" y="243" on="1"/>
        <pt x="4034" y="243" on="0"/>
        <pt x="4034" y="279" on="1"/>
        <pt x="4034" y="323" on="0"/>
        <pt x="3948" y="482" on="1"/>
        <pt x="3924" y="501" on="0"/>
        <pt x="3874" y="553" on="1"/>
        <pt x="3860" y="570" on="0"/>
        <pt x="3860" y="617" on="1"/>
        <pt x="3860" y="668" on="0"/>
        <pt x="3903" y="754" on="1"/>
        <pt x="3947" y="754" on="0"/>
        <pt x="3968" y="723" on="1"/>
        <pt x="4136" y="452" on="0"/>
      </contour>
      <contour>
        <pt x="2959" y="-166" on="1"/>
        <pt x="2959" y="-239" on="0"/>
        <pt x="2471" y="-401" on="1"/>
        <pt x="2457" y="-387" on="0"/>
        <pt x="2457" y="-365" on="1"/>
        <pt x="2457" y="-319" on="0"/>
        <pt x="2523" y="-286" on="1"/>
        <pt x="2579" y="-266" on="0"/>
        <pt x="2634" y="-245" on="1"/>
        <pt x="2733" y="-205" on="0"/>
        <pt x="2934" y="-135" on="1"/>
        <pt x="2942" y="-140" on="0"/>
        <pt x="2959" y="-150" on="0"/>
      </contour>
      <contour>
        <pt x="901" y="1360" on="1"/>
        <pt x="901" y="1316" on="0"/>
        <pt x="857" y="1291" on="1"/>
        <pt x="427" y="1041" on="0"/>
        <pt x="382" y="1043" on="1"/>
        <pt x="338" y="1043" on="1"/>
        <pt x="338" y="1076" on="1"/>
        <pt x="338" y="1121" on="0"/>
        <pt x="468" y="1193" on="1"/>
        <pt x="537" y="1226" on="0"/>
        <pt x="607" y="1259" on="1"/>
        <pt x="705" y="1310" on="0"/>
        <pt x="886" y="1390" on="1"/>
        <pt x="901" y="1375" on="0"/>
      </contour>
      <contour>
        <pt x="644" y="796" on="1"/>
        <pt x="644" y="768" on="0"/>
        <pt x="597" y="705" on="0"/>
        <pt x="568" y="705" on="1"/>
        <pt x="537" y="705" on="0"/>
        <pt x="471" y="755" on="0"/>
        <pt x="471" y="781" on="1"/>
        <pt x="471" y="795" on="0"/>
        <pt x="499" y="835" on="1"/>
        <pt x="531" y="878" on="0"/>
        <pt x="558" y="878" on="1"/>
        <pt x="591" y="878" on="0"/>
        <pt x="620" y="845" on="1"/>
        <pt x="644" y="818" on="0"/>
      </contour>
      <contour>
        <pt x="1003" y="254" on="1"/>
        <pt x="1003" y="75" on="0"/>
        <pt x="850" y="-23" on="1"/>
        <pt x="726" y="-104" on="0"/>
        <pt x="563" y="-104" on="1"/>
        <pt x="454" y="-104" on="0"/>
        <pt x="461" y="-105" on="1"/>
        <pt x="423" y="-100" on="0"/>
        <pt x="370" y="-59" on="1"/>
        <pt x="338" y="-35" on="0"/>
        <pt x="304" y="21" on="1"/>
        <pt x="266" y="83" on="0"/>
        <pt x="266" y="120" on="1"/>
        <pt x="266" y="168" on="0"/>
        <pt x="314" y="266" on="1"/>
        <pt x="368" y="378" on="0"/>
        <pt x="418" y="386" on="1"/>
        <pt x="418" y="329" on="1"/>
        <pt x="419" y="319" on="0"/>
        <pt x="378" y="228" on="0"/>
        <pt x="378" y="213" on="1"/>
        <pt x="378" y="121" on="0"/>
        <pt x="471" y="74" on="1"/>
        <pt x="538" y="39" on="0"/>
        <pt x="614" y="39" on="1"/>
        <pt x="663" y="39" on="0"/>
        <pt x="779" y="86" on="1"/>
        <pt x="911" y="139" on="0"/>
        <pt x="911" y="188" on="1"/>
        <pt x="911" y="252" on="0"/>
        <pt x="778" y="516" on="0"/>
        <pt x="778" y="546" on="1"/>
        <pt x="778" y="587" on="0"/>
        <pt x="834" y="643" on="1"/>
        <pt x="889" y="597" on="0"/>
        <pt x="1003" y="339" on="0"/>
      </contour>
      <contour>
        <pt x="3919" y="1339" on="1"/>
        <pt x="3919" y="1409" on="1"/>
        <pt x="3910" y="1409" on="0"/>
        <pt x="3895" y="1421" on="1"/>
        <pt x="3847" y="1397" on="0"/>
        <pt x="3850" y="1373" on="1"/>
        <pt x="3874" y="1362" on="0"/>
      </contour>
      <contour>
        <pt x="1945" y="1161" on="1"/>
        <pt x="1922" y="1206" on="0"/>
        <pt x="1886" y="1206" on="1"/>
        <pt x="1881" y="1200" on="0"/>
        <pt x="1858" y="1176" on="0"/>
        <pt x="1853" y="1170" on="1"/>
        <pt x="1877" y="1152" on="0"/>
        <pt x="1919" y="1114" on="1"/>
        <pt x="1945" y="1140" on="0"/>
      </contour>
      <contour>
        <pt x="2006" y="205" on="1"/>
        <pt x="1986" y="244" on="0"/>
        <pt x="1948" y="263" on="1"/>
        <pt x="1948" y="253" on="0"/>
        <pt x="1925" y="251" on="1"/>
        <pt x="1934" y="205" on="0"/>
      </contour>
      <contour>
        <pt x="1381" y="143" on="1"/>
        <pt x="1381" y="179" on="1"/>
        <pt x="1360" y="202" on="0"/>
        <pt x="1343" y="202" on="1"/>
        <pt x="1332" y="153" on="1"/>
        <pt x="1337" y="153" on="0"/>
        <pt x="1375" y="143" on="0"/>
      </contour>
      <contour>
        <pt x="4005" y="-620" on="1"/>
        <pt x="4005" y="-652" on="0"/>
        <pt x="3961" y="-683" on="1"/>
        <pt x="3925" y="-707" on="0"/>
        <pt x="3912" y="-707" on="1"/>
        <pt x="3901" y="-707" on="0"/>
        <pt x="3843" y="-687" on="0"/>
        <pt x="3830" y="-687" on="1"/>
        <pt x="3819" y="-687" on="0"/>
        <pt x="3752" y="-748" on="0"/>
        <pt x="3739" y="-748" on="1"/>
        <pt x="3712" y="-748" on="0"/>
        <pt x="3626" y="-684" on="0"/>
        <pt x="3626" y="-661" on="1"/>
        <pt x="3626" y="-637" on="0"/>
        <pt x="3694" y="-564" on="0"/>
        <pt x="3718" y="-564" on="1"/>
        <pt x="3730" y="-564" on="0"/>
        <pt x="3794" y="-605" on="0"/>
        <pt x="3805" y="-605" on="1"/>
        <pt x="3818" y="-605" on="0"/>
        <pt x="3894" y="-533" on="0"/>
        <pt x="3907" y="-533" on="1"/>
        <pt x="3936" y="-533" on="0"/>
        <pt x="3972" y="-570" on="1"/>
        <pt x="4005" y="-603" on="0"/>
      </contour>
    </TTGlyph>
    <TTGlyph name="gaffinalarabic" xMin="142" yMin="226" xMax="842" yMax="1588">
      <contour>
        <pt x="142" y="226" on="1"/>
        <pt x="142" y="1588" on="1"/>
        <pt x="842" y="1588" on="1"/>
        <pt x="842" y="226" on="1"/>
      </contour>
      <contour>
        <pt x="284" y="368" on="1"/>
        <pt x="700" y="368" on="1"/>
        <pt x="700" y="1447" on="1"/>
        <pt x="284" y="1447" on="1"/>
      </contour>
    </TTGlyph>
    <TTGlyph name="gafinitialarabic" xMin="142" yMin="226" xMax="842" yMax="1588">
      <contour>
        <pt x="142" y="226" on="1"/>
        <pt x="142" y="1588" on="1"/>
        <pt x="842" y="1588" on="1"/>
        <pt x="842" y="226" on="1"/>
      </contour>
      <contour>
        <pt x="284" y="368" on="1"/>
        <pt x="700" y="368" on="1"/>
        <pt x="700" y="1447" on="1"/>
        <pt x="284" y="1447" on="1"/>
      </contour>
    </TTGlyph>
    <TTGlyph name="gafmedialarabic" xMin="142" yMin="226" xMax="842" yMax="1588">
      <contour>
        <pt x="142" y="226" on="1"/>
        <pt x="142" y="1588" on="1"/>
        <pt x="842" y="1588" on="1"/>
        <pt x="842" y="226" on="1"/>
      </contour>
      <contour>
        <pt x="284" y="368" on="1"/>
        <pt x="700" y="368" on="1"/>
        <pt x="700" y="1447" on="1"/>
        <pt x="284" y="1447" on="1"/>
      </contour>
    </TTGlyph>
    <TTGlyph name="glyph41" xMin="142" yMin="226" xMax="842" yMax="1588">
      <contour>
        <pt x="142" y="226" on="1"/>
        <pt x="142" y="1588" on="1"/>
        <pt x="842" y="1588" on="1"/>
        <pt x="842" y="226" on="1"/>
      </contour>
      <contour>
        <pt x="284" y="368" on="1"/>
        <pt x="700" y="368" on="1"/>
        <pt x="700" y="1447" on="1"/>
        <pt x="284" y="1447" on="1"/>
      </contour>
    </TTGlyph>
    <TTGlyph name="glyph42" xMin="142" yMin="226" xMax="842" yMax="1588">
      <contour>
        <pt x="142" y="226" on="1"/>
        <pt x="142" y="1588" on="1"/>
        <pt x="842" y="1588" on="1"/>
        <pt x="842" y="226" on="1"/>
      </contour>
      <contour>
        <pt x="284" y="368" on="1"/>
        <pt x="700" y="368" on="1"/>
        <pt x="700" y="1447" on="1"/>
        <pt x="284" y="1447" on="1"/>
      </contour>
    </TTGlyph>
    <TTGlyph name="glyph43" xMin="142" yMin="226" xMax="842" yMax="1588">
      <contour>
        <pt x="142" y="226" on="1"/>
        <pt x="142" y="1588" on="1"/>
        <pt x="842" y="1588" on="1"/>
        <pt x="842" y="226" on="1"/>
      </contour>
      <contour>
        <pt x="284" y="368" on="1"/>
        <pt x="700" y="368" on="1"/>
        <pt x="700" y="1447" on="1"/>
        <pt x="284" y="1447" on="1"/>
      </contour>
    </TTGlyph>
    <TTGlyph name="glyph44" xMin="142" yMin="226" xMax="842" yMax="1588">
      <contour>
        <pt x="142" y="226" on="1"/>
        <pt x="142" y="1588" on="1"/>
        <pt x="842" y="1588" on="1"/>
        <pt x="842" y="226" on="1"/>
      </contour>
      <contour>
        <pt x="284" y="368" on="1"/>
        <pt x="700" y="368" on="1"/>
        <pt x="700" y="1447" on="1"/>
        <pt x="284" y="1447" on="1"/>
      </contour>
    </TTGlyph>
    <TTGlyph name="glyph45" xMin="142" yMin="226" xMax="842" yMax="1588">
      <contour>
        <pt x="142" y="226" on="1"/>
        <pt x="142" y="1588" on="1"/>
        <pt x="842" y="1588" on="1"/>
        <pt x="842" y="226" on="1"/>
      </contour>
      <contour>
        <pt x="284" y="368" on="1"/>
        <pt x="700" y="368" on="1"/>
        <pt x="700" y="1447" on="1"/>
        <pt x="284" y="1447" on="1"/>
      </contour>
    </TTGlyph>
    <TTGlyph name="glyph46" xMin="142" yMin="226" xMax="842" yMax="1588">
      <contour>
        <pt x="142" y="226" on="1"/>
        <pt x="142" y="1588" on="1"/>
        <pt x="842" y="1588" on="1"/>
        <pt x="842" y="226" on="1"/>
      </contour>
      <contour>
        <pt x="284" y="368" on="1"/>
        <pt x="700" y="368" on="1"/>
        <pt x="700" y="1447" on="1"/>
        <pt x="284" y="1447" on="1"/>
      </contour>
    </TTGlyph>
    <TTGlyph name="glyph47" xMin="142" yMin="226" xMax="842" yMax="1588">
      <contour>
        <pt x="142" y="226" on="1"/>
        <pt x="142" y="1588" on="1"/>
        <pt x="842" y="1588" on="1"/>
        <pt x="842" y="226" on="1"/>
      </contour>
      <contour>
        <pt x="284" y="368" on="1"/>
        <pt x="700" y="368" on="1"/>
        <pt x="700" y="1447" on="1"/>
        <pt x="284" y="1447" on="1"/>
      </contour>
    </TTGlyph>
    <TTGlyph name="glyph48" xMin="142" yMin="226" xMax="842" yMax="1588">
      <contour>
        <pt x="142" y="226" on="1"/>
        <pt x="142" y="1588" on="1"/>
        <pt x="842" y="1588" on="1"/>
        <pt x="842" y="226" on="1"/>
      </contour>
      <contour>
        <pt x="284" y="368" on="1"/>
        <pt x="700" y="368" on="1"/>
        <pt x="700" y="1447" on="1"/>
        <pt x="284" y="1447" on="1"/>
      </contour>
    </TTGlyph>
    <TTGlyph name="glyph50" xMin="142" yMin="226" xMax="842" yMax="1588">
      <contour>
        <pt x="142" y="226" on="1"/>
        <pt x="142" y="1588" on="1"/>
        <pt x="842" y="1588" on="1"/>
        <pt x="842" y="226" on="1"/>
      </contour>
      <contour>
        <pt x="284" y="368" on="1"/>
        <pt x="700" y="368" on="1"/>
        <pt x="700" y="1447" on="1"/>
        <pt x="284" y="1447" on="1"/>
      </contour>
    </TTGlyph>
    <TTGlyph name="glyph51" xMin="142" yMin="226" xMax="842" yMax="1588">
      <contour>
        <pt x="142" y="226" on="1"/>
        <pt x="142" y="1588" on="1"/>
        <pt x="842" y="1588" on="1"/>
        <pt x="842" y="226" on="1"/>
      </contour>
      <contour>
        <pt x="284" y="368" on="1"/>
        <pt x="700" y="368" on="1"/>
        <pt x="700" y="1447" on="1"/>
        <pt x="284" y="1447" on="1"/>
      </contour>
    </TTGlyph>
    <TTGlyph name="greater" xMin="142" yMin="226" xMax="842" yMax="1588">
      <contour>
        <pt x="142" y="226" on="1"/>
        <pt x="142" y="1588" on="1"/>
        <pt x="842" y="1588" on="1"/>
        <pt x="842" y="226" on="1"/>
      </contour>
      <contour>
        <pt x="284" y="368" on="1"/>
        <pt x="700" y="368" on="1"/>
        <pt x="700" y="1447" on="1"/>
        <pt x="284" y="1447" on="1"/>
      </contour>
    </TTGlyph>
    <TTGlyph name="hahhamzabovefinal" xMin="142" yMin="226" xMax="842" yMax="1588">
      <contour>
        <pt x="142" y="226" on="1"/>
        <pt x="142" y="1588" on="1"/>
        <pt x="842" y="1588" on="1"/>
        <pt x="842" y="226" on="1"/>
      </contour>
      <contour>
        <pt x="284" y="368" on="1"/>
        <pt x="700" y="368" on="1"/>
        <pt x="700" y="1447" on="1"/>
        <pt x="284" y="1447" on="1"/>
      </contour>
    </TTGlyph>
    <TTGlyph name="hahhamzaboveinitial" xMin="142" yMin="226" xMax="842" yMax="1588">
      <contour>
        <pt x="142" y="226" on="1"/>
        <pt x="142" y="1588" on="1"/>
        <pt x="842" y="1588" on="1"/>
        <pt x="842" y="226" on="1"/>
      </contour>
      <contour>
        <pt x="284" y="368" on="1"/>
        <pt x="700" y="368" on="1"/>
        <pt x="700" y="1447" on="1"/>
        <pt x="284" y="1447" on="1"/>
      </contour>
    </TTGlyph>
    <TTGlyph name="hahhamzabovemedial" xMin="142" yMin="226" xMax="842" yMax="1588">
      <contour>
        <pt x="142" y="226" on="1"/>
        <pt x="142" y="1588" on="1"/>
        <pt x="842" y="1588" on="1"/>
        <pt x="842" y="226" on="1"/>
      </contour>
      <contour>
        <pt x="284" y="368" on="1"/>
        <pt x="700" y="368" on="1"/>
        <pt x="700" y="1447" on="1"/>
        <pt x="284" y="1447" on="1"/>
      </contour>
    </TTGlyph>
    <TTGlyph name="hahthreedotsabovefinal" xMin="142" yMin="226" xMax="842" yMax="1588">
      <contour>
        <pt x="142" y="226" on="1"/>
        <pt x="142" y="1588" on="1"/>
        <pt x="842" y="1588" on="1"/>
        <pt x="842" y="226" on="1"/>
      </contour>
      <contour>
        <pt x="284" y="368" on="1"/>
        <pt x="700" y="368" on="1"/>
        <pt x="700" y="1447" on="1"/>
        <pt x="284" y="1447" on="1"/>
      </contour>
    </TTGlyph>
    <TTGlyph name="hahthreedotsaboveinitial" xMin="142" yMin="226" xMax="842" yMax="1588">
      <contour>
        <pt x="142" y="226" on="1"/>
        <pt x="142" y="1588" on="1"/>
        <pt x="842" y="1588" on="1"/>
        <pt x="842" y="226" on="1"/>
      </contour>
      <contour>
        <pt x="284" y="368" on="1"/>
        <pt x="700" y="368" on="1"/>
        <pt x="700" y="1447" on="1"/>
        <pt x="284" y="1447" on="1"/>
      </contour>
    </TTGlyph>
    <TTGlyph name="hahthreedotsabovemedial" xMin="142" yMin="226" xMax="842" yMax="1588">
      <contour>
        <pt x="142" y="226" on="1"/>
        <pt x="142" y="1588" on="1"/>
        <pt x="842" y="1588" on="1"/>
        <pt x="842" y="226" on="1"/>
      </contour>
      <contour>
        <pt x="284" y="368" on="1"/>
        <pt x="700" y="368" on="1"/>
        <pt x="700" y="1447" on="1"/>
        <pt x="284" y="1447" on="1"/>
      </contour>
    </TTGlyph>
    <TTGlyph name="hehdoachashmeefinalarabic" xMin="142" yMin="226" xMax="842" yMax="1588">
      <contour>
        <pt x="142" y="226" on="1"/>
        <pt x="142" y="1588" on="1"/>
        <pt x="842" y="1588" on="1"/>
        <pt x="842" y="226" on="1"/>
      </contour>
      <contour>
        <pt x="284" y="368" on="1"/>
        <pt x="700" y="368" on="1"/>
        <pt x="700" y="1447" on="1"/>
        <pt x="284" y="1447" on="1"/>
      </contour>
    </TTGlyph>
    <TTGlyph name="hehdoachashmeeinitialarabic" xMin="142" yMin="226" xMax="842" yMax="1588">
      <contour>
        <pt x="142" y="226" on="1"/>
        <pt x="142" y="1588" on="1"/>
        <pt x="842" y="1588" on="1"/>
        <pt x="842" y="226" on="1"/>
      </contour>
      <contour>
        <pt x="284" y="368" on="1"/>
        <pt x="700" y="368" on="1"/>
        <pt x="700" y="1447" on="1"/>
        <pt x="284" y="1447" on="1"/>
      </contour>
    </TTGlyph>
    <TTGlyph name="hehdoachashmeemedialarabic" xMin="142" yMin="226" xMax="842" yMax="1588">
      <contour>
        <pt x="142" y="226" on="1"/>
        <pt x="142" y="1588" on="1"/>
        <pt x="842" y="1588" on="1"/>
        <pt x="842" y="226" on="1"/>
      </contour>
      <contour>
        <pt x="284" y="368" on="1"/>
        <pt x="700" y="368" on="1"/>
        <pt x="700" y="1447" on="1"/>
        <pt x="284" y="1447" on="1"/>
      </contour>
    </TTGlyph>
    <TTGlyph name="hehfinalaltonearabic" xMin="142" yMin="226" xMax="842" yMax="1588">
      <contour>
        <pt x="142" y="226" on="1"/>
        <pt x="142" y="1588" on="1"/>
        <pt x="842" y="1588" on="1"/>
        <pt x="842" y="226" on="1"/>
      </contour>
      <contour>
        <pt x="284" y="368" on="1"/>
        <pt x="700" y="368" on="1"/>
        <pt x="700" y="1447" on="1"/>
        <pt x="284" y="1447" on="1"/>
      </contour>
    </TTGlyph>
    <TTGlyph name="hehhamzaabovefinalarabic" xMin="142" yMin="226" xMax="842" yMax="1588">
      <contour>
        <pt x="142" y="226" on="1"/>
        <pt x="142" y="1588" on="1"/>
        <pt x="842" y="1588" on="1"/>
        <pt x="842" y="226" on="1"/>
      </contour>
      <contour>
        <pt x="284" y="368" on="1"/>
        <pt x="700" y="368" on="1"/>
        <pt x="700" y="1447" on="1"/>
        <pt x="284" y="1447" on="1"/>
      </contour>
    </TTGlyph>
    <TTGlyph name="hehinitialaltonearabic" xMin="142" yMin="226" xMax="842" yMax="1588">
      <contour>
        <pt x="142" y="226" on="1"/>
        <pt x="142" y="1588" on="1"/>
        <pt x="842" y="1588" on="1"/>
        <pt x="842" y="226" on="1"/>
      </contour>
      <contour>
        <pt x="284" y="368" on="1"/>
        <pt x="700" y="368" on="1"/>
        <pt x="700" y="1447" on="1"/>
        <pt x="284" y="1447" on="1"/>
      </contour>
    </TTGlyph>
    <TTGlyph name="hehmedialaltonearabic" xMin="142" yMin="226" xMax="842" yMax="1588">
      <contour>
        <pt x="142" y="226" on="1"/>
        <pt x="142" y="1588" on="1"/>
        <pt x="842" y="1588" on="1"/>
        <pt x="842" y="226" on="1"/>
      </contour>
      <contour>
        <pt x="284" y="368" on="1"/>
        <pt x="700" y="368" on="1"/>
        <pt x="700" y="1447" on="1"/>
        <pt x="284" y="1447" on="1"/>
      </contour>
    </TTGlyph>
    <TTGlyph name="hyphen" xMin="266" yMin="-748" xMax="4136" yMax="1549">
      <contour>
        <pt x="4074" y="1221" on="1"/>
        <pt x="4074" y="1189" on="0"/>
        <pt x="4030" y="1144" on="1"/>
        <pt x="4023" y="1147" on="0"/>
        <pt x="3979" y="1167" on="1"/>
        <pt x="3941" y="1185" on="0"/>
        <pt x="3926" y="1185" on="1"/>
        <pt x="3914" y="1185" on="0"/>
        <pt x="3862" y="1143" on="1"/>
        <pt x="3800" y="1090" on="0"/>
        <pt x="3775" y="1076" on="1"/>
        <pt x="3698" y="1039" on="0"/>
        <pt x="3538" y="960" on="1"/>
        <pt x="3471" y="974" on="1"/>
        <pt x="3503" y="1014" on="0"/>
        <pt x="3620" y="1085" on="1"/>
        <pt x="3742" y="1158" on="0"/>
        <pt x="3808" y="1232" on="1"/>
        <pt x="3792" y="1248" on="0"/>
        <pt x="3762" y="1279" on="1"/>
        <pt x="3747" y="1294" on="0"/>
        <pt x="3747" y="1339" on="1"/>
        <pt x="3747" y="1383" on="0"/>
        <pt x="3808" y="1462" on="1"/>
        <pt x="3876" y="1549" on="0"/>
        <pt x="3933" y="1549" on="1"/>
        <pt x="3947" y="1549" on="0"/>
        <pt x="3960" y="1543" on="1"/>
        <pt x="4011" y="1486" on="0"/>
        <pt x="4011" y="1420" on="1"/>
        <pt x="4011" y="1432" on="0"/>
        <pt x="3995" y="1304" on="1"/>
        <pt x="4002" y="1293" on="0"/>
        <pt x="4041" y="1262" on="1"/>
        <pt x="4074" y="1235" on="0"/>
      </contour>
      <contour>
        <pt x="3471" y="1283" on="1"/>
        <pt x="3471" y="1209" on="0"/>
        <pt x="3314" y="1140" on="1"/>
        <pt x="3186" y="1083" on="0"/>
        <pt x="3132" y="1083" on="1"/>
        <pt x="3095" y="1083" on="0"/>
        <pt x="3072" y="1095" on="1"/>
        <pt x="3069" y="1121" on="0"/>
        <pt x="3136" y="1155" on="1"/>
        <pt x="3242" y="1210" on="0"/>
        <pt x="3245" y="1212" on="1"/>
        <pt x="3235" y="1237" on="0"/>
        <pt x="3184" y="1237" on="1"/>
        <pt x="3166" y="1237" on="0"/>
        <pt x="3089" y="1199" on="0"/>
        <pt x="3071" y="1199" on="1"/>
        <pt x="3060" y="1199" on="0"/>
        <pt x="3051" y="1204" on="1"/>
        <pt x="3077" y="1257" on="0"/>
        <pt x="3082" y="1264" on="1"/>
        <pt x="3103" y="1300" on="0"/>
        <pt x="3125" y="1314" on="1"/>
        <pt x="3196" y="1360" on="0"/>
        <pt x="3235" y="1360" on="1"/>
        <pt x="3248" y="1360" on="0"/>
        <pt x="3330" y="1342" on="1"/>
        <pt x="3424" y="1322" on="0"/>
        <pt x="3459" y="1316" on="1"/>
        <pt x="3459" y="1314" on="0"/>
        <pt x="3471" y="1298" on="0"/>
      </contour>
      <contour>
        <pt x="2089" y="971" on="1"/>
        <pt x="2089" y="942" on="0"/>
        <pt x="2066" y="923" on="1"/>
        <pt x="2048" y="909" on="0"/>
        <pt x="2032" y="909" on="1"/>
        <pt x="2021" y="909" on="0"/>
        <pt x="1943" y="960" on="0"/>
        <pt x="1930" y="960" on="1"/>
        <pt x="1916" y="960" on="0"/>
        <pt x="1871" y="922" on="1"/>
        <pt x="1807" y="867" on="0"/>
        <pt x="1800" y="861" on="1"/>
        <pt x="1750" y="827" on="0"/>
        <pt x="1664" y="785" on="1"/>
        <pt x="1582" y="745" on="0"/>
        <pt x="1561" y="745" on="1"/>
        <pt x="1530" y="745" on="0"/>
        <pt x="1515" y="760" on="1"/>
        <pt x="1554" y="811" on="0"/>
        <pt x="1659" y="883" on="1"/>
        <pt x="1814" y="991" on="0"/>
        <pt x="1822" y="997" on="1"/>
        <pt x="1819" y="1004" on="0"/>
        <pt x="1782" y="1065" on="1"/>
        <pt x="1750" y="1113" on="0"/>
        <pt x="1750" y="1135" on="1"/>
        <pt x="1750" y="1194" on="0"/>
        <pt x="1905" y="1332" on="0"/>
        <pt x="1972" y="1329" on="1"/>
        <pt x="1990" y="1312" on="0"/>
        <pt x="2013" y="1274" on="1"/>
        <pt x="2029" y="1211" on="0"/>
        <pt x="2026" y="1200" on="1"/>
        <pt x="2024" y="1187" on="0"/>
        <pt x="2009" y="1144" on="1"/>
        <pt x="1996" y="1108" on="0"/>
        <pt x="1996" y="1094" on="1"/>
        <pt x="1996" y="1082" on="0"/>
        <pt x="2089" y="984" on="0"/>
      </contour>
      <contour>
        <pt x="4136" y="243" on="1"/>
        <pt x="4136" y="79" on="0"/>
        <pt x="3926" y="79" on="1"/>
        <pt x="3908" y="79" on="0"/>
        <pt x="3756" y="120" on="0"/>
        <pt x="3747" y="120" on="1"/>
        <pt x="3733" y="120" on="0"/>
        <pt x="3714" y="102" on="1"/>
        <pt x="3685" y="74" on="0"/>
        <pt x="3684" y="73" on="1"/>
        <pt x="3635" y="39" on="0"/>
        <pt x="3548" y="39" on="1"/>
        <pt x="3535" y="39" on="0"/>
        <pt x="3478" y="49" on="0"/>
        <pt x="3466" y="49" on="1"/>
        <pt x="3454" y="49" on="0"/>
        <pt x="3405" y="13" on="0"/>
        <pt x="3395" y="11" on="1"/>
        <pt x="3381" y="8" on="0"/>
        <pt x="3332" y="8" on="1"/>
        <pt x="3319" y="8" on="0"/>
        <pt x="3196" y="39" on="0"/>
        <pt x="3184" y="39" on="1"/>
        <pt x="3171" y="39" on="0"/>
        <pt x="3007" y="-2" on="0"/>
        <pt x="2983" y="-2" on="0"/>
        <pt x="2890" y="-12" on="0"/>
        <pt x="2877" y="-12" on="1"/>
        <pt x="2782" y="-12" on="0"/>
        <pt x="2742" y="0" on="1"/>
        <pt x="2642" y="28" on="0"/>
        <pt x="2574" y="131" on="1"/>
        <pt x="2516" y="81" on="0"/>
        <pt x="2395" y="70" on="1"/>
        <pt x="2253" y="57" on="0"/>
        <pt x="2229" y="46" on="1"/>
        <pt x="2199" y="31" on="0"/>
        <pt x="2171" y="17" on="1"/>
        <pt x="2150" y="8" on="0"/>
        <pt x="2114" y="8" on="1"/>
        <pt x="2016" y="8" on="0"/>
        <pt x="1841" y="79" on="0"/>
        <pt x="1837" y="79" on="1"/>
        <pt x="1827" y="79" on="0"/>
        <pt x="1800" y="59" on="1"/>
        <pt x="1769" y="36" on="0"/>
        <pt x="1758" y="31" on="1"/>
        <pt x="1702" y="16" on="0"/>
        <pt x="1585" y="-24" on="1"/>
        <pt x="1528" y="-170" on="0"/>
        <pt x="1389" y="-303" on="1"/>
        <pt x="1233" y="-453" on="0"/>
        <pt x="1101" y="-453" on="1"/>
        <pt x="1061" y="-453" on="0"/>
        <pt x="934" y="-430" on="1"/>
        <pt x="773" y="-401" on="0"/>
        <pt x="726" y="-367" on="1"/>
        <pt x="753" y="-319" on="0"/>
        <pt x="788" y="-319" on="1"/>
        <pt x="801" y="-319" on="0"/>
        <pt x="939" y="-339" on="0"/>
        <pt x="952" y="-339" on="1"/>
        <pt x="1250" y="-339" on="0"/>
        <pt x="1454" y="-48" on="1"/>
        <pt x="1433" y="-27" on="0"/>
        <pt x="1345" y="-16" on="1"/>
        <pt x="1262" y="-5" on="0"/>
        <pt x="1221" y="52" on="1"/>
        <pt x="1218" y="64" on="0"/>
        <pt x="1218" y="95" on="1"/>
        <pt x="1218" y="158" on="0"/>
        <pt x="1262" y="251" on="1"/>
        <pt x="1316" y="366" on="0"/>
        <pt x="1387" y="366" on="1"/>
        <pt x="1441" y="366" on="0"/>
        <pt x="1560" y="131" on="0"/>
        <pt x="1602" y="131" on="1"/>
        <pt x="1648" y="131" on="1"/>
        <pt x="1701" y="131" on="0"/>
        <pt x="1783" y="194" on="1"/>
        <pt x="1827" y="251" on="0"/>
        <pt x="1871" y="307" on="1"/>
        <pt x="1951" y="407" on="0"/>
        <pt x="1986" y="407" on="1"/>
        <pt x="1997" y="407" on="0"/>
        <pt x="2053" y="346" on="1"/>
        <pt x="2118" y="274" on="0"/>
        <pt x="2148" y="256" on="1"/>
        <pt x="2228" y="202" on="0"/>
        <pt x="2339" y="202" on="1"/>
        <pt x="2549" y="202" on="0"/>
        <pt x="2549" y="300" on="1"/>
        <pt x="2478" y="1012" on="1"/>
        <pt x="2478" y="1071" on="0"/>
        <pt x="2533" y="1144" on="1"/>
        <pt x="2566" y="1121" on="0"/>
        <pt x="2576" y="1020" on="1"/>
        <pt x="2584" y="937" on="0"/>
        <pt x="2590" y="854" on="1"/>
        <pt x="2611" y="724" on="0"/>
        <pt x="2624" y="532" on="1"/>
        <pt x="2632" y="398" on="0"/>
        <pt x="2674" y="250" on="1"/>
        <pt x="2686" y="211" on="0"/>
        <pt x="2731" y="184" on="1"/>
        <pt x="2804" y="141" on="0"/>
        <pt x="2913" y="141" on="1"/>
        <pt x="3056" y="141" on="1"/>
        <pt x="3134" y="141" on="0"/>
        <pt x="3181" y="202" on="1"/>
        <pt x="3214" y="253" on="0"/>
        <pt x="3249" y="304" on="1"/>
        <pt x="3285" y="304" on="1"/>
        <pt x="3303" y="240" on="0"/>
        <pt x="3286" y="158" on="1"/>
        <pt x="3303" y="141" on="0"/>
        <pt x="3332" y="141" on="1"/>
        <pt x="3463" y="141" on="0"/>
        <pt x="3515" y="299" on="1"/>
        <pt x="3546" y="315" on="0"/>
        <pt x="3560" y="315" on="1"/>
        <pt x="3562" y="310" on="0"/>
        <pt x="3562" y="233" on="1"/>
        <pt x="3562" y="193" on="0"/>
        <pt x="3594" y="193" on="1"/>
        <pt x="3667" y="193" on="0"/>
        <pt x="3695" y="255" on="1"/>
        <pt x="3732" y="338" on="0"/>
        <pt x="3784" y="366" on="1"/>
        <pt x="3798" y="347" on="0"/>
        <pt x="3800" y="282" on="1"/>
        <pt x="3852" y="243" on="0"/>
        <pt x="3906" y="243" on="1"/>
        <pt x="3983" y="243" on="1"/>
        <pt x="4034" y="243" on="0"/>
        <pt x="4034" y="279" on="1"/>
        <pt x="4034" y="323" on="0"/>
        <pt x="3948" y="482" on="1"/>
        <pt x="3924" y="501" on="0"/>
        <pt x="3874" y="553" on="1"/>
        <pt x="3860" y="570" on="0"/>
        <pt x="3860" y="617" on="1"/>
        <pt x="3860" y="668" on="0"/>
        <pt x="3903" y="754" on="1"/>
        <pt x="3947" y="754" on="0"/>
        <pt x="3968" y="723" on="1"/>
        <pt x="4136" y="452" on="0"/>
      </contour>
      <contour>
        <pt x="2959" y="-166" on="1"/>
        <pt x="2959" y="-239" on="0"/>
        <pt x="2471" y="-401" on="1"/>
        <pt x="2457" y="-387" on="0"/>
        <pt x="2457" y="-365" on="1"/>
        <pt x="2457" y="-319" on="0"/>
        <pt x="2523" y="-286" on="1"/>
        <pt x="2579" y="-266" on="0"/>
        <pt x="2634" y="-245" on="1"/>
        <pt x="2733" y="-205" on="0"/>
        <pt x="2934" y="-135" on="1"/>
        <pt x="2942" y="-140" on="0"/>
        <pt x="2959" y="-150" on="0"/>
      </contour>
      <contour>
        <pt x="901" y="1360" on="1"/>
        <pt x="901" y="1316" on="0"/>
        <pt x="857" y="1291" on="1"/>
        <pt x="427" y="1041" on="0"/>
        <pt x="382" y="1043" on="1"/>
        <pt x="338" y="1043" on="1"/>
        <pt x="338" y="1076" on="1"/>
        <pt x="338" y="1121" on="0"/>
        <pt x="468" y="1193" on="1"/>
        <pt x="537" y="1226" on="0"/>
        <pt x="607" y="1259" on="1"/>
        <pt x="705" y="1310" on="0"/>
        <pt x="886" y="1390" on="1"/>
        <pt x="901" y="1375" on="0"/>
      </contour>
      <contour>
        <pt x="644" y="796" on="1"/>
        <pt x="644" y="768" on="0"/>
        <pt x="597" y="705" on="0"/>
        <pt x="568" y="705" on="1"/>
        <pt x="537" y="705" on="0"/>
        <pt x="471" y="755" on="0"/>
        <pt x="471" y="781" on="1"/>
        <pt x="471" y="795" on="0"/>
        <pt x="499" y="835" on="1"/>
        <pt x="531" y="878" on="0"/>
        <pt x="558" y="878" on="1"/>
        <pt x="591" y="878" on="0"/>
        <pt x="620" y="845" on="1"/>
        <pt x="644" y="818" on="0"/>
      </contour>
      <contour>
        <pt x="1003" y="254" on="1"/>
        <pt x="1003" y="75" on="0"/>
        <pt x="850" y="-23" on="1"/>
        <pt x="726" y="-104" on="0"/>
        <pt x="563" y="-104" on="1"/>
        <pt x="454" y="-104" on="0"/>
        <pt x="461" y="-105" on="1"/>
        <pt x="423" y="-100" on="0"/>
        <pt x="370" y="-59" on="1"/>
        <pt x="338" y="-35" on="0"/>
        <pt x="304" y="21" on="1"/>
        <pt x="266" y="83" on="0"/>
        <pt x="266" y="120" on="1"/>
        <pt x="266" y="168" on="0"/>
        <pt x="314" y="266" on="1"/>
        <pt x="368" y="378" on="0"/>
        <pt x="418" y="386" on="1"/>
        <pt x="418" y="329" on="1"/>
        <pt x="419" y="319" on="0"/>
        <pt x="378" y="228" on="0"/>
        <pt x="378" y="213" on="1"/>
        <pt x="378" y="121" on="0"/>
        <pt x="471" y="74" on="1"/>
        <pt x="538" y="39" on="0"/>
        <pt x="614" y="39" on="1"/>
        <pt x="663" y="39" on="0"/>
        <pt x="779" y="86" on="1"/>
        <pt x="911" y="139" on="0"/>
        <pt x="911" y="188" on="1"/>
        <pt x="911" y="252" on="0"/>
        <pt x="778" y="516" on="0"/>
        <pt x="778" y="546" on="1"/>
        <pt x="778" y="587" on="0"/>
        <pt x="834" y="643" on="1"/>
        <pt x="889" y="597" on="0"/>
        <pt x="1003" y="339" on="0"/>
      </contour>
      <contour>
        <pt x="3919" y="1339" on="1"/>
        <pt x="3919" y="1409" on="1"/>
        <pt x="3910" y="1409" on="0"/>
        <pt x="3895" y="1421" on="1"/>
        <pt x="3847" y="1397" on="0"/>
        <pt x="3850" y="1373" on="1"/>
        <pt x="3874" y="1362" on="0"/>
      </contour>
      <contour>
        <pt x="1945" y="1161" on="1"/>
        <pt x="1922" y="1206" on="0"/>
        <pt x="1886" y="1206" on="1"/>
        <pt x="1881" y="1200" on="0"/>
        <pt x="1858" y="1176" on="0"/>
        <pt x="1853" y="1170" on="1"/>
        <pt x="1877" y="1152" on="0"/>
        <pt x="1919" y="1114" on="1"/>
        <pt x="1945" y="1140" on="0"/>
      </contour>
      <contour>
        <pt x="2006" y="205" on="1"/>
        <pt x="1986" y="244" on="0"/>
        <pt x="1948" y="263" on="1"/>
        <pt x="1948" y="253" on="0"/>
        <pt x="1925" y="251" on="1"/>
        <pt x="1934" y="205" on="0"/>
      </contour>
      <contour>
        <pt x="1381" y="143" on="1"/>
        <pt x="1381" y="179" on="1"/>
        <pt x="1360" y="202" on="0"/>
        <pt x="1343" y="202" on="1"/>
        <pt x="1332" y="153" on="1"/>
        <pt x="1337" y="153" on="0"/>
        <pt x="1375" y="143" on="0"/>
      </contour>
      <contour>
        <pt x="4005" y="-620" on="1"/>
        <pt x="4005" y="-652" on="0"/>
        <pt x="3961" y="-683" on="1"/>
        <pt x="3925" y="-707" on="0"/>
        <pt x="3912" y="-707" on="1"/>
        <pt x="3901" y="-707" on="0"/>
        <pt x="3843" y="-687" on="0"/>
        <pt x="3830" y="-687" on="1"/>
        <pt x="3819" y="-687" on="0"/>
        <pt x="3752" y="-748" on="0"/>
        <pt x="3739" y="-748" on="1"/>
        <pt x="3712" y="-748" on="0"/>
        <pt x="3626" y="-684" on="0"/>
        <pt x="3626" y="-661" on="1"/>
        <pt x="3626" y="-637" on="0"/>
        <pt x="3694" y="-564" on="0"/>
        <pt x="3718" y="-564" on="1"/>
        <pt x="3730" y="-564" on="0"/>
        <pt x="3794" y="-605" on="0"/>
        <pt x="3805" y="-605" on="1"/>
        <pt x="3818" y="-605" on="0"/>
        <pt x="3894" y="-533" on="0"/>
        <pt x="3907" y="-533" on="1"/>
        <pt x="3936" y="-533" on="0"/>
        <pt x="3972" y="-570" on="1"/>
        <pt x="4005" y="-603" on="0"/>
      </contour>
    </TTGlyph>
    <TTGlyph name="irghizufinal" xMin="142" yMin="226" xMax="842" yMax="1588">
      <contour>
        <pt x="142" y="226" on="1"/>
        <pt x="142" y="1588" on="1"/>
        <pt x="842" y="1588" on="1"/>
        <pt x="842" y="226" on="1"/>
      </contour>
      <contour>
        <pt x="284" y="368" on="1"/>
        <pt x="700" y="368" on="1"/>
        <pt x="700" y="1447" on="1"/>
        <pt x="284" y="1447" on="1"/>
      </contour>
    </TTGlyph>
    <TTGlyph name="jehfinalarabic" xMin="142" yMin="226" xMax="842" yMax="1588">
      <contour>
        <pt x="142" y="226" on="1"/>
        <pt x="142" y="1588" on="1"/>
        <pt x="842" y="1588" on="1"/>
        <pt x="842" y="226" on="1"/>
      </contour>
      <contour>
        <pt x="284" y="368" on="1"/>
        <pt x="700" y="368" on="1"/>
        <pt x="700" y="1447" on="1"/>
        <pt x="284" y="1447" on="1"/>
      </contour>
    </TTGlyph>
    <TTGlyph name="kafringfinal" xMin="142" yMin="226" xMax="842" yMax="1588">
      <contour>
        <pt x="142" y="226" on="1"/>
        <pt x="142" y="1588" on="1"/>
        <pt x="842" y="1588" on="1"/>
        <pt x="842" y="226" on="1"/>
      </contour>
      <contour>
        <pt x="284" y="368" on="1"/>
        <pt x="700" y="368" on="1"/>
        <pt x="700" y="1447" on="1"/>
        <pt x="284" y="1447" on="1"/>
      </contour>
    </TTGlyph>
    <TTGlyph name="kafringinitial" xMin="142" yMin="226" xMax="842" yMax="1588">
      <contour>
        <pt x="142" y="226" on="1"/>
        <pt x="142" y="1588" on="1"/>
        <pt x="842" y="1588" on="1"/>
        <pt x="842" y="226" on="1"/>
      </contour>
      <contour>
        <pt x="284" y="368" on="1"/>
        <pt x="700" y="368" on="1"/>
        <pt x="700" y="1447" on="1"/>
        <pt x="284" y="1447" on="1"/>
      </contour>
    </TTGlyph>
    <TTGlyph name="kafringmedial" xMin="142" yMin="226" xMax="842" yMax="1588">
      <contour>
        <pt x="142" y="226" on="1"/>
        <pt x="142" y="1588" on="1"/>
        <pt x="842" y="1588" on="1"/>
        <pt x="842" y="226" on="1"/>
      </contour>
      <contour>
        <pt x="284" y="368" on="1"/>
        <pt x="700" y="368" on="1"/>
        <pt x="700" y="1447" on="1"/>
        <pt x="284" y="1447" on="1"/>
      </contour>
    </TTGlyph>
    <TTGlyph name="kashidaautoarabic" xMin="142" yMin="226" xMax="842" yMax="1588">
      <contour>
        <pt x="142" y="226" on="1"/>
        <pt x="142" y="1588" on="1"/>
        <pt x="842" y="1588" on="1"/>
        <pt x="842" y="226" on="1"/>
      </contour>
      <contour>
        <pt x="284" y="368" on="1"/>
        <pt x="700" y="368" on="1"/>
        <pt x="700" y="1447" on="1"/>
        <pt x="284" y="1447" on="1"/>
      </contour>
    </TTGlyph>
    <TTGlyph name="kashidaautonosidebearingarabic" xMin="142" yMin="226" xMax="842" yMax="1588">
      <contour>
        <pt x="142" y="226" on="1"/>
        <pt x="142" y="1588" on="1"/>
        <pt x="842" y="1588" on="1"/>
        <pt x="842" y="226" on="1"/>
      </contour>
      <contour>
        <pt x="284" y="368" on="1"/>
        <pt x="700" y="368" on="1"/>
        <pt x="700" y="1447" on="1"/>
        <pt x="284" y="1447" on="1"/>
      </contour>
    </TTGlyph>
    <TTGlyph name="kehehfinalarabic" xMin="142" yMin="226" xMax="842" yMax="1588">
      <contour>
        <pt x="142" y="226" on="1"/>
        <pt x="142" y="1588" on="1"/>
        <pt x="842" y="1588" on="1"/>
        <pt x="842" y="226" on="1"/>
      </contour>
      <contour>
        <pt x="284" y="368" on="1"/>
        <pt x="700" y="368" on="1"/>
        <pt x="700" y="1447" on="1"/>
        <pt x="284" y="1447" on="1"/>
      </contour>
    </TTGlyph>
    <TTGlyph name="kehehinitialarabic" xMin="142" yMin="226" xMax="842" yMax="1588">
      <contour>
        <pt x="142" y="226" on="1"/>
        <pt x="142" y="1588" on="1"/>
        <pt x="842" y="1588" on="1"/>
        <pt x="842" y="226" on="1"/>
      </contour>
      <contour>
        <pt x="284" y="368" on="1"/>
        <pt x="700" y="368" on="1"/>
        <pt x="700" y="1447" on="1"/>
        <pt x="284" y="1447" on="1"/>
      </contour>
    </TTGlyph>
    <TTGlyph name="kehehmedialarabic" xMin="142" yMin="226" xMax="842" yMax="1588">
      <contour>
        <pt x="142" y="226" on="1"/>
        <pt x="142" y="1588" on="1"/>
        <pt x="842" y="1588" on="1"/>
        <pt x="842" y="226" on="1"/>
      </contour>
      <contour>
        <pt x="284" y="368" on="1"/>
        <pt x="700" y="368" on="1"/>
        <pt x="700" y="1447" on="1"/>
        <pt x="284" y="1447" on="1"/>
      </contour>
    </TTGlyph>
    <TTGlyph name="kirghizyifinal" xMin="142" yMin="226" xMax="842" yMax="1588">
      <contour>
        <pt x="142" y="226" on="1"/>
        <pt x="142" y="1588" on="1"/>
        <pt x="842" y="1588" on="1"/>
        <pt x="842" y="226" on="1"/>
      </contour>
      <contour>
        <pt x="284" y="368" on="1"/>
        <pt x="700" y="368" on="1"/>
        <pt x="700" y="1447" on="1"/>
        <pt x="284" y="1447" on="1"/>
      </contour>
    </TTGlyph>
    <TTGlyph name="lammeemjeeminitialarabic" xMin="142" yMin="226" xMax="842" yMax="1588">
      <contour>
        <pt x="142" y="226" on="1"/>
        <pt x="142" y="1588" on="1"/>
        <pt x="842" y="1588" on="1"/>
        <pt x="842" y="226" on="1"/>
      </contour>
      <contour>
        <pt x="284" y="368" on="1"/>
        <pt x="700" y="368" on="1"/>
        <pt x="700" y="1447" on="1"/>
        <pt x="284" y="1447" on="1"/>
      </contour>
    </TTGlyph>
    <TTGlyph name="lammeemkhahinitialarabic" xMin="142" yMin="226" xMax="842" yMax="1588">
      <contour>
        <pt x="142" y="226" on="1"/>
        <pt x="142" y="1588" on="1"/>
        <pt x="842" y="1588" on="1"/>
        <pt x="842" y="226" on="1"/>
      </contour>
      <contour>
        <pt x="284" y="368" on="1"/>
        <pt x="700" y="368" on="1"/>
        <pt x="700" y="1447" on="1"/>
        <pt x="284" y="1447" on="1"/>
      </contour>
    </TTGlyph>
    <TTGlyph name="lamthreedotsabovefinal" xMin="142" yMin="226" xMax="842" yMax="1588">
      <contour>
        <pt x="142" y="226" on="1"/>
        <pt x="142" y="1588" on="1"/>
        <pt x="842" y="1588" on="1"/>
        <pt x="842" y="226" on="1"/>
      </contour>
      <contour>
        <pt x="284" y="368" on="1"/>
        <pt x="700" y="368" on="1"/>
        <pt x="700" y="1447" on="1"/>
        <pt x="284" y="1447" on="1"/>
      </contour>
    </TTGlyph>
    <TTGlyph name="lamthreedotsaboveinitial" xMin="142" yMin="226" xMax="842" yMax="1588">
      <contour>
        <pt x="142" y="226" on="1"/>
        <pt x="142" y="1588" on="1"/>
        <pt x="842" y="1588" on="1"/>
        <pt x="842" y="226" on="1"/>
      </contour>
      <contour>
        <pt x="284" y="368" on="1"/>
        <pt x="700" y="368" on="1"/>
        <pt x="700" y="1447" on="1"/>
        <pt x="284" y="1447" on="1"/>
      </contour>
    </TTGlyph>
    <TTGlyph name="lamthreedotsabovemedial" xMin="142" yMin="226" xMax="842" yMax="1588">
      <contour>
        <pt x="142" y="226" on="1"/>
        <pt x="142" y="1588" on="1"/>
        <pt x="842" y="1588" on="1"/>
        <pt x="842" y="226" on="1"/>
      </contour>
      <contour>
        <pt x="284" y="368" on="1"/>
        <pt x="700" y="368" on="1"/>
        <pt x="700" y="1447" on="1"/>
        <pt x="284" y="1447" on="1"/>
      </contour>
    </TTGlyph>
    <TTGlyph name="less" xMin="142" yMin="226" xMax="842" yMax="1588">
      <contour>
        <pt x="142" y="226" on="1"/>
        <pt x="142" y="1588" on="1"/>
        <pt x="842" y="1588" on="1"/>
        <pt x="842" y="226" on="1"/>
      </contour>
      <contour>
        <pt x="284" y="368" on="1"/>
        <pt x="700" y="368" on="1"/>
        <pt x="700" y="1447" on="1"/>
        <pt x="284" y="1447" on="1"/>
      </contour>
    </TTGlyph>
    <TTGlyph name="meemmeemisolatedarabic" xMin="142" yMin="226" xMax="842" yMax="1588">
      <contour>
        <pt x="142" y="226" on="1"/>
        <pt x="142" y="1588" on="1"/>
        <pt x="842" y="1588" on="1"/>
        <pt x="842" y="226" on="1"/>
      </contour>
      <contour>
        <pt x="284" y="368" on="1"/>
        <pt x="700" y="368" on="1"/>
        <pt x="700" y="1447" on="1"/>
        <pt x="284" y="1447" on="1"/>
      </contour>
    </TTGlyph>
    <TTGlyph name="multiply" xMin="142" yMin="226" xMax="842" yMax="1588">
      <contour>
        <pt x="142" y="226" on="1"/>
        <pt x="142" y="1588" on="1"/>
        <pt x="842" y="1588" on="1"/>
        <pt x="842" y="226" on="1"/>
      </contour>
      <contour>
        <pt x="284" y="368" on="1"/>
        <pt x="700" y="368" on="1"/>
        <pt x="700" y="1447" on="1"/>
        <pt x="284" y="1447" on="1"/>
      </contour>
    </TTGlyph>
    <TTGlyph name="noonghunnafinalarabic" xMin="142" yMin="226" xMax="842" yMax="1588">
      <contour>
        <pt x="142" y="226" on="1"/>
        <pt x="142" y="1588" on="1"/>
        <pt x="842" y="1588" on="1"/>
        <pt x="842" y="226" on="1"/>
      </contour>
      <contour>
        <pt x="284" y="368" on="1"/>
        <pt x="700" y="368" on="1"/>
        <pt x="700" y="1447" on="1"/>
        <pt x="284" y="1447" on="1"/>
      </contour>
    </TTGlyph>
    <TTGlyph name="noonjeemisolatedarabic" xMin="142" yMin="226" xMax="842" yMax="1588">
      <contour>
        <pt x="142" y="226" on="1"/>
        <pt x="142" y="1588" on="1"/>
        <pt x="842" y="1588" on="1"/>
        <pt x="842" y="226" on="1"/>
      </contour>
      <contour>
        <pt x="284" y="368" on="1"/>
        <pt x="700" y="368" on="1"/>
        <pt x="700" y="1447" on="1"/>
        <pt x="284" y="1447" on="1"/>
      </contour>
    </TTGlyph>
    <TTGlyph name="noonmeemisolatedarabic" xMin="142" yMin="226" xMax="842" yMax="1588">
      <contour>
        <pt x="142" y="226" on="1"/>
        <pt x="142" y="1588" on="1"/>
        <pt x="842" y="1588" on="1"/>
        <pt x="842" y="226" on="1"/>
      </contour>
      <contour>
        <pt x="284" y="368" on="1"/>
        <pt x="700" y="368" on="1"/>
        <pt x="700" y="1447" on="1"/>
        <pt x="284" y="1447" on="1"/>
      </contour>
    </TTGlyph>
    <TTGlyph name="noonringfinal" xMin="142" yMin="226" xMax="842" yMax="1588">
      <contour>
        <pt x="142" y="226" on="1"/>
        <pt x="142" y="1588" on="1"/>
        <pt x="842" y="1588" on="1"/>
        <pt x="842" y="226" on="1"/>
      </contour>
      <contour>
        <pt x="284" y="368" on="1"/>
        <pt x="700" y="368" on="1"/>
        <pt x="700" y="1447" on="1"/>
        <pt x="284" y="1447" on="1"/>
      </contour>
    </TTGlyph>
    <TTGlyph name="noonringinitial" xMin="142" yMin="226" xMax="842" yMax="1588">
      <contour>
        <pt x="142" y="226" on="1"/>
        <pt x="142" y="1588" on="1"/>
        <pt x="842" y="1588" on="1"/>
        <pt x="842" y="226" on="1"/>
      </contour>
      <contour>
        <pt x="284" y="368" on="1"/>
        <pt x="700" y="368" on="1"/>
        <pt x="700" y="1447" on="1"/>
        <pt x="284" y="1447" on="1"/>
      </contour>
    </TTGlyph>
    <TTGlyph name="noonringmedial" xMin="142" yMin="226" xMax="842" yMax="1588">
      <contour>
        <pt x="142" y="226" on="1"/>
        <pt x="142" y="1588" on="1"/>
        <pt x="842" y="1588" on="1"/>
        <pt x="842" y="226" on="1"/>
      </contour>
      <contour>
        <pt x="284" y="368" on="1"/>
        <pt x="700" y="368" on="1"/>
        <pt x="700" y="1447" on="1"/>
        <pt x="284" y="1447" on="1"/>
      </contour>
    </TTGlyph>
    <TTGlyph name="numbersign" xMin="142" yMin="226" xMax="842" yMax="1588">
      <contour>
        <pt x="142" y="226" on="1"/>
        <pt x="142" y="1588" on="1"/>
        <pt x="842" y="1588" on="1"/>
        <pt x="842" y="226" on="1"/>
      </contour>
      <contour>
        <pt x="284" y="368" on="1"/>
        <pt x="700" y="368" on="1"/>
        <pt x="700" y="1447" on="1"/>
        <pt x="284" y="1447" on="1"/>
      </contour>
    </TTGlyph>
    <TTGlyph name="parenleft" xMin="142" yMin="226" xMax="842" yMax="1588">
      <contour>
        <pt x="142" y="226" on="1"/>
        <pt x="142" y="1588" on="1"/>
        <pt x="842" y="1588" on="1"/>
        <pt x="842" y="226" on="1"/>
      </contour>
      <contour>
        <pt x="284" y="368" on="1"/>
        <pt x="700" y="368" on="1"/>
        <pt x="700" y="1447" on="1"/>
        <pt x="284" y="1447" on="1"/>
      </contour>
    </TTGlyph>
    <TTGlyph name="parenright" xMin="142" yMin="226" xMax="842" yMax="1588">
      <contour>
        <pt x="142" y="226" on="1"/>
        <pt x="142" y="1588" on="1"/>
        <pt x="842" y="1588" on="1"/>
        <pt x="842" y="226" on="1"/>
      </contour>
      <contour>
        <pt x="284" y="368" on="1"/>
        <pt x="700" y="368" on="1"/>
        <pt x="700" y="1447" on="1"/>
        <pt x="284" y="1447" on="1"/>
      </contour>
    </TTGlyph>
    <TTGlyph name="pashtoefinal" xMin="142" yMin="226" xMax="842" yMax="1588">
      <contour>
        <pt x="142" y="226" on="1"/>
        <pt x="142" y="1588" on="1"/>
        <pt x="842" y="1588" on="1"/>
        <pt x="842" y="226" on="1"/>
      </contour>
      <contour>
        <pt x="284" y="368" on="1"/>
        <pt x="700" y="368" on="1"/>
        <pt x="700" y="1447" on="1"/>
        <pt x="284" y="1447" on="1"/>
      </contour>
    </TTGlyph>
    <TTGlyph name="pashtoeinitial" xMin="142" yMin="226" xMax="842" yMax="1588">
      <contour>
        <pt x="142" y="226" on="1"/>
        <pt x="142" y="1588" on="1"/>
        <pt x="842" y="1588" on="1"/>
        <pt x="842" y="226" on="1"/>
      </contour>
      <contour>
        <pt x="284" y="368" on="1"/>
        <pt x="700" y="368" on="1"/>
        <pt x="700" y="1447" on="1"/>
        <pt x="284" y="1447" on="1"/>
      </contour>
    </TTGlyph>
    <TTGlyph name="pashtoemedial" xMin="142" yMin="226" xMax="842" yMax="1588">
      <contour>
        <pt x="142" y="226" on="1"/>
        <pt x="142" y="1588" on="1"/>
        <pt x="842" y="1588" on="1"/>
        <pt x="842" y="226" on="1"/>
      </contour>
      <contour>
        <pt x="284" y="368" on="1"/>
        <pt x="700" y="368" on="1"/>
        <pt x="700" y="1447" on="1"/>
        <pt x="284" y="1447" on="1"/>
      </contour>
    </TTGlyph>
    <TTGlyph name="pehfinalarabic" xMin="142" yMin="226" xMax="842" yMax="1588">
      <contour>
        <pt x="142" y="226" on="1"/>
        <pt x="142" y="1588" on="1"/>
        <pt x="842" y="1588" on="1"/>
        <pt x="842" y="226" on="1"/>
      </contour>
      <contour>
        <pt x="284" y="368" on="1"/>
        <pt x="700" y="368" on="1"/>
        <pt x="700" y="1447" on="1"/>
        <pt x="284" y="1447" on="1"/>
      </contour>
    </TTGlyph>
    <TTGlyph name="pehinitialarabic" xMin="142" yMin="226" xMax="842" yMax="1588">
      <contour>
        <pt x="142" y="226" on="1"/>
        <pt x="142" y="1588" on="1"/>
        <pt x="842" y="1588" on="1"/>
        <pt x="842" y="226" on="1"/>
      </contour>
      <contour>
        <pt x="284" y="368" on="1"/>
        <pt x="700" y="368" on="1"/>
        <pt x="700" y="1447" on="1"/>
        <pt x="284" y="1447" on="1"/>
      </contour>
    </TTGlyph>
    <TTGlyph name="pehmedialarabic" xMin="142" yMin="226" xMax="842" yMax="1588">
      <contour>
        <pt x="142" y="226" on="1"/>
        <pt x="142" y="1588" on="1"/>
        <pt x="842" y="1588" on="1"/>
        <pt x="842" y="226" on="1"/>
      </contour>
      <contour>
        <pt x="284" y="368" on="1"/>
        <pt x="700" y="368" on="1"/>
        <pt x="700" y="1447" on="1"/>
        <pt x="284" y="1447" on="1"/>
      </contour>
    </TTGlyph>
    <TTGlyph name="percent" xMin="142" yMin="226" xMax="842" yMax="1588">
      <contour>
        <pt x="142" y="226" on="1"/>
        <pt x="142" y="1588" on="1"/>
        <pt x="842" y="1588" on="1"/>
        <pt x="842" y="226" on="1"/>
      </contour>
      <contour>
        <pt x="284" y="368" on="1"/>
        <pt x="700" y="368" on="1"/>
        <pt x="700" y="1447" on="1"/>
        <pt x="284" y="1447" on="1"/>
      </contour>
    </TTGlyph>
    <TTGlyph name="period" xMin="142" yMin="226" xMax="842" yMax="1588">
      <contour>
        <pt x="142" y="226" on="1"/>
        <pt x="142" y="1588" on="1"/>
        <pt x="842" y="1588" on="1"/>
        <pt x="842" y="226" on="1"/>
      </contour>
      <contour>
        <pt x="284" y="368" on="1"/>
        <pt x="700" y="368" on="1"/>
        <pt x="700" y="1447" on="1"/>
        <pt x="284" y="1447" on="1"/>
      </contour>
    </TTGlyph>
    <TTGlyph name="plus" xMin="142" yMin="226" xMax="842" yMax="1588">
      <contour>
        <pt x="142" y="226" on="1"/>
        <pt x="142" y="1588" on="1"/>
        <pt x="842" y="1588" on="1"/>
        <pt x="842" y="226" on="1"/>
      </contour>
      <contour>
        <pt x="284" y="368" on="1"/>
        <pt x="700" y="368" on="1"/>
        <pt x="700" y="1447" on="1"/>
        <pt x="284" y="1447" on="1"/>
      </contour>
    </TTGlyph>
    <TTGlyph name="quotedbl" xMin="142" yMin="226" xMax="842" yMax="1588">
      <contour>
        <pt x="142" y="226" on="1"/>
        <pt x="142" y="1588" on="1"/>
        <pt x="842" y="1588" on="1"/>
        <pt x="842" y="226" on="1"/>
      </contour>
      <contour>
        <pt x="284" y="368" on="1"/>
        <pt x="700" y="368" on="1"/>
        <pt x="700" y="1447" on="1"/>
        <pt x="284" y="1447" on="1"/>
      </contour>
    </TTGlyph>
    <TTGlyph name="quotesingle" xMin="142" yMin="226" xMax="842" yMax="1588">
      <contour>
        <pt x="142" y="226" on="1"/>
        <pt x="142" y="1588" on="1"/>
        <pt x="842" y="1588" on="1"/>
        <pt x="842" y="226" on="1"/>
      </contour>
      <contour>
        <pt x="284" y="368" on="1"/>
        <pt x="700" y="368" on="1"/>
        <pt x="700" y="1447" on="1"/>
        <pt x="284" y="1447" on="1"/>
      </contour>
    </TTGlyph>
    <TTGlyph name="rehdotbelowdotabovefinal" xMin="142" yMin="226" xMax="842" yMax="1588">
      <contour>
        <pt x="142" y="226" on="1"/>
        <pt x="142" y="1588" on="1"/>
        <pt x="842" y="1588" on="1"/>
        <pt x="842" y="226" on="1"/>
      </contour>
      <contour>
        <pt x="284" y="368" on="1"/>
        <pt x="700" y="368" on="1"/>
        <pt x="700" y="1447" on="1"/>
        <pt x="284" y="1447" on="1"/>
      </contour>
    </TTGlyph>
    <TTGlyph name="rehringfinal" xMin="142" yMin="226" xMax="842" yMax="1588">
      <contour>
        <pt x="142" y="226" on="1"/>
        <pt x="142" y="1588" on="1"/>
        <pt x="842" y="1588" on="1"/>
        <pt x="842" y="226" on="1"/>
      </contour>
      <contour>
        <pt x="284" y="368" on="1"/>
        <pt x="700" y="368" on="1"/>
        <pt x="700" y="1447" on="1"/>
        <pt x="284" y="1447" on="1"/>
      </contour>
    </TTGlyph>
    <TTGlyph name="rrehfinalarabic" xMin="142" yMin="226" xMax="842" yMax="1588">
      <contour>
        <pt x="142" y="226" on="1"/>
        <pt x="142" y="1588" on="1"/>
        <pt x="842" y="1588" on="1"/>
        <pt x="842" y="226" on="1"/>
      </contour>
      <contour>
        <pt x="284" y="368" on="1"/>
        <pt x="700" y="368" on="1"/>
        <pt x="700" y="1447" on="1"/>
        <pt x="284" y="1447" on="1"/>
      </contour>
    </TTGlyph>
    <TTGlyph name="seendotbelowdotabovefinal" xMin="142" yMin="226" xMax="842" yMax="1588">
      <contour>
        <pt x="142" y="226" on="1"/>
        <pt x="142" y="1588" on="1"/>
        <pt x="842" y="1588" on="1"/>
        <pt x="842" y="226" on="1"/>
      </contour>
      <contour>
        <pt x="284" y="368" on="1"/>
        <pt x="700" y="368" on="1"/>
        <pt x="700" y="1447" on="1"/>
        <pt x="284" y="1447" on="1"/>
      </contour>
    </TTGlyph>
    <TTGlyph name="seendotbelowdotaboveinitial" xMin="142" yMin="226" xMax="842" yMax="1588">
      <contour>
        <pt x="142" y="226" on="1"/>
        <pt x="142" y="1588" on="1"/>
        <pt x="842" y="1588" on="1"/>
        <pt x="842" y="226" on="1"/>
      </contour>
      <contour>
        <pt x="284" y="368" on="1"/>
        <pt x="700" y="368" on="1"/>
        <pt x="700" y="1447" on="1"/>
        <pt x="284" y="1447" on="1"/>
      </contour>
    </TTGlyph>
    <TTGlyph name="seendotbelowdotabovemedial" xMin="142" yMin="226" xMax="842" yMax="1588">
      <contour>
        <pt x="142" y="226" on="1"/>
        <pt x="142" y="1588" on="1"/>
        <pt x="842" y="1588" on="1"/>
        <pt x="842" y="226" on="1"/>
      </contour>
      <contour>
        <pt x="284" y="368" on="1"/>
        <pt x="700" y="368" on="1"/>
        <pt x="700" y="1447" on="1"/>
        <pt x="284" y="1447" on="1"/>
      </contour>
    </TTGlyph>
    <TTGlyph name="shaddadammaarabic" xMin="142" yMin="226" xMax="842" yMax="1588">
      <contour>
        <pt x="142" y="226" on="1"/>
        <pt x="142" y="1588" on="1"/>
        <pt x="842" y="1588" on="1"/>
        <pt x="842" y="226" on="1"/>
      </contour>
      <contour>
        <pt x="284" y="368" on="1"/>
        <pt x="700" y="368" on="1"/>
        <pt x="700" y="1447" on="1"/>
        <pt x="284" y="1447" on="1"/>
      </contour>
    </TTGlyph>
    <TTGlyph name="shaddadammatanarabic" xMin="142" yMin="226" xMax="842" yMax="1588">
      <contour>
        <pt x="142" y="226" on="1"/>
        <pt x="142" y="1588" on="1"/>
        <pt x="842" y="1588" on="1"/>
        <pt x="842" y="226" on="1"/>
      </contour>
      <contour>
        <pt x="284" y="368" on="1"/>
        <pt x="700" y="368" on="1"/>
        <pt x="700" y="1447" on="1"/>
        <pt x="284" y="1447" on="1"/>
      </contour>
    </TTGlyph>
    <TTGlyph name="shaddafathaarabic" xMin="142" yMin="226" xMax="842" yMax="1588">
      <contour>
        <pt x="142" y="226" on="1"/>
        <pt x="142" y="1588" on="1"/>
        <pt x="842" y="1588" on="1"/>
        <pt x="842" y="226" on="1"/>
      </contour>
      <contour>
        <pt x="284" y="368" on="1"/>
        <pt x="700" y="368" on="1"/>
        <pt x="700" y="1447" on="1"/>
        <pt x="284" y="1447" on="1"/>
      </contour>
    </TTGlyph>
    <TTGlyph name="shaddakasraarabic" xMin="142" yMin="226" xMax="842" yMax="1588">
      <contour>
        <pt x="142" y="226" on="1"/>
        <pt x="142" y="1588" on="1"/>
        <pt x="842" y="1588" on="1"/>
        <pt x="842" y="226" on="1"/>
      </contour>
      <contour>
        <pt x="284" y="368" on="1"/>
        <pt x="700" y="368" on="1"/>
        <pt x="700" y="1447" on="1"/>
        <pt x="284" y="1447" on="1"/>
      </contour>
    </TTGlyph>
    <TTGlyph name="shaddakasratanarabic" xMin="142" yMin="226" xMax="842" yMax="1588">
      <contour>
        <pt x="142" y="226" on="1"/>
        <pt x="142" y="1588" on="1"/>
        <pt x="842" y="1588" on="1"/>
        <pt x="842" y="226" on="1"/>
      </contour>
      <contour>
        <pt x="284" y="368" on="1"/>
        <pt x="700" y="368" on="1"/>
        <pt x="700" y="1447" on="1"/>
        <pt x="284" y="1447" on="1"/>
      </contour>
    </TTGlyph>
    <TTGlyph name="slash" xMin="142" yMin="226" xMax="842" yMax="1588">
      <contour>
        <pt x="142" y="226" on="1"/>
        <pt x="142" y="1588" on="1"/>
        <pt x="842" y="1588" on="1"/>
        <pt x="842" y="226" on="1"/>
      </contour>
      <contour>
        <pt x="284" y="368" on="1"/>
        <pt x="700" y="368" on="1"/>
        <pt x="700" y="1447" on="1"/>
        <pt x="284" y="1447" on="1"/>
      </contour>
    </TTGlyph>
    <TTGlyph name="space" xMin="142" yMin="226" xMax="842" yMax="1588">
      <contour>
        <pt x="142" y="226" on="1"/>
        <pt x="142" y="1588" on="1"/>
        <pt x="842" y="1588" on="1"/>
        <pt x="842" y="226" on="1"/>
      </contour>
      <contour>
        <pt x="284" y="368" on="1"/>
        <pt x="700" y="368" on="1"/>
        <pt x="700" y="1447" on="1"/>
        <pt x="284" y="1447" on="1"/>
      </contour>
    </TTGlyph>
    <TTGlyph name="tchehfinalarabic" xMin="142" yMin="226" xMax="842" yMax="1588">
      <contour>
        <pt x="142" y="226" on="1"/>
        <pt x="142" y="1588" on="1"/>
        <pt x="842" y="1588" on="1"/>
        <pt x="842" y="226" on="1"/>
      </contour>
      <contour>
        <pt x="284" y="368" on="1"/>
        <pt x="700" y="368" on="1"/>
        <pt x="700" y="1447" on="1"/>
        <pt x="284" y="1447" on="1"/>
      </contour>
    </TTGlyph>
    <TTGlyph name="tchehinitialarabic" xMin="142" yMin="226" xMax="842" yMax="1588">
      <contour>
        <pt x="142" y="226" on="1"/>
        <pt x="142" y="1588" on="1"/>
        <pt x="842" y="1588" on="1"/>
        <pt x="842" y="226" on="1"/>
      </contour>
      <contour>
        <pt x="284" y="368" on="1"/>
        <pt x="700" y="368" on="1"/>
        <pt x="700" y="1447" on="1"/>
        <pt x="284" y="1447" on="1"/>
      </contour>
    </TTGlyph>
    <TTGlyph name="tchehmedialarabic" xMin="142" yMin="226" xMax="842" yMax="1588">
      <contour>
        <pt x="142" y="226" on="1"/>
        <pt x="142" y="1588" on="1"/>
        <pt x="842" y="1588" on="1"/>
        <pt x="842" y="226" on="1"/>
      </contour>
      <contour>
        <pt x="284" y="368" on="1"/>
        <pt x="700" y="368" on="1"/>
        <pt x="700" y="1447" on="1"/>
        <pt x="284" y="1447" on="1"/>
      </contour>
    </TTGlyph>
    <TTGlyph name="tehhahisolatedarabic" xMin="142" yMin="226" xMax="842" yMax="1588">
      <contour>
        <pt x="142" y="226" on="1"/>
        <pt x="142" y="1588" on="1"/>
        <pt x="842" y="1588" on="1"/>
        <pt x="842" y="226" on="1"/>
      </contour>
      <contour>
        <pt x="284" y="368" on="1"/>
        <pt x="700" y="368" on="1"/>
        <pt x="700" y="1447" on="1"/>
        <pt x="284" y="1447" on="1"/>
      </contour>
    </TTGlyph>
    <TTGlyph name="tehjeemisolatedarabic" xMin="142" yMin="226" xMax="842" yMax="1588">
      <contour>
        <pt x="142" y="226" on="1"/>
        <pt x="142" y="1588" on="1"/>
        <pt x="842" y="1588" on="1"/>
        <pt x="842" y="226" on="1"/>
      </contour>
      <contour>
        <pt x="284" y="368" on="1"/>
        <pt x="700" y="368" on="1"/>
        <pt x="700" y="1447" on="1"/>
        <pt x="284" y="1447" on="1"/>
      </contour>
    </TTGlyph>
    <TTGlyph name="tehmeemisolatedarabic" xMin="142" yMin="226" xMax="842" yMax="1588">
      <contour>
        <pt x="142" y="226" on="1"/>
        <pt x="142" y="1588" on="1"/>
        <pt x="842" y="1588" on="1"/>
        <pt x="842" y="226" on="1"/>
      </contour>
      <contour>
        <pt x="284" y="368" on="1"/>
        <pt x="700" y="368" on="1"/>
        <pt x="700" y="1447" on="1"/>
        <pt x="284" y="1447" on="1"/>
      </contour>
    </TTGlyph>
    <TTGlyph name="tehnoonfinalarabic" xMin="142" yMin="226" xMax="842" yMax="1588">
      <contour>
        <pt x="142" y="226" on="1"/>
        <pt x="142" y="1588" on="1"/>
        <pt x="842" y="1588" on="1"/>
        <pt x="842" y="226" on="1"/>
      </contour>
      <contour>
        <pt x="284" y="368" on="1"/>
        <pt x="700" y="368" on="1"/>
        <pt x="700" y="1447" on="1"/>
        <pt x="284" y="1447" on="1"/>
      </contour>
    </TTGlyph>
    <TTGlyph name="tehringfinal" xMin="142" yMin="226" xMax="842" yMax="1588">
      <contour>
        <pt x="142" y="226" on="1"/>
        <pt x="142" y="1588" on="1"/>
        <pt x="842" y="1588" on="1"/>
        <pt x="842" y="226" on="1"/>
      </contour>
      <contour>
        <pt x="284" y="368" on="1"/>
        <pt x="700" y="368" on="1"/>
        <pt x="700" y="1447" on="1"/>
        <pt x="284" y="1447" on="1"/>
      </contour>
    </TTGlyph>
    <TTGlyph name="tehringinitial" xMin="142" yMin="226" xMax="842" yMax="1588">
      <contour>
        <pt x="142" y="226" on="1"/>
        <pt x="142" y="1588" on="1"/>
        <pt x="842" y="1588" on="1"/>
        <pt x="842" y="226" on="1"/>
      </contour>
      <contour>
        <pt x="284" y="368" on="1"/>
        <pt x="700" y="368" on="1"/>
        <pt x="700" y="1447" on="1"/>
        <pt x="284" y="1447" on="1"/>
      </contour>
    </TTGlyph>
    <TTGlyph name="tehringmedial" xMin="142" yMin="226" xMax="842" yMax="1588">
      <contour>
        <pt x="142" y="226" on="1"/>
        <pt x="142" y="1588" on="1"/>
        <pt x="842" y="1588" on="1"/>
        <pt x="842" y="226" on="1"/>
      </contour>
      <contour>
        <pt x="284" y="368" on="1"/>
        <pt x="700" y="368" on="1"/>
        <pt x="700" y="1447" on="1"/>
        <pt x="284" y="1447" on="1"/>
      </contour>
    </TTGlyph>
    <TTGlyph name="ttehfinalarabic" xMin="142" yMin="226" xMax="842" yMax="1588">
      <contour>
        <pt x="142" y="226" on="1"/>
        <pt x="142" y="1588" on="1"/>
        <pt x="842" y="1588" on="1"/>
        <pt x="842" y="226" on="1"/>
      </contour>
      <contour>
        <pt x="284" y="368" on="1"/>
        <pt x="700" y="368" on="1"/>
        <pt x="700" y="1447" on="1"/>
        <pt x="284" y="1447" on="1"/>
      </contour>
    </TTGlyph>
    <TTGlyph name="ttehinitialarabic" xMin="142" yMin="226" xMax="842" yMax="1588">
      <contour>
        <pt x="142" y="226" on="1"/>
        <pt x="142" y="1588" on="1"/>
        <pt x="842" y="1588" on="1"/>
        <pt x="842" y="226" on="1"/>
      </contour>
      <contour>
        <pt x="284" y="368" on="1"/>
        <pt x="700" y="368" on="1"/>
        <pt x="700" y="1447" on="1"/>
        <pt x="284" y="1447" on="1"/>
      </contour>
    </TTGlyph>
    <TTGlyph name="ttehmedialarabic" xMin="142" yMin="226" xMax="842" yMax="1588">
      <contour>
        <pt x="142" y="226" on="1"/>
        <pt x="142" y="1588" on="1"/>
        <pt x="842" y="1588" on="1"/>
        <pt x="842" y="226" on="1"/>
      </contour>
      <contour>
        <pt x="284" y="368" on="1"/>
        <pt x="700" y="368" on="1"/>
        <pt x="700" y="1447" on="1"/>
        <pt x="284" y="1447" on="1"/>
      </contour>
    </TTGlyph>
    <TTGlyph name="uni000D" xMin="142" yMin="226" xMax="842" yMax="1588">
      <contour>
        <pt x="142" y="226" on="1"/>
        <pt x="142" y="1588" on="1"/>
        <pt x="842" y="1588" on="1"/>
        <pt x="842" y="226" on="1"/>
      </contour>
      <contour>
        <pt x="284" y="368" on="1"/>
        <pt x="700" y="368" on="1"/>
        <pt x="700" y="1447" on="1"/>
        <pt x="284" y="1447" on="1"/>
      </contour>
    </TTGlyph>
    <TTGlyph name="uni00A0" xMin="142" yMin="226" xMax="842" yMax="1588">
      <contour>
        <pt x="142" y="226" on="1"/>
        <pt x="142" y="1588" on="1"/>
        <pt x="842" y="1588" on="1"/>
        <pt x="842" y="226" on="1"/>
      </contour>
      <contour>
        <pt x="284" y="368" on="1"/>
        <pt x="700" y="368" on="1"/>
        <pt x="700" y="1447" on="1"/>
        <pt x="284" y="1447" on="1"/>
      </contour>
    </TTGlyph>
    <TTGlyph name="uni00AD" xMin="142" yMin="226" xMax="842" yMax="1588">
      <contour>
        <pt x="142" y="226" on="1"/>
        <pt x="142" y="1588" on="1"/>
        <pt x="842" y="1588" on="1"/>
        <pt x="842" y="226" on="1"/>
      </contour>
      <contour>
        <pt x="284" y="368" on="1"/>
        <pt x="700" y="368" on="1"/>
        <pt x="700" y="1447" on="1"/>
        <pt x="284" y="1447" on="1"/>
      </contour>
    </TTGlyph>
    <TTGlyph name="uni0653" xMin="142" yMin="226" xMax="842" yMax="1588">
      <contour>
        <pt x="142" y="226" on="1"/>
        <pt x="142" y="1588" on="1"/>
        <pt x="842" y="1588" on="1"/>
        <pt x="842" y="226" on="1"/>
      </contour>
      <contour>
        <pt x="284" y="368" on="1"/>
        <pt x="700" y="368" on="1"/>
        <pt x="700" y="1447" on="1"/>
        <pt x="284" y="1447" on="1"/>
      </contour>
    </TTGlyph>
    <TTGlyph name="uni0654" xMin="142" yMin="226" xMax="842" yMax="1588">
      <contour>
        <pt x="142" y="226" on="1"/>
        <pt x="142" y="1588" on="1"/>
        <pt x="842" y="1588" on="1"/>
        <pt x="842" y="226" on="1"/>
      </contour>
      <contour>
        <pt x="284" y="368" on="1"/>
        <pt x="700" y="368" on="1"/>
        <pt x="700" y="1447" on="1"/>
        <pt x="284" y="1447" on="1"/>
      </contour>
    </TTGlyph>
    <TTGlyph name="uni0655" xMin="142" yMin="226" xMax="842" yMax="1588">
      <contour>
        <pt x="142" y="226" on="1"/>
        <pt x="142" y="1588" on="1"/>
        <pt x="842" y="1588" on="1"/>
        <pt x="842" y="226" on="1"/>
      </contour>
      <contour>
        <pt x="284" y="368" on="1"/>
        <pt x="700" y="368" on="1"/>
        <pt x="700" y="1447" on="1"/>
        <pt x="284" y="1447" on="1"/>
      </contour>
    </TTGlyph>
    <TTGlyph name="uni066B" xMin="142" yMin="226" xMax="842" yMax="1588">
      <contour>
        <pt x="142" y="226" on="1"/>
        <pt x="142" y="1588" on="1"/>
        <pt x="842" y="1588" on="1"/>
        <pt x="842" y="226" on="1"/>
      </contour>
      <contour>
        <pt x="284" y="368" on="1"/>
        <pt x="700" y="368" on="1"/>
        <pt x="700" y="1447" on="1"/>
        <pt x="284" y="1447" on="1"/>
      </contour>
    </TTGlyph>
    <TTGlyph name="uni066C" xMin="142" yMin="226" xMax="842" yMax="1588">
      <contour>
        <pt x="142" y="226" on="1"/>
        <pt x="142" y="1588" on="1"/>
        <pt x="842" y="1588" on="1"/>
        <pt x="842" y="226" on="1"/>
      </contour>
      <contour>
        <pt x="284" y="368" on="1"/>
        <pt x="700" y="368" on="1"/>
        <pt x="700" y="1447" on="1"/>
        <pt x="284" y="1447" on="1"/>
      </contour>
    </TTGlyph>
    <TTGlyph name="uni0671" xMin="142" yMin="226" xMax="842" yMax="1588">
      <contour>
        <pt x="142" y="226" on="1"/>
        <pt x="142" y="1588" on="1"/>
        <pt x="842" y="1588" on="1"/>
        <pt x="842" y="226" on="1"/>
      </contour>
      <contour>
        <pt x="284" y="368" on="1"/>
        <pt x="700" y="368" on="1"/>
        <pt x="700" y="1447" on="1"/>
        <pt x="284" y="1447" on="1"/>
      </contour>
    </TTGlyph>
    <TTGlyph name="uni067C" xMin="142" yMin="226" xMax="842" yMax="1588">
      <contour>
        <pt x="142" y="226" on="1"/>
        <pt x="142" y="1588" on="1"/>
        <pt x="842" y="1588" on="1"/>
        <pt x="842" y="226" on="1"/>
      </contour>
      <contour>
        <pt x="284" y="368" on="1"/>
        <pt x="700" y="368" on="1"/>
        <pt x="700" y="1447" on="1"/>
        <pt x="284" y="1447" on="1"/>
      </contour>
    </TTGlyph>
    <TTGlyph name="uni0681" xMin="142" yMin="226" xMax="842" yMax="1588">
      <contour>
        <pt x="142" y="226" on="1"/>
        <pt x="142" y="1588" on="1"/>
        <pt x="842" y="1588" on="1"/>
        <pt x="842" y="226" on="1"/>
      </contour>
      <contour>
        <pt x="284" y="368" on="1"/>
        <pt x="700" y="368" on="1"/>
        <pt x="700" y="1447" on="1"/>
        <pt x="284" y="1447" on="1"/>
      </contour>
    </TTGlyph>
    <TTGlyph name="uni0685" xMin="142" yMin="226" xMax="842" yMax="1588">
      <contour>
        <pt x="142" y="226" on="1"/>
        <pt x="142" y="1588" on="1"/>
        <pt x="842" y="1588" on="1"/>
        <pt x="842" y="226" on="1"/>
      </contour>
      <contour>
        <pt x="284" y="368" on="1"/>
        <pt x="700" y="368" on="1"/>
        <pt x="700" y="1447" on="1"/>
        <pt x="284" y="1447" on="1"/>
      </contour>
    </TTGlyph>
    <TTGlyph name="uni0689" xMin="142" yMin="226" xMax="842" yMax="1588">
      <contour>
        <pt x="142" y="226" on="1"/>
        <pt x="142" y="1588" on="1"/>
        <pt x="842" y="1588" on="1"/>
        <pt x="842" y="226" on="1"/>
      </contour>
      <contour>
        <pt x="284" y="368" on="1"/>
        <pt x="700" y="368" on="1"/>
        <pt x="700" y="1447" on="1"/>
        <pt x="284" y="1447" on="1"/>
      </contour>
    </TTGlyph>
    <TTGlyph name="uni0693" xMin="142" yMin="226" xMax="842" yMax="1588">
      <contour>
        <pt x="142" y="226" on="1"/>
        <pt x="142" y="1588" on="1"/>
        <pt x="842" y="1588" on="1"/>
        <pt x="842" y="226" on="1"/>
      </contour>
      <contour>
        <pt x="284" y="368" on="1"/>
        <pt x="700" y="368" on="1"/>
        <pt x="700" y="1447" on="1"/>
        <pt x="284" y="1447" on="1"/>
      </contour>
    </TTGlyph>
    <TTGlyph name="uni0696" xMin="142" yMin="226" xMax="842" yMax="1588">
      <contour>
        <pt x="142" y="226" on="1"/>
        <pt x="142" y="1588" on="1"/>
        <pt x="842" y="1588" on="1"/>
        <pt x="842" y="226" on="1"/>
      </contour>
      <contour>
        <pt x="284" y="368" on="1"/>
        <pt x="700" y="368" on="1"/>
        <pt x="700" y="1447" on="1"/>
        <pt x="284" y="1447" on="1"/>
      </contour>
    </TTGlyph>
    <TTGlyph name="uni069A" xMin="142" yMin="226" xMax="842" yMax="1588">
      <contour>
        <pt x="142" y="226" on="1"/>
        <pt x="142" y="1588" on="1"/>
        <pt x="842" y="1588" on="1"/>
        <pt x="842" y="226" on="1"/>
      </contour>
      <contour>
        <pt x="284" y="368" on="1"/>
        <pt x="700" y="368" on="1"/>
        <pt x="700" y="1447" on="1"/>
        <pt x="284" y="1447" on="1"/>
      </contour>
    </TTGlyph>
    <TTGlyph name="uni06A9" xMin="142" yMin="226" xMax="842" yMax="1588">
      <contour>
        <pt x="142" y="226" on="1"/>
        <pt x="142" y="1588" on="1"/>
        <pt x="842" y="1588" on="1"/>
        <pt x="842" y="226" on="1"/>
      </contour>
      <contour>
        <pt x="284" y="368" on="1"/>
        <pt x="700" y="368" on="1"/>
        <pt x="700" y="1447" on="1"/>
        <pt x="284" y="1447" on="1"/>
      </contour>
    </TTGlyph>
    <TTGlyph name="uni06AB" xMin="142" yMin="226" xMax="842" yMax="1588">
      <contour>
        <pt x="142" y="226" on="1"/>
        <pt x="142" y="1588" on="1"/>
        <pt x="842" y="1588" on="1"/>
        <pt x="842" y="226" on="1"/>
      </contour>
      <contour>
        <pt x="284" y="368" on="1"/>
        <pt x="700" y="368" on="1"/>
        <pt x="700" y="1447" on="1"/>
        <pt x="284" y="1447" on="1"/>
      </contour>
    </TTGlyph>
    <TTGlyph name="uni06B7" xMin="142" yMin="226" xMax="842" yMax="1588">
      <contour>
        <pt x="142" y="226" on="1"/>
        <pt x="142" y="1588" on="1"/>
        <pt x="842" y="1588" on="1"/>
        <pt x="842" y="226" on="1"/>
      </contour>
      <contour>
        <pt x="284" y="368" on="1"/>
        <pt x="700" y="368" on="1"/>
        <pt x="700" y="1447" on="1"/>
        <pt x="284" y="1447" on="1"/>
      </contour>
    </TTGlyph>
    <TTGlyph name="uni06BC" xMin="142" yMin="226" xMax="842" yMax="1588">
      <contour>
        <pt x="142" y="226" on="1"/>
        <pt x="142" y="1588" on="1"/>
        <pt x="842" y="1588" on="1"/>
        <pt x="842" y="226" on="1"/>
      </contour>
      <contour>
        <pt x="284" y="368" on="1"/>
        <pt x="700" y="368" on="1"/>
        <pt x="700" y="1447" on="1"/>
        <pt x="284" y="1447" on="1"/>
      </contour>
    </TTGlyph>
    <TTGlyph name="uni06BE" xMin="142" yMin="226" xMax="842" yMax="1588">
      <contour>
        <pt x="142" y="226" on="1"/>
        <pt x="142" y="1588" on="1"/>
        <pt x="842" y="1588" on="1"/>
        <pt x="842" y="226" on="1"/>
      </contour>
      <contour>
        <pt x="284" y="368" on="1"/>
        <pt x="700" y="368" on="1"/>
        <pt x="700" y="1447" on="1"/>
        <pt x="284" y="1447" on="1"/>
      </contour>
    </TTGlyph>
    <TTGlyph name="uni06C2" xMin="142" yMin="226" xMax="842" yMax="1588">
      <contour>
        <pt x="142" y="226" on="1"/>
        <pt x="142" y="1588" on="1"/>
        <pt x="842" y="1588" on="1"/>
        <pt x="842" y="226" on="1"/>
      </contour>
      <contour>
        <pt x="284" y="368" on="1"/>
        <pt x="700" y="368" on="1"/>
        <pt x="700" y="1447" on="1"/>
        <pt x="284" y="1447" on="1"/>
      </contour>
    </TTGlyph>
    <TTGlyph name="uni06C7" xMin="142" yMin="226" xMax="842" yMax="1588">
      <contour>
        <pt x="142" y="226" on="1"/>
        <pt x="142" y="1588" on="1"/>
        <pt x="842" y="1588" on="1"/>
        <pt x="842" y="226" on="1"/>
      </contour>
      <contour>
        <pt x="284" y="368" on="1"/>
        <pt x="700" y="368" on="1"/>
        <pt x="700" y="1447" on="1"/>
        <pt x="284" y="1447" on="1"/>
      </contour>
    </TTGlyph>
    <TTGlyph name="uni06C9" xMin="142" yMin="226" xMax="842" yMax="1588">
      <contour>
        <pt x="142" y="226" on="1"/>
        <pt x="142" y="1588" on="1"/>
        <pt x="842" y="1588" on="1"/>
        <pt x="842" y="226" on="1"/>
      </contour>
      <contour>
        <pt x="284" y="368" on="1"/>
        <pt x="700" y="368" on="1"/>
        <pt x="700" y="1447" on="1"/>
        <pt x="284" y="1447" on="1"/>
      </contour>
    </TTGlyph>
    <TTGlyph name="uni06CC" xMin="142" yMin="226" xMax="842" yMax="1588">
      <contour>
        <pt x="142" y="226" on="1"/>
        <pt x="142" y="1588" on="1"/>
        <pt x="842" y="1588" on="1"/>
        <pt x="842" y="226" on="1"/>
      </contour>
      <contour>
        <pt x="284" y="368" on="1"/>
        <pt x="700" y="368" on="1"/>
        <pt x="700" y="1447" on="1"/>
        <pt x="284" y="1447" on="1"/>
      </contour>
    </TTGlyph>
    <TTGlyph name="uni06CD" xMin="142" yMin="226" xMax="842" yMax="1588">
      <contour>
        <pt x="142" y="226" on="1"/>
        <pt x="142" y="1588" on="1"/>
        <pt x="842" y="1588" on="1"/>
        <pt x="842" y="226" on="1"/>
      </contour>
      <contour>
        <pt x="284" y="368" on="1"/>
        <pt x="700" y="368" on="1"/>
        <pt x="700" y="1447" on="1"/>
        <pt x="284" y="1447" on="1"/>
      </contour>
    </TTGlyph>
    <TTGlyph name="uni06D0" xMin="142" yMin="226" xMax="842" yMax="1588">
      <contour>
        <pt x="142" y="226" on="1"/>
        <pt x="142" y="1588" on="1"/>
        <pt x="842" y="1588" on="1"/>
        <pt x="842" y="226" on="1"/>
      </contour>
      <contour>
        <pt x="284" y="368" on="1"/>
        <pt x="700" y="368" on="1"/>
        <pt x="700" y="1447" on="1"/>
        <pt x="284" y="1447" on="1"/>
      </contour>
    </TTGlyph>
    <TTGlyph name="uni06D1" xMin="142" yMin="226" xMax="842" yMax="1588">
      <contour>
        <pt x="142" y="226" on="1"/>
        <pt x="142" y="1588" on="1"/>
        <pt x="842" y="1588" on="1"/>
        <pt x="842" y="226" on="1"/>
      </contour>
      <contour>
        <pt x="284" y="368" on="1"/>
        <pt x="700" y="368" on="1"/>
        <pt x="700" y="1447" on="1"/>
        <pt x="284" y="1447" on="1"/>
      </contour>
    </TTGlyph>
    <TTGlyph name="uni06D3" xMin="142" yMin="226" xMax="842" yMax="1588">
      <contour>
        <pt x="142" y="226" on="1"/>
        <pt x="142" y="1588" on="1"/>
        <pt x="842" y="1588" on="1"/>
        <pt x="842" y="226" on="1"/>
      </contour>
      <contour>
        <pt x="284" y="368" on="1"/>
        <pt x="700" y="368" on="1"/>
        <pt x="700" y="1447" on="1"/>
        <pt x="284" y="1447" on="1"/>
      </contour>
    </TTGlyph>
    <TTGlyph name="uni06D4" xMin="142" yMin="226" xMax="842" yMax="1588">
      <contour>
        <pt x="142" y="226" on="1"/>
        <pt x="142" y="1588" on="1"/>
        <pt x="842" y="1588" on="1"/>
        <pt x="842" y="226" on="1"/>
      </contour>
      <contour>
        <pt x="284" y="368" on="1"/>
        <pt x="700" y="368" on="1"/>
        <pt x="700" y="1447" on="1"/>
        <pt x="284" y="1447" on="1"/>
      </contour>
    </TTGlyph>
    <TTGlyph name="uni06F0" xMin="142" yMin="226" xMax="842" yMax="1588">
      <contour>
        <pt x="142" y="226" on="1"/>
        <pt x="142" y="1588" on="1"/>
        <pt x="842" y="1588" on="1"/>
        <pt x="842" y="226" on="1"/>
      </contour>
      <contour>
        <pt x="284" y="368" on="1"/>
        <pt x="700" y="368" on="1"/>
        <pt x="700" y="1447" on="1"/>
        <pt x="284" y="1447" on="1"/>
      </contour>
    </TTGlyph>
    <TTGlyph name="uni06F1" xMin="142" yMin="226" xMax="842" yMax="1588">
      <contour>
        <pt x="142" y="226" on="1"/>
        <pt x="142" y="1588" on="1"/>
        <pt x="842" y="1588" on="1"/>
        <pt x="842" y="226" on="1"/>
      </contour>
      <contour>
        <pt x="284" y="368" on="1"/>
        <pt x="700" y="368" on="1"/>
        <pt x="700" y="1447" on="1"/>
        <pt x="284" y="1447" on="1"/>
      </contour>
    </TTGlyph>
    <TTGlyph name="uni06F2" xMin="142" yMin="226" xMax="842" yMax="1588">
      <contour>
        <pt x="142" y="226" on="1"/>
        <pt x="142" y="1588" on="1"/>
        <pt x="842" y="1588" on="1"/>
        <pt x="842" y="226" on="1"/>
      </contour>
      <contour>
        <pt x="284" y="368" on="1"/>
        <pt x="700" y="368" on="1"/>
        <pt x="700" y="1447" on="1"/>
        <pt x="284" y="1447" on="1"/>
      </contour>
    </TTGlyph>
    <TTGlyph name="uni06F3" xMin="142" yMin="226" xMax="842" yMax="1588">
      <contour>
        <pt x="142" y="226" on="1"/>
        <pt x="142" y="1588" on="1"/>
        <pt x="842" y="1588" on="1"/>
        <pt x="842" y="226" on="1"/>
      </contour>
      <contour>
        <pt x="284" y="368" on="1"/>
        <pt x="700" y="368" on="1"/>
        <pt x="700" y="1447" on="1"/>
        <pt x="284" y="1447" on="1"/>
      </contour>
    </TTGlyph>
    <TTGlyph name="uni06F4" xMin="142" yMin="226" xMax="842" yMax="1588">
      <contour>
        <pt x="142" y="226" on="1"/>
        <pt x="142" y="1588" on="1"/>
        <pt x="842" y="1588" on="1"/>
        <pt x="842" y="226" on="1"/>
      </contour>
      <contour>
        <pt x="284" y="368" on="1"/>
        <pt x="700" y="368" on="1"/>
        <pt x="700" y="1447" on="1"/>
        <pt x="284" y="1447" on="1"/>
      </contour>
    </TTGlyph>
    <TTGlyph name="uni06F5" xMin="142" yMin="226" xMax="842" yMax="1588">
      <contour>
        <pt x="142" y="226" on="1"/>
        <pt x="142" y="1588" on="1"/>
        <pt x="842" y="1588" on="1"/>
        <pt x="842" y="226" on="1"/>
      </contour>
      <contour>
        <pt x="284" y="368" on="1"/>
        <pt x="700" y="368" on="1"/>
        <pt x="700" y="1447" on="1"/>
        <pt x="284" y="1447" on="1"/>
      </contour>
    </TTGlyph>
    <TTGlyph name="uni06F6" xMin="142" yMin="226" xMax="842" yMax="1588">
      <contour>
        <pt x="142" y="226" on="1"/>
        <pt x="142" y="1588" on="1"/>
        <pt x="842" y="1588" on="1"/>
        <pt x="842" y="226" on="1"/>
      </contour>
      <contour>
        <pt x="284" y="368" on="1"/>
        <pt x="700" y="368" on="1"/>
        <pt x="700" y="1447" on="1"/>
        <pt x="284" y="1447" on="1"/>
      </contour>
    </TTGlyph>
    <TTGlyph name="uni06F7" xMin="142" yMin="226" xMax="842" yMax="1588">
      <contour>
        <pt x="142" y="226" on="1"/>
        <pt x="142" y="1588" on="1"/>
        <pt x="842" y="1588" on="1"/>
        <pt x="842" y="226" on="1"/>
      </contour>
      <contour>
        <pt x="284" y="368" on="1"/>
        <pt x="700" y="368" on="1"/>
        <pt x="700" y="1447" on="1"/>
        <pt x="284" y="1447" on="1"/>
      </contour>
    </TTGlyph>
    <TTGlyph name="uni06F8" xMin="142" yMin="226" xMax="842" yMax="1588">
      <contour>
        <pt x="142" y="226" on="1"/>
        <pt x="142" y="1588" on="1"/>
        <pt x="842" y="1588" on="1"/>
        <pt x="842" y="226" on="1"/>
      </contour>
      <contour>
        <pt x="284" y="368" on="1"/>
        <pt x="700" y="368" on="1"/>
        <pt x="700" y="1447" on="1"/>
        <pt x="284" y="1447" on="1"/>
      </contour>
    </TTGlyph>
    <TTGlyph name="uni06F9" xMin="142" yMin="226" xMax="842" yMax="1588">
      <contour>
        <pt x="142" y="226" on="1"/>
        <pt x="142" y="1588" on="1"/>
        <pt x="842" y="1588" on="1"/>
        <pt x="842" y="226" on="1"/>
      </contour>
      <contour>
        <pt x="284" y="368" on="1"/>
        <pt x="700" y="368" on="1"/>
        <pt x="700" y="1447" on="1"/>
        <pt x="284" y="1447" on="1"/>
      </contour>
    </TTGlyph>
    <TTGlyph name="uni2010" xMin="266" yMin="-748" xMax="4136" yMax="1549">
      <contour>
        <pt x="4074" y="1221" on="1"/>
        <pt x="4074" y="1189" on="0"/>
        <pt x="4030" y="1144" on="1"/>
        <pt x="4023" y="1147" on="0"/>
        <pt x="3979" y="1167" on="1"/>
        <pt x="3941" y="1185" on="0"/>
        <pt x="3926" y="1185" on="1"/>
        <pt x="3914" y="1185" on="0"/>
        <pt x="3862" y="1143" on="1"/>
        <pt x="3800" y="1090" on="0"/>
        <pt x="3775" y="1076" on="1"/>
        <pt x="3698" y="1039" on="0"/>
        <pt x="3538" y="960" on="1"/>
        <pt x="3471" y="974" on="1"/>
        <pt x="3503" y="1014" on="0"/>
        <pt x="3620" y="1085" on="1"/>
        <pt x="3742" y="1158" on="0"/>
        <pt x="3808" y="1232" on="1"/>
        <pt x="3792" y="1248" on="0"/>
        <pt x="3762" y="1279" on="1"/>
        <pt x="3747" y="1294" on="0"/>
        <pt x="3747" y="1339" on="1"/>
        <pt x="3747" y="1383" on="0"/>
        <pt x="3808" y="1462" on="1"/>
        <pt x="3876" y="1549" on="0"/>
        <pt x="3933" y="1549" on="1"/>
        <pt x="3947" y="1549" on="0"/>
        <pt x="3960" y="1543" on="1"/>
        <pt x="4011" y="1486" on="0"/>
        <pt x="4011" y="1420" on="1"/>
        <pt x="4011" y="1432" on="0"/>
        <pt x="3995" y="1304" on="1"/>
        <pt x="4002" y="1293" on="0"/>
        <pt x="4041" y="1262" on="1"/>
        <pt x="4074" y="1235" on="0"/>
      </contour>
      <contour>
        <pt x="3471" y="1283" on="1"/>
        <pt x="3471" y="1209" on="0"/>
        <pt x="3314" y="1140" on="1"/>
        <pt x="3186" y="1083" on="0"/>
        <pt x="3132" y="1083" on="1"/>
        <pt x="3095" y="1083" on="0"/>
        <pt x="3072" y="1095" on="1"/>
        <pt x="3069" y="1121" on="0"/>
        <pt x="3136" y="1155" on="1"/>
        <pt x="3242" y="1210" on="0"/>
        <pt x="3245" y="1212" on="1"/>
        <pt x="3235" y="1237" on="0"/>
        <pt x="3184" y="1237" on="1"/>
        <pt x="3166" y="1237" on="0"/>
        <pt x="3089" y="1199" on="0"/>
        <pt x="3071" y="1199" on="1"/>
        <pt x="3060" y="1199" on="0"/>
        <pt x="3051" y="1204" on="1"/>
        <pt x="3077" y="1257" on="0"/>
        <pt x="3082" y="1264" on="1"/>
        <pt x="3103" y="1300" on="0"/>
        <pt x="3125" y="1314" on="1"/>
        <pt x="3196" y="1360" on="0"/>
        <pt x="3235" y="1360" on="1"/>
        <pt x="3248" y="1360" on="0"/>
        <pt x="3330" y="1342" on="1"/>
        <pt x="3424" y="1322" on="0"/>
        <pt x="3459" y="1316" on="1"/>
        <pt x="3459" y="1314" on="0"/>
        <pt x="3471" y="1298" on="0"/>
      </contour>
      <contour>
        <pt x="2089" y="971" on="1"/>
        <pt x="2089" y="942" on="0"/>
        <pt x="2066" y="923" on="1"/>
        <pt x="2048" y="909" on="0"/>
        <pt x="2032" y="909" on="1"/>
        <pt x="2021" y="909" on="0"/>
        <pt x="1943" y="960" on="0"/>
        <pt x="1930" y="960" on="1"/>
        <pt x="1916" y="960" on="0"/>
        <pt x="1871" y="922" on="1"/>
        <pt x="1807" y="867" on="0"/>
        <pt x="1800" y="861" on="1"/>
        <pt x="1750" y="827" on="0"/>
        <pt x="1664" y="785" on="1"/>
        <pt x="1582" y="745" on="0"/>
        <pt x="1561" y="745" on="1"/>
        <pt x="1530" y="745" on="0"/>
        <pt x="1515" y="760" on="1"/>
        <pt x="1554" y="811" on="0"/>
        <pt x="1659" y="883" on="1"/>
        <pt x="1814" y="991" on="0"/>
        <pt x="1822" y="997" on="1"/>
        <pt x="1819" y="1004" on="0"/>
        <pt x="1782" y="1065" on="1"/>
        <pt x="1750" y="1113" on="0"/>
        <pt x="1750" y="1135" on="1"/>
        <pt x="1750" y="1194" on="0"/>
        <pt x="1905" y="1332" on="0"/>
        <pt x="1972" y="1329" on="1"/>
        <pt x="1990" y="1312" on="0"/>
        <pt x="2013" y="1274" on="1"/>
        <pt x="2029" y="1211" on="0"/>
        <pt x="2026" y="1200" on="1"/>
        <pt x="2024" y="1187" on="0"/>
        <pt x="2009" y="1144" on="1"/>
        <pt x="1996" y="1108" on="0"/>
        <pt x="1996" y="1094" on="1"/>
        <pt x="1996" y="1082" on="0"/>
        <pt x="2089" y="984" on="0"/>
      </contour>
      <contour>
        <pt x="4136" y="243" on="1"/>
        <pt x="4136" y="79" on="0"/>
        <pt x="3926" y="79" on="1"/>
        <pt x="3908" y="79" on="0"/>
        <pt x="3756" y="120" on="0"/>
        <pt x="3747" y="120" on="1"/>
        <pt x="3733" y="120" on="0"/>
        <pt x="3714" y="102" on="1"/>
        <pt x="3685" y="74" on="0"/>
        <pt x="3684" y="73" on="1"/>
        <pt x="3635" y="39" on="0"/>
        <pt x="3548" y="39" on="1"/>
        <pt x="3535" y="39" on="0"/>
        <pt x="3478" y="49" on="0"/>
        <pt x="3466" y="49" on="1"/>
        <pt x="3454" y="49" on="0"/>
        <pt x="3405" y="13" on="0"/>
        <pt x="3395" y="11" on="1"/>
        <pt x="3381" y="8" on="0"/>
        <pt x="3332" y="8" on="1"/>
        <pt x="3319" y="8" on="0"/>
        <pt x="3196" y="39" on="0"/>
        <pt x="3184" y="39" on="1"/>
        <pt x="3171" y="39" on="0"/>
        <pt x="3007" y="-2" on="0"/>
        <pt x="2983" y="-2" on="0"/>
        <pt x="2890" y="-12" on="0"/>
        <pt x="2877" y="-12" on="1"/>
        <pt x="2782" y="-12" on="0"/>
        <pt x="2742" y="0" on="1"/>
        <pt x="2642" y="28" on="0"/>
        <pt x="2574" y="131" on="1"/>
        <pt x="2516" y="81" on="0"/>
        <pt x="2395" y="70" on="1"/>
        <pt x="2253" y="57" on="0"/>
        <pt x="2229" y="46" on="1"/>
        <pt x="2199" y="31" on="0"/>
        <pt x="2171" y="17" on="1"/>
        <pt x="2150" y="8" on="0"/>
        <pt x="2114" y="8" on="1"/>
        <pt x="2016" y="8" on="0"/>
        <pt x="1841" y="79" on="0"/>
        <pt x="1837" y="79" on="1"/>
        <pt x="1827" y="79" on="0"/>
        <pt x="1800" y="59" on="1"/>
        <pt x="1769" y="36" on="0"/>
        <pt x="1758" y="31" on="1"/>
        <pt x="1702" y="16" on="0"/>
        <pt x="1585" y="-24" on="1"/>
        <pt x="1528" y="-170" on="0"/>
        <pt x="1389" y="-303" on="1"/>
        <pt x="1233" y="-453" on="0"/>
        <pt x="1101" y="-453" on="1"/>
        <pt x="1061" y="-453" on="0"/>
        <pt x="934" y="-430" on="1"/>
        <pt x="773" y="-401" on="0"/>
        <pt x="726" y="-367" on="1"/>
        <pt x="753" y="-319" on="0"/>
        <pt x="788" y="-319" on="1"/>
        <pt x="801" y="-319" on="0"/>
        <pt x="939" y="-339" on="0"/>
        <pt x="952" y="-339" on="1"/>
        <pt x="1250" y="-339" on="0"/>
        <pt x="1454" y="-48" on="1"/>
        <pt x="1433" y="-27" on="0"/>
        <pt x="1345" y="-16" on="1"/>
        <pt x="1262" y="-5" on="0"/>
        <pt x="1221" y="52" on="1"/>
        <pt x="1218" y="64" on="0"/>
        <pt x="1218" y="95" on="1"/>
        <pt x="1218" y="158" on="0"/>
        <pt x="1262" y="251" on="1"/>
        <pt x="1316" y="366" on="0"/>
        <pt x="1387" y="366" on="1"/>
        <pt x="1441" y="366" on="0"/>
        <pt x="1560" y="131" on="0"/>
        <pt x="1602" y="131" on="1"/>
        <pt x="1648" y="131" on="1"/>
        <pt x="1701" y="131" on="0"/>
        <pt x="1783" y="194" on="1"/>
        <pt x="1827" y="251" on="0"/>
        <pt x="1871" y="307" on="1"/>
        <pt x="1951" y="407" on="0"/>
        <pt x="1986" y="407" on="1"/>
        <pt x="1997" y="407" on="0"/>
        <pt x="2053" y="346" on="1"/>
        <pt x="2118" y="274" on="0"/>
        <pt x="2148" y="256" on="1"/>
        <pt x="2228" y="202" on="0"/>
        <pt x="2339" y="202" on="1"/>
        <pt x="2549" y="202" on="0"/>
        <pt x="2549" y="300" on="1"/>
        <pt x="2478" y="1012" on="1"/>
        <pt x="2478" y="1071" on="0"/>
        <pt x="2533" y="1144" on="1"/>
        <pt x="2566" y="1121" on="0"/>
        <pt x="2576" y="1020" on="1"/>
        <pt x="2584" y="937" on="0"/>
        <pt x="2590" y="854" on="1"/>
        <pt x="2611" y="724" on="0"/>
        <pt x="2624" y="532" on="1"/>
        <pt x="2632" y="398" on="0"/>
        <pt x="2674" y="250" on="1"/>
        <pt x="2686" y="211" on="0"/>
        <pt x="2731" y="184" on="1"/>
        <pt x="2804" y="141" on="0"/>
        <pt x="2913" y="141" on="1"/>
        <pt x="3056" y="141" on="1"/>
        <pt x="3134" y="141" on="0"/>
        <pt x="3181" y="202" on="1"/>
        <pt x="3214" y="253" on="0"/>
        <pt x="3249" y="304" on="1"/>
        <pt x="3285" y="304" on="1"/>
        <pt x="3303" y="240" on="0"/>
        <pt x="3286" y="158" on="1"/>
        <pt x="3303" y="141" on="0"/>
        <pt x="3332" y="141" on="1"/>
        <pt x="3463" y="141" on="0"/>
        <pt x="3515" y="299" on="1"/>
        <pt x="3546" y="315" on="0"/>
        <pt x="3560" y="315" on="1"/>
        <pt x="3562" y="310" on="0"/>
        <pt x="3562" y="233" on="1"/>
        <pt x="3562" y="193" on="0"/>
        <pt x="3594" y="193" on="1"/>
        <pt x="3667" y="193" on="0"/>
        <pt x="3695" y="255" on="1"/>
        <pt x="3732" y="338" on="0"/>
        <pt x="3784" y="366" on="1"/>
        <pt x="3798" y="347" on="0"/>
        <pt x="3800" y="282" on="1"/>
        <pt x="3852" y="243" on="0"/>
        <pt x="3906" y="243" on="1"/>
        <pt x="3983" y="243" on="1"/>
        <pt x="4034" y="243" on="0"/>
        <pt x="4034" y="279" on="1"/>
        <pt x="4034" y="323" on="0"/>
        <pt x="3948" y="482" on="1"/>
        <pt x="3924" y="501" on="0"/>
        <pt x="3874" y="553" on="1"/>
        <pt x="3860" y="570" on="0"/>
        <pt x="3860" y="617" on="1"/>
        <pt x="3860" y="668" on="0"/>
        <pt x="3903" y="754" on="1"/>
        <pt x="3947" y="754" on="0"/>
        <pt x="3968" y="723" on="1"/>
        <pt x="4136" y="452" on="0"/>
      </contour>
      <contour>
        <pt x="2959" y="-166" on="1"/>
        <pt x="2959" y="-239" on="0"/>
        <pt x="2471" y="-401" on="1"/>
        <pt x="2457" y="-387" on="0"/>
        <pt x="2457" y="-365" on="1"/>
        <pt x="2457" y="-319" on="0"/>
        <pt x="2523" y="-286" on="1"/>
        <pt x="2579" y="-266" on="0"/>
        <pt x="2634" y="-245" on="1"/>
        <pt x="2733" y="-205" on="0"/>
        <pt x="2934" y="-135" on="1"/>
        <pt x="2942" y="-140" on="0"/>
        <pt x="2959" y="-150" on="0"/>
      </contour>
      <contour>
        <pt x="901" y="1360" on="1"/>
        <pt x="901" y="1316" on="0"/>
        <pt x="857" y="1291" on="1"/>
        <pt x="427" y="1041" on="0"/>
        <pt x="382" y="1043" on="1"/>
        <pt x="338" y="1043" on="1"/>
        <pt x="338" y="1076" on="1"/>
        <pt x="338" y="1121" on="0"/>
        <pt x="468" y="1193" on="1"/>
        <pt x="537" y="1226" on="0"/>
        <pt x="607" y="1259" on="1"/>
        <pt x="705" y="1310" on="0"/>
        <pt x="886" y="1390" on="1"/>
        <pt x="901" y="1375" on="0"/>
      </contour>
      <contour>
        <pt x="644" y="796" on="1"/>
        <pt x="644" y="768" on="0"/>
        <pt x="597" y="705" on="0"/>
        <pt x="568" y="705" on="1"/>
        <pt x="537" y="705" on="0"/>
        <pt x="471" y="755" on="0"/>
        <pt x="471" y="781" on="1"/>
        <pt x="471" y="795" on="0"/>
        <pt x="499" y="835" on="1"/>
        <pt x="531" y="878" on="0"/>
        <pt x="558" y="878" on="1"/>
        <pt x="591" y="878" on="0"/>
        <pt x="620" y="845" on="1"/>
        <pt x="644" y="818" on="0"/>
      </contour>
      <contour>
        <pt x="1003" y="254" on="1"/>
        <pt x="1003" y="75" on="0"/>
        <pt x="850" y="-23" on="1"/>
        <pt x="726" y="-104" on="0"/>
        <pt x="563" y="-104" on="1"/>
        <pt x="454" y="-104" on="0"/>
        <pt x="461" y="-105" on="1"/>
        <pt x="423" y="-100" on="0"/>
        <pt x="370" y="-59" on="1"/>
        <pt x="338" y="-35" on="0"/>
        <pt x="304" y="21" on="1"/>
        <pt x="266" y="83" on="0"/>
        <pt x="266" y="120" on="1"/>
        <pt x="266" y="168" on="0"/>
        <pt x="314" y="266" on="1"/>
        <pt x="368" y="378" on="0"/>
        <pt x="418" y="386" on="1"/>
        <pt x="418" y="329" on="1"/>
        <pt x="419" y="319" on="0"/>
        <pt x="378" y="228" on="0"/>
        <pt x="378" y="213" on="1"/>
        <pt x="378" y="121" on="0"/>
        <pt x="471" y="74" on="1"/>
        <pt x="538" y="39" on="0"/>
        <pt x="614" y="39" on="1"/>
        <pt x="663" y="39" on="0"/>
        <pt x="779" y="86" on="1"/>
        <pt x="911" y="139" on="0"/>
        <pt x="911" y="188" on="1"/>
        <pt x="911" y="252" on="0"/>
        <pt x="778" y="516" on="0"/>
        <pt x="778" y="546" on="1"/>
        <pt x="778" y="587" on="0"/>
        <pt x="834" y="643" on="1"/>
        <pt x="889" y="597" on="0"/>
        <pt x="1003" y="339" on="0"/>
      </contour>
      <contour>
        <pt x="3919" y="1339" on="1"/>
        <pt x="3919" y="1409" on="1"/>
        <pt x="3910" y="1409" on="0"/>
        <pt x="3895" y="1421" on="1"/>
        <pt x="3847" y="1397" on="0"/>
        <pt x="3850" y="1373" on="1"/>
        <pt x="3874" y="1362" on="0"/>
      </contour>
      <contour>
        <pt x="1945" y="1161" on="1"/>
        <pt x="1922" y="1206" on="0"/>
        <pt x="1886" y="1206" on="1"/>
        <pt x="1881" y="1200" on="0"/>
        <pt x="1858" y="1176" on="0"/>
        <pt x="1853" y="1170" on="1"/>
        <pt x="1877" y="1152" on="0"/>
        <pt x="1919" y="1114" on="1"/>
        <pt x="1945" y="1140" on="0"/>
      </contour>
      <contour>
        <pt x="2006" y="205" on="1"/>
        <pt x="1986" y="244" on="0"/>
        <pt x="1948" y="263" on="1"/>
        <pt x="1948" y="253" on="0"/>
        <pt x="1925" y="251" on="1"/>
        <pt x="1934" y="205" on="0"/>
      </contour>
      <contour>
        <pt x="1381" y="143" on="1"/>
        <pt x="1381" y="179" on="1"/>
        <pt x="1360" y="202" on="0"/>
        <pt x="1343" y="202" on="1"/>
        <pt x="1332" y="153" on="1"/>
        <pt x="1337" y="153" on="0"/>
        <pt x="1375" y="143" on="0"/>
      </contour>
      <contour>
        <pt x="4005" y="-620" on="1"/>
        <pt x="4005" y="-652" on="0"/>
        <pt x="3961" y="-683" on="1"/>
        <pt x="3925" y="-707" on="0"/>
        <pt x="3912" y="-707" on="1"/>
        <pt x="3901" y="-707" on="0"/>
        <pt x="3843" y="-687" on="0"/>
        <pt x="3830" y="-687" on="1"/>
        <pt x="3819" y="-687" on="0"/>
        <pt x="3752" y="-748" on="0"/>
        <pt x="3739" y="-748" on="1"/>
        <pt x="3712" y="-748" on="0"/>
        <pt x="3626" y="-684" on="0"/>
        <pt x="3626" y="-661" on="1"/>
        <pt x="3626" y="-637" on="0"/>
        <pt x="3694" y="-564" on="0"/>
        <pt x="3718" y="-564" on="1"/>
        <pt x="3730" y="-564" on="0"/>
        <pt x="3794" y="-605" on="0"/>
        <pt x="3805" y="-605" on="1"/>
        <pt x="3818" y="-605" on="0"/>
        <pt x="3894" y="-533" on="0"/>
        <pt x="3907" y="-533" on="1"/>
        <pt x="3936" y="-533" on="0"/>
        <pt x="3972" y="-570" on="1"/>
        <pt x="4005" y="-603" on="0"/>
      </contour>
    </TTGlyph>
    <TTGlyph name="uni2011" xMin="266" yMin="-748" xMax="4136" yMax="1549">
      <contour>
        <pt x="4074" y="1221" on="1"/>
        <pt x="4074" y="1189" on="0"/>
        <pt x="4030" y="1144" on="1"/>
        <pt x="4023" y="1147" on="0"/>
        <pt x="3979" y="1167" on="1"/>
        <pt x="3941" y="1185" on="0"/>
        <pt x="3926" y="1185" on="1"/>
        <pt x="3914" y="1185" on="0"/>
        <pt x="3862" y="1143" on="1"/>
        <pt x="3800" y="1090" on="0"/>
        <pt x="3775" y="1076" on="1"/>
        <pt x="3698" y="1039" on="0"/>
        <pt x="3538" y="960" on="1"/>
        <pt x="3471" y="974" on="1"/>
        <pt x="3503" y="1014" on="0"/>
        <pt x="3620" y="1085" on="1"/>
        <pt x="3742" y="1158" on="0"/>
        <pt x="3808" y="1232" on="1"/>
        <pt x="3792" y="1248" on="0"/>
        <pt x="3762" y="1279" on="1"/>
        <pt x="3747" y="1294" on="0"/>
        <pt x="3747" y="1339" on="1"/>
        <pt x="3747" y="1383" on="0"/>
        <pt x="3808" y="1462" on="1"/>
        <pt x="3876" y="1549" on="0"/>
        <pt x="3933" y="1549" on="1"/>
        <pt x="3947" y="1549" on="0"/>
        <pt x="3960" y="1543" on="1"/>
        <pt x="4011" y="1486" on="0"/>
        <pt x="4011" y="1420" on="1"/>
        <pt x="4011" y="1432" on="0"/>
        <pt x="3995" y="1304" on="1"/>
        <pt x="4002" y="1293" on="0"/>
        <pt x="4041" y="1262" on="1"/>
        <pt x="4074" y="1235" on="0"/>
      </contour>
      <contour>
        <pt x="3471" y="1283" on="1"/>
        <pt x="3471" y="1209" on="0"/>
        <pt x="3314" y="1140" on="1"/>
        <pt x="3186" y="1083" on="0"/>
        <pt x="3132" y="1083" on="1"/>
        <pt x="3095" y="1083" on="0"/>
        <pt x="3072" y="1095" on="1"/>
        <pt x="3069" y="1121" on="0"/>
        <pt x="3136" y="1155" on="1"/>
        <pt x="3242" y="1210" on="0"/>
        <pt x="3245" y="1212" on="1"/>
        <pt x="3235" y="1237" on="0"/>
        <pt x="3184" y="1237" on="1"/>
        <pt x="3166" y="1237" on="0"/>
        <pt x="3089" y="1199" on="0"/>
        <pt x="3071" y="1199" on="1"/>
        <pt x="3060" y="1199" on="0"/>
        <pt x="3051" y="1204" on="1"/>
        <pt x="3077" y="1257" on="0"/>
        <pt x="3082" y="1264" on="1"/>
        <pt x="3103" y="1300" on="0"/>
        <pt x="3125" y="1314" on="1"/>
        <pt x="3196" y="1360" on="0"/>
        <pt x="3235" y="1360" on="1"/>
        <pt x="3248" y="1360" on="0"/>
        <pt x="3330" y="1342" on="1"/>
        <pt x="3424" y="1322" on="0"/>
        <pt x="3459" y="1316" on="1"/>
        <pt x="3459" y="1314" on="0"/>
        <pt x="3471" y="1298" on="0"/>
      </contour>
      <contour>
        <pt x="2089" y="971" on="1"/>
        <pt x="2089" y="942" on="0"/>
        <pt x="2066" y="923" on="1"/>
        <pt x="2048" y="909" on="0"/>
        <pt x="2032" y="909" on="1"/>
        <pt x="2021" y="909" on="0"/>
        <pt x="1943" y="960" on="0"/>
        <pt x="1930" y="960" on="1"/>
        <pt x="1916" y="960" on="0"/>
        <pt x="1871" y="922" on="1"/>
        <pt x="1807" y="867" on="0"/>
        <pt x="1800" y="861" on="1"/>
        <pt x="1750" y="827" on="0"/>
        <pt x="1664" y="785" on="1"/>
        <pt x="1582" y="745" on="0"/>
        <pt x="1561" y="745" on="1"/>
        <pt x="1530" y="745" on="0"/>
        <pt x="1515" y="760" on="1"/>
        <pt x="1554" y="811" on="0"/>
        <pt x="1659" y="883" on="1"/>
        <pt x="1814" y="991" on="0"/>
        <pt x="1822" y="997" on="1"/>
        <pt x="1819" y="1004" on="0"/>
        <pt x="1782" y="1065" on="1"/>
        <pt x="1750" y="1113" on="0"/>
        <pt x="1750" y="1135" on="1"/>
        <pt x="1750" y="1194" on="0"/>
        <pt x="1905" y="1332" on="0"/>
        <pt x="1972" y="1329" on="1"/>
        <pt x="1990" y="1312" on="0"/>
        <pt x="2013" y="1274" on="1"/>
        <pt x="2029" y="1211" on="0"/>
        <pt x="2026" y="1200" on="1"/>
        <pt x="2024" y="1187" on="0"/>
        <pt x="2009" y="1144" on="1"/>
        <pt x="1996" y="1108" on="0"/>
        <pt x="1996" y="1094" on="1"/>
        <pt x="1996" y="1082" on="0"/>
        <pt x="2089" y="984" on="0"/>
      </contour>
      <contour>
        <pt x="4136" y="243" on="1"/>
        <pt x="4136" y="79" on="0"/>
        <pt x="3926" y="79" on="1"/>
        <pt x="3908" y="79" on="0"/>
        <pt x="3756" y="120" on="0"/>
        <pt x="3747" y="120" on="1"/>
        <pt x="3733" y="120" on="0"/>
        <pt x="3714" y="102" on="1"/>
        <pt x="3685" y="74" on="0"/>
        <pt x="3684" y="73" on="1"/>
        <pt x="3635" y="39" on="0"/>
        <pt x="3548" y="39" on="1"/>
        <pt x="3535" y="39" on="0"/>
        <pt x="3478" y="49" on="0"/>
        <pt x="3466" y="49" on="1"/>
        <pt x="3454" y="49" on="0"/>
        <pt x="3405" y="13" on="0"/>
        <pt x="3395" y="11" on="1"/>
        <pt x="3381" y="8" on="0"/>
        <pt x="3332" y="8" on="1"/>
        <pt x="3319" y="8" on="0"/>
        <pt x="3196" y="39" on="0"/>
        <pt x="3184" y="39" on="1"/>
        <pt x="3171" y="39" on="0"/>
        <pt x="3007" y="-2" on="0"/>
        <pt x="2983" y="-2" on="0"/>
        <pt x="2890" y="-12" on="0"/>
        <pt x="2877" y="-12" on="1"/>
        <pt x="2782" y="-12" on="0"/>
        <pt x="2742" y="0" on="1"/>
        <pt x="2642" y="28" on="0"/>
        <pt x="2574" y="131" on="1"/>
        <pt x="2516" y="81" on="0"/>
        <pt x="2395" y="70" on="1"/>
        <pt x="2253" y="57" on="0"/>
        <pt x="2229" y="46" on="1"/>
        <pt x="2199" y="31" on="0"/>
        <pt x="2171" y="17" on="1"/>
        <pt x="2150" y="8" on="0"/>
        <pt x="2114" y="8" on="1"/>
        <pt x="2016" y="8" on="0"/>
        <pt x="1841" y="79" on="0"/>
        <pt x="1837" y="79" on="1"/>
        <pt x="1827" y="79" on="0"/>
        <pt x="1800" y="59" on="1"/>
        <pt x="1769" y="36" on="0"/>
        <pt x="1758" y="31" on="1"/>
        <pt x="1702" y="16" on="0"/>
        <pt x="1585" y="-24" on="1"/>
        <pt x="1528" y="-170" on="0"/>
        <pt x="1389" y="-303" on="1"/>
        <pt x="1233" y="-453" on="0"/>
        <pt x="1101" y="-453" on="1"/>
        <pt x="1061" y="-453" on="0"/>
        <pt x="934" y="-430" on="1"/>
        <pt x="773" y="-401" on="0"/>
        <pt x="726" y="-367" on="1"/>
        <pt x="753" y="-319" on="0"/>
        <pt x="788" y="-319" on="1"/>
        <pt x="801" y="-319" on="0"/>
        <pt x="939" y="-339" on="0"/>
        <pt x="952" y="-339" on="1"/>
        <pt x="1250" y="-339" on="0"/>
        <pt x="1454" y="-48" on="1"/>
        <pt x="1433" y="-27" on="0"/>
        <pt x="1345" y="-16" on="1"/>
        <pt x="1262" y="-5" on="0"/>
        <pt x="1221" y="52" on="1"/>
        <pt x="1218" y="64" on="0"/>
        <pt x="1218" y="95" on="1"/>
        <pt x="1218" y="158" on="0"/>
        <pt x="1262" y="251" on="1"/>
        <pt x="1316" y="366" on="0"/>
        <pt x="1387" y="366" on="1"/>
        <pt x="1441" y="366" on="0"/>
        <pt x="1560" y="131" on="0"/>
        <pt x="1602" y="131" on="1"/>
        <pt x="1648" y="131" on="1"/>
        <pt x="1701" y="131" on="0"/>
        <pt x="1783" y="194" on="1"/>
        <pt x="1827" y="251" on="0"/>
        <pt x="1871" y="307" on="1"/>
        <pt x="1951" y="407" on="0"/>
        <pt x="1986" y="407" on="1"/>
        <pt x="1997" y="407" on="0"/>
        <pt x="2053" y="346" on="1"/>
        <pt x="2118" y="274" on="0"/>
        <pt x="2148" y="256" on="1"/>
        <pt x="2228" y="202" on="0"/>
        <pt x="2339" y="202" on="1"/>
        <pt x="2549" y="202" on="0"/>
        <pt x="2549" y="300" on="1"/>
        <pt x="2478" y="1012" on="1"/>
        <pt x="2478" y="1071" on="0"/>
        <pt x="2533" y="1144" on="1"/>
        <pt x="2566" y="1121" on="0"/>
        <pt x="2576" y="1020" on="1"/>
        <pt x="2584" y="937" on="0"/>
        <pt x="2590" y="854" on="1"/>
        <pt x="2611" y="724" on="0"/>
        <pt x="2624" y="532" on="1"/>
        <pt x="2632" y="398" on="0"/>
        <pt x="2674" y="250" on="1"/>
        <pt x="2686" y="211" on="0"/>
        <pt x="2731" y="184" on="1"/>
        <pt x="2804" y="141" on="0"/>
        <pt x="2913" y="141" on="1"/>
        <pt x="3056" y="141" on="1"/>
        <pt x="3134" y="141" on="0"/>
        <pt x="3181" y="202" on="1"/>
        <pt x="3214" y="253" on="0"/>
        <pt x="3249" y="304" on="1"/>
        <pt x="3285" y="304" on="1"/>
        <pt x="3303" y="240" on="0"/>
        <pt x="3286" y="158" on="1"/>
        <pt x="3303" y="141" on="0"/>
        <pt x="3332" y="141" on="1"/>
        <pt x="3463" y="141" on="0"/>
        <pt x="3515" y="299" on="1"/>
        <pt x="3546" y="315" on="0"/>
        <pt x="3560" y="315" on="1"/>
        <pt x="3562" y="310" on="0"/>
        <pt x="3562" y="233" on="1"/>
        <pt x="3562" y="193" on="0"/>
        <pt x="3594" y="193" on="1"/>
        <pt x="3667" y="193" on="0"/>
        <pt x="3695" y="255" on="1"/>
        <pt x="3732" y="338" on="0"/>
        <pt x="3784" y="366" on="1"/>
        <pt x="3798" y="347" on="0"/>
        <pt x="3800" y="282" on="1"/>
        <pt x="3852" y="243" on="0"/>
        <pt x="3906" y="243" on="1"/>
        <pt x="3983" y="243" on="1"/>
        <pt x="4034" y="243" on="0"/>
        <pt x="4034" y="279" on="1"/>
        <pt x="4034" y="323" on="0"/>
        <pt x="3948" y="482" on="1"/>
        <pt x="3924" y="501" on="0"/>
        <pt x="3874" y="553" on="1"/>
        <pt x="3860" y="570" on="0"/>
        <pt x="3860" y="617" on="1"/>
        <pt x="3860" y="668" on="0"/>
        <pt x="3903" y="754" on="1"/>
        <pt x="3947" y="754" on="0"/>
        <pt x="3968" y="723" on="1"/>
        <pt x="4136" y="452" on="0"/>
      </contour>
      <contour>
        <pt x="2959" y="-166" on="1"/>
        <pt x="2959" y="-239" on="0"/>
        <pt x="2471" y="-401" on="1"/>
        <pt x="2457" y="-387" on="0"/>
        <pt x="2457" y="-365" on="1"/>
        <pt x="2457" y="-319" on="0"/>
        <pt x="2523" y="-286" on="1"/>
        <pt x="2579" y="-266" on="0"/>
        <pt x="2634" y="-245" on="1"/>
        <pt x="2733" y="-205" on="0"/>
        <pt x="2934" y="-135" on="1"/>
        <pt x="2942" y="-140" on="0"/>
        <pt x="2959" y="-150" on="0"/>
      </contour>
      <contour>
        <pt x="901" y="1360" on="1"/>
        <pt x="901" y="1316" on="0"/>
        <pt x="857" y="1291" on="1"/>
        <pt x="427" y="1041" on="0"/>
        <pt x="382" y="1043" on="1"/>
        <pt x="338" y="1043" on="1"/>
        <pt x="338" y="1076" on="1"/>
        <pt x="338" y="1121" on="0"/>
        <pt x="468" y="1193" on="1"/>
        <pt x="537" y="1226" on="0"/>
        <pt x="607" y="1259" on="1"/>
        <pt x="705" y="1310" on="0"/>
        <pt x="886" y="1390" on="1"/>
        <pt x="901" y="1375" on="0"/>
      </contour>
      <contour>
        <pt x="644" y="796" on="1"/>
        <pt x="644" y="768" on="0"/>
        <pt x="597" y="705" on="0"/>
        <pt x="568" y="705" on="1"/>
        <pt x="537" y="705" on="0"/>
        <pt x="471" y="755" on="0"/>
        <pt x="471" y="781" on="1"/>
        <pt x="471" y="795" on="0"/>
        <pt x="499" y="835" on="1"/>
        <pt x="531" y="878" on="0"/>
        <pt x="558" y="878" on="1"/>
        <pt x="591" y="878" on="0"/>
        <pt x="620" y="845" on="1"/>
        <pt x="644" y="818" on="0"/>
      </contour>
      <contour>
        <pt x="1003" y="254" on="1"/>
        <pt x="1003" y="75" on="0"/>
        <pt x="850" y="-23" on="1"/>
        <pt x="726" y="-104" on="0"/>
        <pt x="563" y="-104" on="1"/>
        <pt x="454" y="-104" on="0"/>
        <pt x="461" y="-105" on="1"/>
        <pt x="423" y="-100" on="0"/>
        <pt x="370" y="-59" on="1"/>
        <pt x="338" y="-35" on="0"/>
        <pt x="304" y="21" on="1"/>
        <pt x="266" y="83" on="0"/>
        <pt x="266" y="120" on="1"/>
        <pt x="266" y="168" on="0"/>
        <pt x="314" y="266" on="1"/>
        <pt x="368" y="378" on="0"/>
        <pt x="418" y="386" on="1"/>
        <pt x="418" y="329" on="1"/>
        <pt x="419" y="319" on="0"/>
        <pt x="378" y="228" on="0"/>
        <pt x="378" y="213" on="1"/>
        <pt x="378" y="121" on="0"/>
        <pt x="471" y="74" on="1"/>
        <pt x="538" y="39" on="0"/>
        <pt x="614" y="39" on="1"/>
        <pt x="663" y="39" on="0"/>
        <pt x="779" y="86" on="1"/>
        <pt x="911" y="139" on="0"/>
        <pt x="911" y="188" on="1"/>
        <pt x="911" y="252" on="0"/>
        <pt x="778" y="516" on="0"/>
        <pt x="778" y="546" on="1"/>
        <pt x="778" y="587" on="0"/>
        <pt x="834" y="643" on="1"/>
        <pt x="889" y="597" on="0"/>
        <pt x="1003" y="339" on="0"/>
      </contour>
      <contour>
        <pt x="3919" y="1339" on="1"/>
        <pt x="3919" y="1409" on="1"/>
        <pt x="3910" y="1409" on="0"/>
        <pt x="3895" y="1421" on="1"/>
        <pt x="3847" y="1397" on="0"/>
        <pt x="3850" y="1373" on="1"/>
        <pt x="3874" y="1362" on="0"/>
      </contour>
      <contour>
        <pt x="1945" y="1161" on="1"/>
        <pt x="1922" y="1206" on="0"/>
        <pt x="1886" y="1206" on="1"/>
        <pt x="1881" y="1200" on="0"/>
        <pt x="1858" y="1176" on="0"/>
        <pt x="1853" y="1170" on="1"/>
        <pt x="1877" y="1152" on="0"/>
        <pt x="1919" y="1114" on="1"/>
        <pt x="1945" y="1140" on="0"/>
      </contour>
      <contour>
        <pt x="2006" y="205" on="1"/>
        <pt x="1986" y="244" on="0"/>
        <pt x="1948" y="263" on="1"/>
        <pt x="1948" y="253" on="0"/>
        <pt x="1925" y="251" on="1"/>
        <pt x="1934" y="205" on="0"/>
      </contour>
      <contour>
        <pt x="1381" y="143" on="1"/>
        <pt x="1381" y="179" on="1"/>
        <pt x="1360" y="202" on="0"/>
        <pt x="1343" y="202" on="1"/>
        <pt x="1332" y="153" on="1"/>
        <pt x="1337" y="153" on="0"/>
        <pt x="1375" y="143" on="0"/>
      </contour>
      <contour>
        <pt x="4005" y="-620" on="1"/>
        <pt x="4005" y="-652" on="0"/>
        <pt x="3961" y="-683" on="1"/>
        <pt x="3925" y="-707" on="0"/>
        <pt x="3912" y="-707" on="1"/>
        <pt x="3901" y="-707" on="0"/>
        <pt x="3843" y="-687" on="0"/>
        <pt x="3830" y="-687" on="1"/>
        <pt x="3819" y="-687" on="0"/>
        <pt x="3752" y="-748" on="0"/>
        <pt x="3739" y="-748" on="1"/>
        <pt x="3712" y="-748" on="0"/>
        <pt x="3626" y="-684" on="0"/>
        <pt x="3626" y="-661" on="1"/>
        <pt x="3626" y="-637" on="0"/>
        <pt x="3694" y="-564" on="0"/>
        <pt x="3718" y="-564" on="1"/>
        <pt x="3730" y="-564" on="0"/>
        <pt x="3794" y="-605" on="0"/>
        <pt x="3805" y="-605" on="1"/>
        <pt x="3818" y="-605" on="0"/>
        <pt x="3894" y="-533" on="0"/>
        <pt x="3907" y="-533" on="1"/>
        <pt x="3936" y="-533" on="0"/>
        <pt x="3972" y="-570" on="1"/>
        <pt x="4005" y="-603" on="0"/>
      </contour>
    </TTGlyph>
    <TTGlyph name="uniE000" xMin="0" yMin="0" xMax="1555" yMax="1555">
      <contour>
        <pt x="0" y="1555" on="1"/>
        <pt x="1555" y="1555" on="1"/>
        <pt x="1555" y="0" on="1"/>
        <pt x="0" y="0" on="1"/>
      </contour>
    </TTGlyph>
    <TTGlyph name="uniFB51" xMin="222" yMin="-393" xMax="1574" yMax="1726">
      <contour>
        <pt x="1533" y="1414" on="1"/>
        <pt x="1533" y="1402" on="0"/>
        <pt x="1521" y="1365" on="0"/>
        <pt x="1521" y="1348" on="1"/>
        <pt x="1518" y="1348" on="0"/>
        <pt x="1502" y="1337" on="0"/>
        <pt x="1487" y="1337" on="1"/>
        <pt x="1475" y="1337" on="0"/>
        <pt x="1432" y="1368" on="0"/>
        <pt x="1420" y="1368" on="1"/>
        <pt x="1409" y="1368" on="0"/>
        <pt x="1348" y="1316" on="1"/>
        <pt x="1278" y="1257" on="0"/>
        <pt x="1244" y="1238" on="1"/>
        <pt x="1162" y="1194" on="0"/>
        <pt x="1082" y="1194" on="1"/>
        <pt x="1055" y="1194" on="0"/>
        <pt x="1042" y="1208" on="1"/>
        <pt x="1043" y="1238" on="0"/>
        <pt x="1103" y="1270" on="1"/>
        <pt x="1145" y="1289" on="0"/>
        <pt x="1187" y="1308" on="1"/>
        <pt x="1244" y="1341" on="0"/>
        <pt x="1328" y="1425" on="1"/>
        <pt x="1287" y="1486" on="0"/>
        <pt x="1287" y="1532" on="1"/>
        <pt x="1287" y="1600" on="0"/>
        <pt x="1397" y="1724" on="0"/>
        <pt x="1468" y="1726" on="1"/>
        <pt x="1511" y="1683" on="0"/>
        <pt x="1511" y="1622" on="1"/>
        <pt x="1511" y="1598" on="0"/>
        <pt x="1501" y="1546" on="1"/>
        <pt x="1493" y="1499" on="0"/>
        <pt x="1494" y="1475" on="1"/>
        <pt x="1495" y="1466" on="0"/>
        <pt x="1533" y="1425" on="0"/>
      </contour>
      <contour>
        <pt x="1512" y="856" on="1"/>
        <pt x="1512" y="840" on="0"/>
        <pt x="1441" y="763" on="0"/>
        <pt x="1425" y="763" on="1"/>
        <pt x="1412" y="763" on="0"/>
        <pt x="1330" y="815" on="0"/>
        <pt x="1318" y="815" on="1"/>
        <pt x="1305" y="815" on="0"/>
        <pt x="1228" y="763" on="0"/>
        <pt x="1216" y="763" on="1"/>
        <pt x="1184" y="763" on="0"/>
        <pt x="1147" y="800" on="1"/>
        <pt x="1113" y="834" on="0"/>
        <pt x="1113" y="850" on="1"/>
        <pt x="1113" y="868" on="0"/>
        <pt x="1186" y="948" on="0"/>
        <pt x="1205" y="948" on="1"/>
        <pt x="1216" y="948" on="0"/>
        <pt x="1293" y="897" on="1"/>
        <pt x="1384" y="958" on="0"/>
        <pt x="1389" y="958" on="1"/>
        <pt x="1434" y="958" on="0"/>
      </contour>
      <contour>
        <pt x="1574" y="170" on="1"/>
        <pt x="1574" y="77" on="0"/>
        <pt x="1486" y="21" on="1"/>
        <pt x="1412" y="-24" on="0"/>
        <pt x="1323" y="-24" on="1"/>
        <pt x="1312" y="-24" on="0"/>
        <pt x="1275" y="-35" on="0"/>
        <pt x="1262" y="-35" on="1"/>
        <pt x="1186" y="-35" on="0"/>
        <pt x="1045" y="37" on="1"/>
        <pt x="1036" y="37" on="0"/>
        <pt x="1023" y="20" on="1"/>
        <pt x="1018" y="-39" on="0"/>
        <pt x="1013" y="-97" on="1"/>
        <pt x="1004" y="-171" on="0"/>
        <pt x="976" y="-217" on="1"/>
        <pt x="929" y="-289" on="0"/>
        <pt x="786" y="-344" on="1"/>
        <pt x="658" y="-393" on="0"/>
        <pt x="555" y="-393" on="1"/>
        <pt x="436" y="-393" on="0"/>
        <pt x="338" y="-326" on="1"/>
        <pt x="222" y="-247" on="0"/>
        <pt x="222" y="-117" on="1"/>
        <pt x="222" y="-63" on="0"/>
        <pt x="286" y="43" on="1"/>
        <pt x="343" y="140" on="0"/>
        <pt x="379" y="169" on="1"/>
        <pt x="416" y="169" on="1"/>
        <pt x="416" y="102" on="1"/>
        <pt x="335" y="-4" on="0"/>
        <pt x="335" y="-49" on="1"/>
        <pt x="335" y="-122" on="0"/>
        <pt x="435" y="-186" on="1"/>
        <pt x="518" y="-240" on="0"/>
        <pt x="565" y="-240" on="1"/>
        <pt x="647" y="-240" on="0"/>
        <pt x="766" y="-204" on="1"/>
        <pt x="929" y="-157" on="0"/>
        <pt x="929" y="-81" on="1"/>
        <pt x="836" y="948" on="1"/>
        <pt x="836" y="1069" on="0"/>
        <pt x="904" y="1122" on="1"/>
        <pt x="921" y="1108" on="1"/>
        <pt x="961" y="895" on="0"/>
        <pt x="1027" y="462" on="1"/>
        <pt x="1049" y="274" on="0"/>
        <pt x="1163" y="139" on="0"/>
        <pt x="1303" y="139" on="1"/>
        <pt x="1425" y="139" on="0"/>
        <pt x="1472" y="177" on="1"/>
        <pt x="1472" y="214" on="1"/>
        <pt x="1465" y="221" on="0"/>
        <pt x="1451" y="221" on="1"/>
        <pt x="1439" y="221" on="0"/>
        <pt x="1357" y="170" on="0"/>
        <pt x="1343" y="170" on="1"/>
        <pt x="1290" y="170" on="0"/>
        <pt x="1244" y="244" on="1"/>
        <pt x="1205" y="307" on="0"/>
        <pt x="1205" y="344" on="1"/>
        <pt x="1205" y="415" on="0"/>
        <pt x="1253" y="498" on="1"/>
        <pt x="1304" y="590" on="0"/>
        <pt x="1364" y="590" on="1"/>
        <pt x="1389" y="590" on="0"/>
        <pt x="1462" y="496" on="1"/>
        <pt x="1574" y="356" on="0"/>
      </contour>
      <contour>
        <pt x="1389" y="346" on="1"/>
        <pt x="1371" y="400" on="0"/>
        <pt x="1341" y="415" on="1"/>
        <pt x="1341" y="411" on="0"/>
        <pt x="1318" y="400" on="0"/>
        <pt x="1318" y="385" on="1"/>
        <pt x="1318" y="370" on="0"/>
        <pt x="1330" y="349" on="0"/>
        <pt x="1330" y="346" on="1"/>
      </contour>
      <contour>
        <pt x="1426" y="1543" on="1"/>
        <pt x="1426" y="1548" on="0"/>
        <pt x="1416" y="1587" on="0"/>
        <pt x="1416" y="1593" on="1"/>
        <pt x="1379" y="1593" on="1"/>
        <pt x="1366" y="1566" on="0"/>
        <pt x="1390" y="1543" on="1"/>
      </contour>
    </TTGlyph>
</ttFont>
